<?xml version="1.0" standalone="no"?>
<!DOCTYPE svg PUBLIC "-//W3C//DTD SVG 1.1//EN" "http://www.w3.org/Graphics/SVG/1.1/DTD/svg11.dtd" >
<svg xmlns="http://www.w3.org/2000/svg" xmlns:xlink="http://www.w3.org/1999/xlink" version="1.1">
<metadata>
This is a custom SVG webfont generated by Typotheque.
</metadata>
<defs>
<font id="typotheque_webfonts_service" horiz-adv-x="652" >
<font-face units-per-em="1000" ascent="744" descent="-256" />
<missing-glyph horiz-adv-x="249" />
<glyph unicode=" "  horiz-adv-x="249" />
<glyph unicode="&#x09;" horiz-adv-x="249" />
<glyph unicode="&#xa0;" horiz-adv-x="249" />
<glyph unicode="C" horiz-adv-x="685" d="M408 659q-52 0 -87.5 -25t-57.5 -67t-32 -97t-10 -115q0 -72 10 -131t32.5 -100.5t58 -64.5t86.5 -23q36 0 65.5 14.5t52 39.5t38.5 57.5t26 67.5h43v-159q-42 -34 -100 -52.5t-128 -18.5q-80 0 -146.5 25t-114.5 71t-75 111.5t-27 146.5q0 84 28.5 152.5t78.5 117 t118.5 74.5t149.5 26q60 0 114.5 -13.5t101.5 -40.5v-185h-43q-26 94 -70.5 141.5t-111.5 47.5z" />
<glyph unicode="D" horiz-adv-x="782" d="M278 640v-587h70q66 0 107 24.5t64 65t31 93.5t8 111q0 63 -10 117t-33.5 93t-63 61t-99.5 22h-74zM45 39q11 1 23 2.5t20 4.5q25 10 25 49v503q0 37 -25 48q-8 4 -18.5 5t-24.5 3v39h333q80 0 146 -21t113.5 -62.5t73.5 -103.5t26 -144q0 -85 -28.5 -152.5t-78.5 -114 t-117.5 -71t-145.5 -24.5h-322v39z" />
<glyph unicode="E" d="M45 39q11 1 25 2.5t21 6.5q14 8 18 20.5t4 34.5v487q0 23 -5 35.5t-19 19.5q-6 3 -16.5 5t-27.5 4v39h536v-173h-42q-9 36 -22 59t-31 36.5t-42 19t-57 5.5h-109v-259h82q41 0 54 25q6 11 9 27.5t5 34.5h44v-228h-44q-2 15 -4.5 32.5t-8.5 28.5q-14 27 -55 27h-82v-275 h128q37 0 62.5 8t44.5 26.5t33.5 48t28.5 72.5l38 -4l-17 -204h-551v39z" />
<glyph unicode="F" horiz-adv-x="603" d="M278 640v-273h89q42 0 55 25q6 11 9 27.5t5 34.5h44v-228h-44q-2 15 -4.5 32.5t-8.5 28.5q-7 14 -20 21t-36 7h-89v-216q0 -38 27 -50q8 -4 22.5 -6t30.5 -4v-39h-313v39q11 1 23 2.5t20 4.5q25 12 25 49v495q0 23 -5 35.5t-19 19.5q-6 3 -16.5 5t-27.5 4v39h536v-173 h-42q-9 36 -22 59t-31 36.5t-42 19t-57 5.5h-109z" />
<glyph unicode="G" horiz-adv-x="739" d="M659 55q-20 -15 -48.5 -28t-61.5 -22.5t-70 -14.5t-74 -5q-80 1 -146.5 24.5t-114.5 68.5t-75 110.5t-27 148.5q0 85 29.5 154t81.5 117.5t122.5 74.5t151.5 26q60 0 122.5 -13.5t109.5 -40.5v-179h-38q-23 91 -74 138.5t-126 47.5q-59 0 -97.5 -25.5t-61 -68t-32 -98 t-9.5 -114.5q0 -72 9.5 -132t32.5 -102.5t60 -66t93 -23.5q19 0 38.5 5.5t39.5 15.5v178q0 37 -25 48q-8 3 -20.5 4.5t-26.5 3.5v39h286v-39q-21 -3 -33 -15q-16 -13 -16 -41v-176v0z" />
<glyph unicode="H" horiz-adv-x="838" d="M560 598q0 20 -6 31t-19 17q-7 3 -18.5 4.5t-24.5 3.5v39h301v-39q-11 -1 -23.5 -2.5t-19.5 -4.5q-25 -12 -25 -49v-503q0 -20 6.5 -31t18.5 -17q7 -3 18.5 -4.5t24.5 -3.5v-39h-301v39q11 1 23.5 2.5t20.5 4.5q24 11 24 49v241h-282v-241q0 -20 6 -31t19 -17 q7 -3 18.5 -4.5t24.5 -3.5v-39h-301v39q11 1 23 2.5t20 4.5q25 12 25 49v503q0 20 -6.5 31t-18.5 17q-7 3 -18.5 4.5t-24.5 3.5v39h301v-39q-11 -1 -23.5 -2.5t-20.5 -4.5q-24 -11 -24 -49v-211h282v211v0z" />
<glyph unicode="I" horiz-adv-x="391" d="M278 95q0 -20 6 -31t19 -17q7 -3 18.5 -4.5t24.5 -3.5v-39h-301v39q11 1 23 2.5t20 4.5q25 12 25 49v503q0 20 -6.5 31t-18.5 17q-7 3 -18.5 4.5t-24.5 3.5v39h301v-39q-11 -1 -23.5 -2.5t-20.5 -4.5q-24 -11 -24 -49v-503z" />
<glyph unicode="J" horiz-adv-x="378" d="M272 71q0 -51 -18 -104t-52 -95.5t-83.5 -69.5t-113.5 -27q-68 0 -97 23t-29 56q0 25 15.5 45t46.5 20q29 0 41 -15t18.5 -33.5t13 -33.5t26.5 -15q21 0 34 17t20.5 49.5t10 79.5t2.5 106v524q0 20 -6.5 31t-19.5 17q-7 3 -18 4.5t-24 3.5v39h300v-39q-10 -1 -22.5 -2.5 t-20.5 -4.5q-24 -11 -24 -49v-527v0z" />
<glyph unicode="K" horiz-adv-x="733" d="M278 95q0 -37 25 -48q8 -3 19 -4.5t24 -3.5v-39h-301v39q11 1 23 2.5t20 4.5q25 12 25 49v503q0 37 -25 48q-8 3 -19 4.5t-24 3.5v39h301v-39q-11 -1 -23.5 -2.5t-20.5 -4.5q-24 -11 -24 -49v-503zM306 333l178 208q16 18 25 33.5t9 29.5q0 20 -15 33.5t-53 15.5v40h274 v-40q-38 -5 -72 -23t-66 -53l-151 -168l184 -285q23 -37 51 -58t63 -27l-3 -39h-220l-204 326v7z" />
<glyph unicode="L" horiz-adv-x="600" d="M45 39q13 1 26.5 3t21.5 7q11 7 15.5 20t4.5 34v495q0 20 -6.5 31t-18.5 17q-7 3 -18.5 4.5t-24.5 3.5v39h301v-39q-11 -1 -23.5 -2.5t-20.5 -4.5q-24 -11 -24 -49v-545h75q40 0 69 10.5t50 31.5t37 53t30 75l38 -4l-14 -219h-518v39z" />
<glyph unicode="M" horiz-adv-x="936" d="M473 316l191 377h227v-39q-11 -1 -23.5 -2.5t-20.5 -4.5q-24 -12 -24 -49v-503q0 -20 6.5 -31t18.5 -17q7 -3 18.5 -4.5t24.5 -3.5v-39h-301v39q11 1 23.5 2.5t19.5 4.5q25 12 25 49v450l-211 -416h-42l-213 415v-412q0 -29 8.5 -46.5t23.5 -27.5q25 -16 64 -21v-37h-259 v37q16 2 30 6t27 11q17 9 28 27.5t11 50.5v430q0 49 -23 69q-10 10 -27 16t-39 8v38h245z" />
<glyph unicode="N" horiz-adv-x="804" d="M587 -4l-394 530v-394q0 -29 8.5 -46.5t23.5 -27.5q25 -16 64 -21v-37h-259v37q16 2 30 6t27 11q17 9 28 27.5t11 50.5v408q0 52 -21.5 81t-69.5 36v36h234l352 -458v326q0 29 -8.5 46.5t-23.5 27.5q-25 16 -64 21v37h259v-37q-16 -2 -30 -6t-27 -11q-17 -9 -28 -27.5 t-11 -50.5v-565h-101z" />
<glyph unicode="O" horiz-adv-x="807" d="M765 352q0 -80 -27.5 -147.5t-76.5 -116.5t-116.5 -76t-148.5 -27q-76 0 -140.5 24.5t-112 70.5t-74.5 112t-27 149q0 85 28 153t77.5 116t116.5 73.5t144 25.5q78 0 144 -26t113 -73.5t73.5 -113t26.5 -144.5zM586 343q0 66 -8 124.5t-28.5 101.5t-56.5 68t-91 25 q-56 0 -91.5 -25.5t-55.5 -68.5t-27 -99.5t-7 -118.5q0 -72 8.5 -130.5t28.5 -99.5t54.5 -63.5t87.5 -22.5q59 0 95.5 27t56.5 71t27 99.5t7 111.5z" />
<glyph unicode="P" d="M401 693q45 0 87 -11.5t74 -35.5t51 -60.5t19 -85.5q0 -51 -20 -91.5t-54 -69t-78 -43.5t-93 -15h-109v-186q0 -38 25 -48q9 -4 20.5 -5t25.5 -3v-39h-304v39q11 1 23 2.5t20 4.5q25 10 25 49v503q0 37 -25 48q-8 4 -18.5 5t-24.5 3v39h356zM278 640v-306h57 q35 0 59.5 11.5t39.5 32.5t22 49.5t7 62.5q0 33 -6.5 60.5t-20.5 47.5t-35 31t-50 11h-73z" />
<glyph unicode="Q" horiz-adv-x="807" d="M765 352q0 -80 -27.5 -147.5t-76.5 -116.5t-117 -76q-24 -10 -49 -16q13 -37 27 -63q20 -37 41 -56.5t43.5 -26t46.5 -6.5q13 0 32.5 2t32.5 4v-41q-32 -13 -78 -24t-98 -11q-53 0 -86.5 16t-57 47.5t-40.5 78.5q-13 33 -26 74q-40 6 -77 19q-64 25 -111.5 71t-74.5 112 t-27 149q0 85 28 153t77.5 116t116.5 73.5t144 25.5q78 0 144 -26t113 -73.5t73.5 -113t26.5 -144.5zM586 343q0 66 -8 124.5t-28.5 101.5t-56.5 68t-91 25q-56 0 -91.5 -25.5t-55.5 -68.5t-27 -99.5t-7 -118.5q0 -72 8.5 -130.5t28.5 -99.5t54.5 -63.5t87.5 -22.5 q59 0 95.5 27t56.5 71t27 99.5t7 111.5z" />
<glyph unicode="R" horiz-adv-x="728" d="M401 693q45 0 87 -9.5t74 -30.5t51 -55t19 -83q0 -34 -12 -62.5t-32 -52t-48 -40.5t-59 -29l154 -214q29 -40 53 -56.5t56 -20.5l-3 -40h-219l-207 309h-37v-214q0 -38 25 -48q9 -4 20.5 -5t25.5 -3v-39h-304v39q11 1 23 2.5t20 4.5q25 10 25 49v503q0 37 -25 48 q-8 4 -18.5 5t-24.5 3v39h356zM278 640v-278h57q70 0 99 35.5t29 106.5q0 63 -27 99.5t-85 36.5h-73z" />
<glyph unicode="S" horiz-adv-x="614" d="M282 -15q-55 0 -115.5 13t-111.5 42v183h38q34 -102 85 -144t120 -42q61 0 93 27.5t32 76.5q0 38 -25 71t-87 53l-68 24q-37 12 -70 28t-58.5 39t-40.5 54.5t-15 75.5q0 46 17.5 86.5t52 71t85.5 47.5t118 17q54 -1 106 -13.5t103 -41.5v-179h-45q-25 97 -66.5 140.5 t-108.5 43.5q-60 0 -90.5 -29t-30.5 -75q0 -44 26.5 -72t70.5 -43l80 -26q100 -33 146 -81t46 -121q0 -53 -21.5 -94.5t-60 -71t-91 -45t-114.5 -15.5z" />
<glyph unicode="T" horiz-adv-x="675" d="M419 646v-551q0 -37 26 -48q8 -4 18 -5t24 -3v-39h-300v39q11 1 23 2.5t20 4.5q24 10 24 49v551h-31q-70 0 -107.5 -39t-56.5 -111h-36v197h629v-197h-36q-19 72 -56.5 111t-107.5 39h-33z" />
<glyph unicode="U" horiz-adv-x="770" d="M265 242q0 -93 37.5 -142t126.5 -49q84 0 125.5 52.5t41.5 136.5v329q-2 26 -10 41.5t-22 24.5q-25 16 -64 21v37h259v-37q-15 -2 -29.5 -6t-27.5 -11q-17 -9 -27.5 -26t-11.5 -46v-322q0 -57 -19 -104.5t-54.5 -82t-86.5 -53.5t-114 -19q-58 0 -110.5 14.5t-92 45 t-63 77t-23.5 109.5v366q0 37 -26 48q-8 4 -19.5 5.5t-22.5 2.5v39h300v-39q-14 -2 -24.5 -3t-18.5 -4q-24 -11 -24 -46v-359z" />
<glyph unicode="V" horiz-adv-x="703" d="M244 604q0 -5 1 -10t3 -10l150 -409l164 405q6 13 6 25q0 13 -7.5 21.5t-19.5 14t-27.5 8.5t-31.5 5v39h231v-37q-29 -5 -49.5 -20t-33.5 -45l-252 -602h-64l-236 609q-10 29 -30 41t-47 15v39h314v-39q-27 -3 -49 -14.5t-22 -35.5z" />
<glyph unicode="W" horiz-adv-x="1047" d="M617 693l157 -504l127 380q6 16 6 29q0 28 -22.5 41t-60.5 15v39h231v-38q-29 -4 -50.5 -19.5t-37.5 -60.5l-209 -584h-68l-169 507l-176 -507h-70l-189 599q-11 35 -32.5 48.5t-47.5 15.5v39h315v-39q-35 -2 -53.5 -14t-18.5 -36q0 -5 1 -10.5t3 -10.5l108 -388l166 498 h90z" />
<glyph unicode="X" horiz-adv-x="689" d="M7 693h331v-41q-27 -2 -44.5 -11.5t-17.5 -27.5q0 -14 11 -30l95 -147l101 134q17 23 17 41q0 19 -17.5 29t-45.5 12v41h239v-41q-27 -5 -54.5 -21.5t-53.5 -47.5l-153 -197l188 -289q30 -46 80 -56v-41h-337v41q40 4 63 14.5t23 29.5q0 14 -12 31l-108 165l-113 -155 q-16 -22 -16 -38q0 -38 61 -47v-41h-238v41q35 8 62.5 29.5t48.5 45.5l162 216l-172 264q-19 29 -47 41.5t-53 14.5v41z" />
<glyph unicode="Y" horiz-adv-x="677" d="M260 598q0 -16 9 -31l118 -223l117 219q12 21 12 38q0 26 -22 38t-55 13v41h243v-38q-29 -3 -53.5 -17.5t-43.5 -46.5l-164 -288v-208q0 -20 6.5 -31t18.5 -17q7 -3 18.5 -4.5t24.5 -3.5v-39h-300v39q10 1 22.5 2.5t20.5 4.5q24 11 24 49v205l-167 296q-16 27 -35 39 t-51 17v41h337v-41q-42 -5 -61 -19t-19 -35z" />
<glyph unicode="Z" horiz-adv-x="645" d="M603 218l-14 -218h-557l-5 17l374 626h-141q-34 0 -60.5 -6.5t-47.5 -22.5t-36.5 -42t-28.5 -66l-37 2l12 185h531l7 -17l-375 -626h117q53 0 87 8.5t57.5 28t41.5 52.5t39 83z" />
<glyph unicode="a" horiz-adv-x="544" d="M463 103q0 -37 13.5 -49.5t43.5 -12.5q4 -1 8 -0.5t9 0.5l1 -25q-20 -10 -49.5 -19.5t-69.5 -9.5q-32 0 -53 6.5t-33 18.5t-17 29t-5 38v4q-25 -39 -64 -67t-92 -28q-55 0 -88 32t-33 87q0 31 11.5 54.5t33 40.5t52.5 28.5t69 20.5l111 25v20q0 52 -20.5 78t-78.5 26 q-32 0 -74.5 -6t-87.5 -17v62q57 29 119.5 48t119.5 19q91 0 132.5 -48t41.5 -145v-210zM243 91q17 0 35 4.5t33 10.5v127l-57 -15q-38 -10 -59 -24t-21 -43q0 -31 19 -45.5t50 -14.5z" />
<glyph unicode="b" horiz-adv-x="604" d="M221 421q37 47 74.5 66t82.5 19q86 0 137 -60.5t51 -168.5q0 -72 -24.5 -126t-67 -90.5t-99 -55t-119.5 -18.5q-48 0 -94 8.5t-93 28.5v624q0 26 -7 34.5t-35 8.5q-11 0 -18 -1t-14 -1v35q15 5 36 11t44 11.5t45.5 9t41.5 3.5q35 0 47 -15t12 -47v-276zM290 412 q-16 0 -32 -3.5t-37 -13.5v-340q14 -5 30 -8.5t32 -3.5q34 0 59 16t41 43.5t23.5 63.5t7.5 75q0 82 -30.5 126.5t-93.5 44.5z" />
<glyph unicode="c" horiz-adv-x="514" d="M474 61q-38 -34 -88.5 -55t-116.5 -21q-56 0 -99.5 17t-73 48.5t-45 76.5t-15.5 100q0 60 19 111t54.5 88.5t86.5 59t115 21.5q85 0 130.5 -29.5t45.5 -74.5q0 -32 -18 -52.5t-50 -20.5q-22 0 -35 9t-21.5 22t-14 29t-14 29t-21.5 22t-35 9q-24 0 -42 -14t-30 -38 t-18 -56.5t-6 -69.5q0 -41 7.5 -74.5t25 -57.5t46 -37t70.5 -13q29 0 66 6t75 20l2 -55v0z" />
<glyph unicode="d" horiz-adv-x="629" d="M387 648q0 22 -4.5 30.5t-21.5 10.5q-9 2 -21.5 1.5t-25.5 -1.5v35q15 5 35.5 11t43.5 11.5t45.5 9t41.5 3.5q35 0 47 -15t12 -47v-594q0 -42 17.5 -53t56.5 -9l1 -25q-20 -10 -49 -19.5t-70 -9.5q-62 0 -84.5 23.5t-23.5 61.5q-29 -38 -66.5 -62.5t-88.5 -24.5 q-44 0 -79.5 18.5t-61.5 51t-40 77t-14 97.5q0 67 23.5 119t63 87.5t91 53.5t107.5 18q17 0 33 -2t32 -5v148zM318 88q18 0 33.5 4t35.5 12v327q-18 8 -37 13t-39 5q-63 0 -93.5 -47t-30.5 -133q0 -41 7 -74t22.5 -57t40.5 -37t61 -13z" />
<glyph unicode="e" horiz-adv-x="536" d="M481 61q-38 -34 -91 -55t-119 -21q-113 0 -174 62.5t-61 176.5q0 61 18 113t53 89.5t85.5 59t116.5 21.5q91 0 141 -43.5t53 -129.5q1 -9 0.5 -19t-1.5 -20l-28 -42h-293q1 -37 9.5 -67t25.5 -51.5t45.5 -33.5t70.5 -12q32 0 71.5 6.5t75.5 19.5zM277 449 q-45 0 -67.5 -41t-27.5 -105h169q1 8 1.5 16.5t0.5 17.5q0 51 -19 81.5t-57 30.5z" />
<glyph unicode="f" horiz-adv-x="384" d="M20 493h84q6 52 28.5 100.5t57.5 85t81 58.5t101 22q45 0 75 -16t30 -48q0 -23 -13.5 -41t-43.5 -18q-19 0 -31 9t-22 19.5t-21 19.5t-27 9q-38 0 -52 -34.5t-14 -118.5v-47h122v-49h-122v-351q0 -20 6 -31t19 -17q7 -3 15.5 -5t21.5 -3v-37h-276v37q10 1 20 2.5t17 4.5 q25 10 25 49v351h-81v49z" />
<glyph unicode="g" horiz-adv-x="577" d="M270 191q-24 0 -45.5 2t-41.5 6q-11 -15 -11 -31q0 -17 15.5 -27t53.5 -10h77q50 0 91.5 -7.5t71 -24.5t46 -44t16.5 -66q0 -42 -19.5 -80.5t-58 -68.5t-95.5 -48t-132 -18q-107 0 -164 35.5t-57 89.5q0 40 30.5 66.5t90.5 46.5q-40 12 -56.5 34.5t-16.5 50.5 q0 36 25.5 63.5t63.5 46.5q-51 17 -80 51t-29 84q0 35 15 65t43.5 52.5t70.5 35t95 12.5t96 -12t72 -35q19 10 28.5 25.5t17.5 30.5t19 26t33 11q23 0 36 -12t13 -30q0 -19 -11 -32.5t-28 -23t-38.5 -14.5t-43.5 -7q27 -35 27 -80q0 -37 -16.5 -67t-46 -51.5t-70 -33 t-87.5 -11.5zM232 1q-18 0 -33 1t-29 3q-16 -15 -22.5 -33t-6.5 -39q0 -45 31 -74.5t100 -29.5q66 0 104 28.5t38 75.5q0 35 -25 51.5t-83 16.5h-74zM336 346q0 54 -20 82t-55 28q-37 0 -52 -29.5t-15 -74.5q0 -47 17 -78.5t58 -31.5q39 0 53 30t14 74z" />
<glyph unicode="h" horiz-adv-x="648" d="M84 648q0 23 -5.5 32t-28.5 11q-8 0 -18.5 -0.5t-20.5 -1.5v35q15 5 35.5 11t43.5 11.5t45.5 9t40.5 3.5q36 0 48 -15t12 -47v-281q39 41 85 66t100 25q75 0 110 -41.5t35 -133.5v-239q0 -20 6.5 -31t18.5 -17q7 -3 15.5 -5t21.5 -3v-37h-276v37q10 1 20 2.5t17 4.5 q25 10 25 49v196q0 28 -3.5 51t-13.5 38.5t-28.5 24t-47.5 8.5q-22 0 -41 -4t-44 -14v-300q0 -20 6.5 -31t19.5 -17q7 -3 15 -5t21 -3v-37h-275v37q10 1 19.5 2.5t17.5 4.5q24 10 24 49v555z" />
<glyph unicode="i" horiz-adv-x="333" d="M249 93q0 -20 6 -31t19 -17q7 -3 15.5 -5t20.5 -3v-37h-275v37q10 1 19.5 2.5t17.5 4.5q25 10 25 49v304q0 23 -6.5 32t-30.5 10q-8 0 -18.5 -0.5t-18.5 -1.5v35q15 5 35.5 11t43.5 11.5t45.5 9t40.5 3.5q36 0 48.5 -15t12.5 -47v-352zM86 684q0 41 24 58t56 17t56.5 -17 t24.5 -58q0 -42 -24.5 -59t-56.5 -17t-56 17.5t-24 58.5z" />
<glyph unicode="j" horiz-adv-x="309" d="M89 397q0 24 -7 33t-35 9q-7 0 -15.5 -0.5t-15.5 -1.5v35q15 5 35.5 11t43.5 11.5t45.5 9t40.5 3.5q36 0 48 -15t12 -47v-301q0 -64 -20 -129.5t-55.5 -119t-83 -87.5t-102.5 -34q-37 0 -53.5 20t-16.5 42t15 39t41 17q22 0 31 -8.5t14 -19t9 -18.5t15 -8q30 5 42 42 t12 104v413zM83 683q0 42 24.5 59t56.5 17t56 -17t24 -59q0 -21 -6.5 -35t-17.5 -23t-25.5 -13t-30.5 -4q-32 0 -56.5 17t-24.5 58z" />
<glyph unicode="k" horiz-adv-x="602" d="M84 648q0 24 -6.5 33t-30.5 10q-8 0 -18 -0.5t-18 -1.5v35q15 5 35.5 11t43.5 11.5t45.5 9t40.5 3.5q36 0 48 -15t12 -47v-604q0 -20 6.5 -31t19.5 -17q7 -3 15 -5t21 -3v-37h-275v37q10 1 19.5 2.5t17.5 4.5q24 10 24 49v555zM242 258l110 92q18 16 27.5 32t9.5 30 q1 20 -15.5 33t-47.5 14v34h253v-34q-29 -4 -55.5 -21t-55.5 -41l-101 -85l127 -182q13 -18 23.5 -31.5t21.5 -24t24.5 -19.5t31.5 -19l-5 -36h-184l-164 246v12z" />
<glyph unicode="l" horiz-adv-x="326" d="M87 648q0 23 -6 32t-29 11q-8 0 -18.5 -0.5t-20.5 -1.5v35q15 5 35.5 11t43.5 11.5t45.5 9t40.5 3.5q36 0 48.5 -15t12.5 -47v-604q0 -20 6.5 -31t18.5 -17q7 -3 15.5 -5t21.5 -3v-37h-276v37q11 1 20.5 2.5t16.5 4.5q25 10 25 49v555z" />
<glyph unicode="m" horiz-adv-x="983" d="M249 93q0 -20 6 -31t19 -17q7 -3 15.5 -5t20.5 -3v-37h-275v37q10 1 19.5 2.5t17.5 4.5q25 10 25 49v304q0 24 -7 33t-33 9q-8 0 -17 -0.5t-17 -1.5v35q15 5 35.5 11t43.5 11.5t45.5 9t40.5 3.5q36 0 48.5 -15t12.5 -47v-28q38 40 84 65t100 25q56 0 88.5 -22.5 t46.5 -71.5q40 42 86.5 68t102.5 26q75 0 109.5 -41.5t34.5 -133.5v-239q0 -20 6.5 -31t19.5 -17q7 -3 15 -5t21 -3v-37h-275v37q10 1 19.5 2.5t17.5 4.5q24 10 24 49v196q0 28 -3.5 51t-13.5 38.5t-28.5 24t-47.5 8.5q-21 0 -40 -4t-43 -13q2 -14 3.5 -29.5t1.5 -32.5v-239 q0 -20 6.5 -31t18.5 -17q7 -3 15.5 -5t21.5 -3v-37h-276v37q11 1 20.5 2.5t17.5 4.5q24 10 24 49v196q0 28 -3.5 51t-13.5 38.5t-28.5 24t-47.5 8.5q-21 0 -40.5 -4t-43.5 -13v-301v0z" />
<glyph unicode="n" horiz-adv-x="660" d="M249 93q0 -20 6 -31t19 -17q7 -3 15.5 -5t20.5 -3v-37h-275v37q10 1 19.5 2.5t17.5 4.5q25 10 25 49v304q0 23 -6.5 32t-30.5 10q-8 0 -18.5 -0.5t-18.5 -1.5v35q15 5 35.5 11t43.5 11.5t45.5 9t40.5 3.5q36 0 48.5 -15t12.5 -47v-28q38 40 84 65t100 25q75 0 110 -41.5 t35 -133.5v-239q0 -20 6.5 -31t18.5 -17q7 -3 15.5 -5t21.5 -3v-37h-276v37q11 1 20.5 2.5t17.5 4.5q24 10 24 49v196q0 28 -3.5 51t-13.5 38.5t-28.5 24t-47.5 8.5q-21 0 -40.5 -4t-43.5 -13v-301v0z" />
<glyph unicode="o" horiz-adv-x="600" d="M564 270q0 -58 -19 -110t-55 -91t-88.5 -61.5t-118.5 -22.5q-54 0 -99.5 15.5t-78.5 46t-51.5 76t-18.5 104.5q0 64 22 116t60.5 88.5t91 56t113.5 19.5q55 0 99.5 -16t76 -46.5t49 -74.5t17.5 -100zM402 237q0 48 -6 87t-19 66.5t-34 43t-51 15.5q-28 0 -46 -13 t-29 -37.5t-15.5 -58.5t-4.5 -76q0 -47 5.5 -87.5t18 -70t33.5 -46.5t51 -17q51 0 74 49.5t23 144.5z" />
<glyph unicode="p" horiz-adv-x="624" d="M89 397q0 24 -7 33t-33 9q-7 0 -16 -0.5t-17 -1.5v35q15 5 35.5 11t43.5 11.5t45.5 9t41.5 3.5q35 0 47 -15t12 -47v-23q42 51 84 67.5t78 16.5q45 0 79 -17t57.5 -47.5t35.5 -72.5t12 -92q0 -72 -24 -126t-67 -91t-102.5 -55.5t-129.5 -18.5h-12t-11 1v-111 q0 -22 10.5 -35t33.5 -15q1 0 7 -0.5t13.5 -1t15 -0.5h10.5v-41h-303v37q10 1 19.5 2.5t17.5 4.5q24 10 24 49v521zM313 412q-16 0 -33.5 -3.5t-38.5 -12.5v-342q30 -11 62 -11q34 0 59 16.5t41 43.5t23.5 63t7.5 75q0 81 -30 126t-91 45z" />
<glyph unicode="q" horiz-adv-x="606" d="M289 -180h9t15 0.5t14.5 1t8.5 0.5q45 5 45 54v196q-29 -39 -66.5 -63t-85.5 -24q-41 0 -76 18.5t-60.5 51t-40.5 77t-15 97.5q0 67 23.5 119t63 87.5t91 53.5t107.5 18q35 0 66 -7t58 -18l64 21h23v-627q0 -20 6 -31t19 -17q6 -3 14.5 -5t22.5 -3v-37h-306v37zM317 84 q18 0 32.5 3.5t31.5 13.5v332q-35 16 -70 16q-122 0 -122 -183q0 -81 31 -131.5t97 -50.5z" />
<glyph unicode="r" horiz-adv-x="485" d="M249 93q0 -22 12 -35t38 -15q1 0 6 -0.5t11 -1t12 -0.5h9v-41h-302v37q10 1 19.5 2.5t17.5 4.5q25 10 25 49v304q0 24 -7.5 33t-35.5 9q-7 0 -15.5 -0.5t-15.5 -1.5v35q15 5 35.5 11t43.5 11.5t45.5 9t40.5 3.5q36 0 48.5 -15t12.5 -47v-21q33 40 68.5 61t74.5 21 q35 0 59.5 -19t24.5 -59q0 -32 -20 -54t-53 -22q-21 0 -32.5 9.5t-20.5 21t-19 21t-29 9.5q-8 0 -20.5 -3.5t-32.5 -14.5v-302v0z" />
<glyph unicode="s" horiz-adv-x="482" d="M211 -14q-40 0 -84 8.5t-83 25.5l-3 139l34 4q23 -58 61.5 -91t87.5 -33q40 0 62 18.5t22 47.5t-22 43t-55 24l-49 14q-24 7 -47 19t-42 30.5t-30.5 43t-11.5 56.5q0 38 16.5 69.5t45.5 54.5t68.5 35.5t86.5 12.5q38 0 78 -9t76 -29l8 -121l-42 -3q-31 62 -61 86t-71 24 q-36 0 -54 -18.5t-18 -44.5q0 -29 19 -45.5t48 -25.5l59 -17q22 -6 46 -16t43.5 -26.5t32 -41t12.5 -59.5q0 -44 -20 -76.5t-53 -54.5t-75 -33t-85 -11z" />
<glyph unicode="t" horiz-adv-x="409" d="M8 493h87v96l131 58h21v-154h138v-49h-138v-264q0 -31 4.5 -51.5t15.5 -33t29 -17.5t45 -5q11 0 25.5 2t28.5 5l1 -49q-20 -14 -61 -29t-94 -15q-31 0 -57.5 7t-46 22t-31 38.5t-11.5 56.5v333h-87v49z" />
<glyph unicode="u" horiz-adv-x="643" d="M403 397q0 23 -6.5 32t-30.5 10q-8 0 -18.5 -0.5t-18.5 -1.5v35q15 5 35.5 11t43.5 11.5t45.5 9t40.5 3.5q36 0 48.5 -15t12.5 -47v-342q0 -42 17.5 -53t56.5 -9l1 -25q-20 -10 -49.5 -19.5t-69.5 -9.5q-62 0 -84.5 23t-23.5 61q-38 -40 -79 -63t-97 -23q-73 0 -108 42 t-35 134v236q0 24 -7 33t-35 9q-7 0 -15.5 -0.5t-15.5 -1.5v35q15 5 35.5 11t43.5 11.5t45.5 9t40.5 3.5q36 0 48 -15t12 -47v-246q0 -27 4.5 -47.5t15 -35t29 -22t47.5 -7.5q32 0 71 13v297v0z" />
<glyph unicode="v" horiz-adv-x="571" d="M569 457q-26 -6 -45.5 -26t-30.5 -46l-176 -393h-67l-179 411q-11 27 -29 39t-38 15v36h284v-36q-29 0 -44.5 -13.5t-6.5 -34.5l99 -251l84 207q17 43 1.5 65t-52.5 27v36h200v-36z" />
<glyph unicode="w" horiz-adv-x="857" d="M506 493l131 -336l74 208q15 46 0.5 66.5t-51.5 25.5v36h198v-36q-26 -6 -45.5 -25t-30.5 -47l-163 -393h-67l-125 308l-120 -308h-85l-145 411q-10 26 -28.5 38.5t-38.5 15.5v36h283v-36q-29 0 -43.5 -12.5t-7.5 -35.5l77 -247l120 331h67z" />
<glyph unicode="x" horiz-adv-x="571" d="M483 89q34 -48 77 -54v-35h-273v35q29 0 36.5 15t-5.5 33l-79 108l-52 -66q-29 -38 -21.5 -62t41.5 -28v-35h-198v35q26 6 54 24.5t52 47.5l100 118l-129 178q-17 24 -32 37.5t-35 16.5v36h273v-36q-29 0 -41.5 -15t0.5 -33l83 -115l52 73q23 31 14 58t-43 32v36h197v-36 q-26 -6 -51 -26t-45 -46l-99 -126z" />
<glyph unicode="y" horiz-adv-x="571" d="M569 457q-26 -6 -45.5 -26t-30.5 -46l-121 -270l-11 -25l-41 -92q-7 -16 -17.5 -39t-24.5 -48t-32.5 -49.5t-41.5 -44t-51.5 -31.5t-63.5 -12q-34 0 -49.5 14t-15.5 37q0 26 15.5 42.5t46.5 16.5q37 0 63 3t45.5 13t34.5 27.5t30 46.5l-8 18l-179 411q-11 27 -29 39 t-38 15v36h283v-36q-29 0 -44 -13.5t-7 -34.5l99 -251l85 207q17 43 1.5 65t-52.5 27v36h199v-36z" />
<glyph unicode="z" horiz-adv-x="513" d="M64 493h396l17 -28l-262 -412h98q47 0 84.5 31t51.5 82l32 -4l-22 -162h-417l-15 26l263 414h-92q-29 0 -49.5 -8.5t-35 -23t-24.5 -33.5t-18 -40l-36 5z" />
<glyph unicode="0" horiz-adv-x="676" d="M624 303q0 -70 -24.5 -128.5t-65.5 -100.5t-96 -65.5t-115 -23.5q-51 0 -99.5 16.5t-86.5 51.5t-61 89t-23 128q0 75 24.5 133.5t65 99t93.5 61.5t110 21q54 0 104 -18t89 -53.5t62 -88t23 -122.5zM456 265q0 50 -6 98.5t-20 87t-38 62t-61 23.5q-32 0 -53 -18.5t-34 -50 t-18 -74t-5 -90.5q0 -56 6 -104.5t20 -84.5t36.5 -57t55.5 -21q36 0 59 22.5t36 56.5t17.5 74.5t4.5 75.5z" />
<glyph unicode="1" horiz-adv-x="475" d="M334 105q-1 -23 6 -34t21 -16q3 -1 16 -2.5t28.5 -2.5t30.5 -2t24 -2v-46h-404v46q5 0 19.5 1t31 2.5t30.5 2.5t18 3q15 5 21 16.5t6 33.5v353h-136v36q27 4 64 14.5t74.5 24t70 27.5t51.5 23h28v-478z" />
<glyph unicode="2" horiz-adv-x="568" d="M497 0h-449l-7 35q77 70 130 119.5t86 88t48 70.5t15 66q0 48 -27 74.5t-80 26.5q-48 0 -82 -20.5t-64 -56.5l-20 23q25 42 54.5 72t62 49t67 28t69.5 9q45 0 79 -13.5t56.5 -35.5t34 -51t11.5 -59q0 -45 -22.5 -84t-61.5 -75.5t-91.5 -72t-112.5 -73.5h343l3 -10z" />
<glyph unicode="3" horiz-adv-x="575" d="M180 204q37 24 67.5 45t52 42t33 43t11.5 49q0 26 -11 44.5t-29 30t-40 17t-44 5.5q-45 0 -86 -18.5t-69 -50.5l-22 26q50 72 111.5 109.5t137.5 37.5q45 0 82.5 -12.5t64.5 -34t41.5 -50t14.5 -60.5q0 -54 -47.5 -97t-132.5 -79q102 -10 161.5 -60t59.5 -128 q0 -56 -30.5 -97.5t-77 -69.5t-101.5 -41.5t-104 -13.5q-30 0 -62 5.5t-59 16.5t-44.5 29t-17.5 44q0 24 15.5 40.5t44.5 16.5q20 0 31.5 -8t19.5 -20t14.5 -25.5t17 -25.5t26 -20t41.5 -8q54 0 90 35.5t36 100.5q0 22 -6.5 46t-27 45t-57 37t-96.5 23z" />
<glyph unicode="4" horiz-adv-x="631" d="M327 44h-312v74l384 462h80v-435h136l3 -10l-32 -91h-107v-185h-152v185zM327 145v270l-224 -270h224z" />
<glyph unicode="5" horiz-adv-x="574" d="M160 438l-23 -152q84 8 153.5 -1t119.5 -34.5t77.5 -66.5t27.5 -96q0 -59 -29 -105t-74 -77.5t-99.5 -48t-105.5 -16.5q-29 0 -60.5 5.5t-58 17t-43.5 29.5t-17 43q0 22 15 39.5t44 17.5q28 0 41 -16.5t24.5 -36.5t30 -36.5t57.5 -16.5q58 0 89 38.5t31 102.5 q0 40 -14 72t-47 53t-88.5 30.5t-137.5 4.5l59 381h396l3 -10l-40 -121h-331z" />
<glyph unicode="6" horiz-adv-x="624" d="M565 665q-83 -5 -143.5 -27t-102.5 -59t-66.5 -86.5t-35.5 -108.5q33 28 74 43t85 15q43 0 81 -14.5t66 -41.5t44.5 -64.5t16.5 -83.5q0 -57 -22 -103.5t-60.5 -80t-90.5 -52t-112 -18.5q-62 0 -109 20t-79.5 57.5t-49 91t-16.5 120.5q0 90 30.5 168.5t87.5 136.5 t139 92.5t185 37.5q14 1 32.5 0.5t36.5 -2.5zM207 265q0 -51 6.5 -94t20.5 -74t35 -48.5t50 -17.5q47 0 74 44t27 119q0 85 -34.5 128t-94.5 43q-20 0 -40.5 -5t-39.5 -13q-2 -20 -3 -40.5t-1 -41.5z" />
<glyph unicode="7" horiz-adv-x="521" d="M81 -144l-2 11l337 573h-382l-3 10l40 119h440l7 -25l-330 -688h-107z" />
<glyph unicode="8" horiz-adv-x="631" d="M569 542q0 -52 -39 -89t-115 -66q39 -18 69.5 -37.5t52.5 -42t33.5 -49.5t11.5 -61q0 -47 -21 -85.5t-58.5 -67t-88.5 -44t-110 -15.5q-49 0 -95.5 10.5t-82.5 32t-57.5 54.5t-21.5 78q0 56 37 99.5t114 67.5q-62 32 -98 74t-36 104q0 51 24 89t62 63.5t85 38t94 12.5 t90.5 -11.5t76.5 -33t53 -52.5t20 -69zM432 145q0 33 -19 57.5t-47.5 43t-62.5 33t-63 28.5q-25 -20 -40.5 -50t-15.5 -75q0 -30 7 -56.5t22 -47t38 -32.5t55 -12q29 0 52.5 9.5t40 25t25 35.5t8.5 41zM204 561q0 -30 14.5 -53t38 -41t54 -32.5t62.5 -28.5q23 26 36.5 56.5 t13.5 65.5q0 26 -6.5 49.5t-20 41t-35 28t-49.5 10.5q-48 0 -78 -26.5t-30 -69.5z" />
<glyph unicode="9" horiz-adv-x="624" d="M58 -96q83 5 143.5 27t102.5 59t67 86.5t36 108.5q-33 -29 -74 -44t-85 -15q-43 0 -81 14.5t-66.5 41.5t-45 64.5t-16.5 84.5q0 57 22 103.5t60.5 80t90.5 52t112 18.5q62 0 109.5 -20t79.5 -57.5t48.5 -91t16.5 -120.5q0 -91 -30.5 -169t-87.5 -136.5t-139 -93 t-185 -37.5q-14 0 -32 0.5t-37 2.5zM417 303q0 51 -6.5 94.5t-20.5 74.5t-35 48.5t-50 17.5q-48 0 -75 -44t-27 -119q0 -85 34.5 -128.5t94.5 -43.5q20 0 40.5 5t39.5 13q2 20 3.5 40t1.5 42z" />
<glyph unicode="&#xc1;" horiz-adv-x="703" d="M0 0zM408 240h-220l-55 -145q-7 -18 1 -31t28 -18q7 -2 23.5 -3.5t33.5 -3.5v-39h-227v39q11 1 21.5 4.5t18.5 6.5q15 5 24 15.5t16 29.5l243 611h84l224 -611q7 -20 16 -30t23 -15q8 -4 18 -7t21 -4v-39h-315v39q15 2 28 4t21 5q14 6 21.5 17.5t1.5 29.5zM208 293h182 l-86 251zM540 858l-176 -125h-38l-4 10l85 126h129z" />
<glyph unicode="&#xc2;" horiz-adv-x="703" d="M0 0zM408 240h-220l-55 -145q-7 -18 1 -31t28 -18q7 -2 23.5 -3.5t33.5 -3.5v-39h-227v39q11 1 21.5 4.5t18.5 6.5q15 5 24 15.5t16 29.5l243 611h84l224 -611q7 -20 16 -30t23 -15q8 -4 18 -7t21 -4v-39h-315v39q15 2 28 4t21 5q14 6 21.5 17.5t1.5 29.5zM208 293h182 l-86 251zM335 874h57l120 -135l-4 -10h-56l-100 66l-93 -66h-41l-4 10z" />
<glyph unicode="&#xc0;" horiz-adv-x="703" d="M0 0zM408 240h-220l-55 -145q-7 -18 1 -31t28 -18q7 -2 23.5 -3.5t33.5 -3.5v-39h-227v39q11 1 21.5 4.5t18.5 6.5q15 5 24 15.5t16 29.5l243 611h84l224 -611q7 -20 16 -30t23 -15q8 -4 18 -7t21 -4v-39h-315v39q15 2 28 4t21 5q14 6 21.5 17.5t1.5 29.5zM208 293h182 l-86 251zM171 869h129l85 -126l-4 -10h-38l-176 125z" />
<glyph unicode="&#x104;" horiz-adv-x="703" d="M0 0zM408 240h-220l-55 -145q-7 -18 1 -31t28 -18q7 -2 23.5 -3.5t33.5 -3.5v-39h-227v39q11 1 21.5 4.5t18.5 6.5q15 5 24 15.5t16 29.5l243 611h84l224 -611q7 -20 16 -30t23 -15q8 -4 18 -7t21 -4v-39h-315v39q15 2 28 4t21 5q14 6 21.5 17.5t1.5 29.5zM208 293h182 l-86 251zM687 -217q-38 -8 -70 -8q-57 0 -88.5 26t-31.5 71q0 19 10.5 39.5t30 39.5t46.5 35.5t60 28.5l19 -1q-32 -23 -49.5 -52t-17.5 -64q0 -31 14.5 -50t44.5 -19q6 0 14.5 1t17.5 3v-50z" />
<glyph unicode="&#x1ea4;" horiz-adv-x="703" d="M0 0zM408 240h-220l-55 -145q-7 -18 1 -31t28 -18q7 -2 23.5 -3.5t33.5 -3.5v-39h-227v39q11 1 21.5 4.5t18.5 6.5q15 5 24 15.5t16 29.5l243 611h84l224 -611q7 -20 16 -30t23 -15q8 -4 18 -7t21 -4v-39h-315v39q15 2 28 4t21 5q14 6 21.5 17.5t1.5 29.5zM208 293h182 l-86 251zM331 850h57l120 -111l-4 -10h-56l-100 50l-93 -50h-40l-4 10zM663 897l-147 -109h-33l-3 10l68 110h111z" />
<glyph unicode="&#xc7;" horiz-adv-x="685" d="M42 0zM408 659q-52 0 -87.5 -25t-57.5 -67t-32 -97t-10 -115q0 -72 10 -131t32.5 -100.5t58 -64.5t86.5 -23q36 0 65.5 14.5t52 39.5t38.5 57.5t26 67.5h43v-159q-42 -34 -100 -52.5t-128 -18.5q-80 0 -146.5 25t-114.5 71t-75 111.5t-27 146.5q0 84 28.5 152.5t78.5 117 t118.5 74.5t149.5 26q60 0 114.5 -13.5t101.5 -40.5v-185h-43q-26 94 -70.5 141.5t-111.5 47.5zM523 -139q0 -42 -35 -64.5t-95 -22.5q-21 0 -40 2.5t-37 7.5v62q14 -5 34.5 -10t39.5 -5q17 0 29 6t12 21q0 19 -15.5 24.5t-31.5 6.5q-8 0 -13.5 -0.5t-10.5 -1.5v121h54v-66 q19 0 38.5 -4.5t35.5 -14.5t25.5 -25.5t9.5 -36.5z" />
<glyph unicode="&#x106;" horiz-adv-x="685" d="M42 0zM408 659q-52 0 -87.5 -25t-57.5 -67t-32 -97t-10 -115q0 -72 10 -131t32.5 -100.5t58 -64.5t86.5 -23q36 0 65.5 14.5t52 39.5t38.5 57.5t26 67.5h43v-159q-42 -34 -100 -52.5t-128 -18.5q-80 0 -146.5 25t-114.5 71t-75 111.5t-27 146.5q0 84 28.5 152.5t78.5 117 t118.5 74.5t149.5 26q60 0 114.5 -13.5t101.5 -40.5v-185h-43q-26 94 -70.5 141.5t-111.5 47.5zM577 858l-176 -125h-38l-4 10l85 126h129z" />
<glyph unicode="&#x10c;" horiz-adv-x="685" d="M42 0zM408 659q-52 0 -87.5 -25t-57.5 -67t-32 -97t-10 -115q0 -72 10 -131t32.5 -100.5t58 -64.5t86.5 -23q36 0 65.5 14.5t52 39.5t38.5 57.5t26 67.5h43v-159q-42 -34 -100 -52.5t-128 -18.5q-80 0 -146.5 25t-114.5 71t-75 111.5t-27 146.5q0 84 28.5 152.5t78.5 117 t118.5 74.5t149.5 26q60 0 114.5 -13.5t101.5 -40.5v-185h-43q-26 94 -70.5 141.5t-111.5 47.5zM436 729h-57l-120 135l4 10h56l100 -66l93 66h41l4 -10z" />
<glyph unicode="&#x110;" horiz-adv-x="784" d="M44 385h70v213q0 38 -25 48q-8 4 -18 5t-24 3v39h333q80 0 146 -21t113.5 -62.5t73.5 -103.5t26 -144q0 -85 -28.5 -152.5t-78.5 -114t-117.5 -71t-145.5 -24.5h-322v39q11 1 23 2.5t20 4.5q24 10 24 49v231h-70v59zM279 640v-255h125v-59h-125v-273h70q66 0 107 24.5 t64.5 65t31.5 93.5t8 111q0 63 -10 117t-34 93t-63.5 61t-99.5 22h-74z" />
<glyph unicode="&#xc9;" d="M45 0zM509 858l-176 -125h-38l-4 10l85 126h129zM45 39q11 1 25 2.5t21 6.5q14 8 18 20.5t4 34.5v487q0 23 -5 35.5t-19 19.5q-6 3 -16.5 5t-27.5 4v39h536v-173h-42q-9 36 -22 59t-31 36.5t-42 19t-57 5.5h-109v-259h82q41 0 54 25q6 11 9 27.5t5 34.5h44v-228h-44 q-2 15 -4.5 32.5t-8.5 28.5q-14 27 -55 27h-82v-275h128q37 0 62.5 8t44.5 26.5t33.5 48t28.5 72.5l38 -4l-17 -204h-551v39z" />
<glyph unicode="&#xca;" d="M45 0zM45 39q11 1 25 2.5t21 6.5q14 8 18 20.5t4 34.5v487q0 23 -5 35.5t-19 19.5q-6 3 -16.5 5t-27.5 4v39h536v-173h-42q-9 36 -22 59t-31 36.5t-42 19t-57 5.5h-109v-259h82q41 0 54 25q6 11 9 27.5t5 34.5h44v-228h-44q-2 15 -4.5 32.5t-8.5 28.5q-14 27 -55 27h-82 v-275h128q37 0 62.5 8t44.5 26.5t33.5 48t28.5 72.5l38 -4l-17 -204h-551v39zM325 874h57l120 -135l-4 -10h-56l-100 66l-93 -66h-41l-4 10z" />
<glyph unicode="&#xcb;" d="M45 0zM189 807q0 37 21.5 52t50.5 15q28 0 49.5 -15t21.5 -52t-21.5 -52t-49.5 -15q-29 0 -50.5 15t-21.5 52zM378 807q0 37 21.5 52t50.5 15t50.5 -15t21.5 -52t-21.5 -52t-50.5 -15t-50.5 15t-21.5 52zM45 39q11 1 25 2.5t21 6.5q14 8 18 20.5t4 34.5v487q0 23 -5 35.5 t-19 19.5q-6 3 -16.5 5t-27.5 4v39h536v-173h-42q-9 36 -22 59t-31 36.5t-42 19t-57 5.5h-109v-259h82q41 0 54 25q6 11 9 27.5t5 34.5h44v-228h-44q-2 15 -4.5 32.5t-8.5 28.5q-14 27 -55 27h-82v-275h128q37 0 62.5 8t44.5 26.5t33.5 48t28.5 72.5l38 -4l-17 -204h-551v39 z" />
<glyph unicode="&#xc8;" d="M45 0zM183 869h129l85 -126l-4 -10h-38l-176 125zM45 39q11 1 25 2.5t21 6.5q14 8 18 20.5t4 34.5v487q0 23 -5 35.5t-19 19.5q-6 3 -16.5 5t-27.5 4v39h536v-173h-42q-9 36 -22 59t-31 36.5t-42 19t-57 5.5h-109v-259h82q41 0 54 25q6 11 9 27.5t5 34.5h44v-228h-44 q-2 15 -4.5 32.5t-8.5 28.5q-14 27 -55 27h-82v-275h128q37 0 62.5 8t44.5 26.5t33.5 48t28.5 72.5l38 -4l-17 -204h-551v39z" />
<glyph unicode="&#x118;" d="M45 0zM596 -217q-38 -8 -70 -8q-57 0 -88.5 26t-31.5 71q0 19 10.5 39.5t30 39.5t46.5 35.5t60 28.5l19 -1q-32 -23 -49.5 -52t-17.5 -64q0 -31 14.5 -50t44.5 -19q6 0 14.5 1t17.5 3v-50zM45 39q11 1 25 2.5t21 6.5q14 8 18 20.5t4 34.5v487q0 23 -5 35.5t-19 19.5 q-6 3 -16.5 5t-27.5 4v39h536v-173h-42q-9 36 -22 59t-31 36.5t-42 19t-57 5.5h-109v-259h82q41 0 54 25q6 11 9 27.5t5 34.5h44v-228h-44q-2 15 -4.5 32.5t-8.5 28.5q-14 27 -55 27h-82v-275h128q37 0 62.5 8t44.5 26.5t33.5 48t28.5 72.5l38 -4l-17 -204h-551v39z" />
<glyph unicode="&#x1ebe;" d="M45 0zM45 39q11 1 25 2.5t21 6.5q14 8 18 20.5t4 34.5v487q0 23 -5 35.5t-19 19.5q-6 3 -16.5 5t-27.5 4v39h536v-173h-42q-9 36 -22 59t-31 36.5t-42 19t-57 5.5h-109v-259h82q41 0 54 25q6 11 9 27.5t5 34.5h44v-228h-44q-2 15 -4.5 32.5t-8.5 28.5q-14 27 -55 27h-82 v-275h128q37 0 62.5 8t44.5 26.5t33.5 48t28.5 72.5l38 -4l-17 -204h-551v39zM322 850h57l120 -111l-4 -10h-56l-100 50l-93 -50h-40l-4 10zM654 897l-147 -109h-33l-3 10l68 110h111z" />
<glyph unicode="&#x1f4;" horiz-adv-x="739" d="M42 0zM594 858l-176 -125h-38l-4 10l85 126h129zM659 55q-20 -15 -48.5 -28t-61.5 -22.5t-70 -14.5t-74 -5q-80 1 -146.5 24.5t-114.5 68.5t-75 110.5t-27 148.5q0 85 29.5 154t81.5 117.5t122.5 74.5t151.5 26q60 0 122.5 -13.5t109.5 -40.5v-179h-38q-23 91 -74 138.5 t-126 47.5q-59 0 -97.5 -25.5t-61 -68t-32 -98t-9.5 -114.5q0 -72 9.5 -132t32.5 -102.5t60 -66t93 -23.5q19 0 38.5 5.5t39.5 15.5v178q0 37 -25 48q-8 3 -20.5 4.5t-26.5 3.5v39h286v-39q-21 -3 -33 -15q-16 -13 -16 -41v-176v0z" />
<glyph unicode="&#xcd;" horiz-adv-x="391" d="M45 0zM278 95q0 -20 6 -31t19 -17q7 -3 18.5 -4.5t24.5 -3.5v-39h-301v39q11 1 23 2.5t20 4.5q25 12 25 49v503q0 20 -6.5 31t-18.5 17q-7 3 -18.5 4.5t-24.5 3.5v39h301v-39q-11 -1 -23.5 -2.5t-20.5 -4.5q-24 -11 -24 -49v-503zM368 858l-176 -125h-38l-4 10l85 126 h129z" />
<glyph unicode="&#xce;" horiz-adv-x="391" d="M45 0zM278 95q0 -20 6 -31t19 -17q7 -3 18.5 -4.5t24.5 -3.5v-39h-301v39q11 1 23 2.5t20 4.5q25 12 25 49v503q0 20 -6.5 31t-18.5 17q-7 3 -18.5 4.5t-24.5 3.5v39h301v-39q-11 -1 -23.5 -2.5t-20.5 -4.5q-24 -11 -24 -49v-503zM182 874h57l120 -135l-4 -10h-56 l-100 66l-93 -66h-41l-4 10z" />
<glyph unicode="&#xcf;" horiz-adv-x="391" d="M32 0zM278 95q0 -20 6 -31t19 -17q7 -3 18.5 -4.5t24.5 -3.5v-39h-301v39q11 1 23 2.5t20 4.5q25 12 25 49v503q0 20 -6.5 31t-18.5 17q-7 3 -18.5 4.5t-24.5 3.5v39h301v-39q-11 -1 -23.5 -2.5t-20.5 -4.5q-24 -11 -24 -49v-503zM32 807q0 37 21.5 52t50.5 15 q28 0 49.5 -15t21.5 -52t-21.5 -52t-49.5 -15q-29 0 -50.5 15t-21.5 52zM221 807q0 37 21.5 52t50.5 15t50.5 -15t21.5 -52t-21.5 -52t-50.5 -15t-50.5 15t-21.5 52z" />
<glyph unicode="&#x139;" horiz-adv-x="600" d="M45 0zM353 858l-176 -125h-38l-4 10l85 126h129zM45 39q13 1 26.5 3t21.5 7q11 7 15.5 20t4.5 34v495q0 20 -6.5 31t-18.5 17q-7 3 -18.5 4.5t-24.5 3.5v39h301v-39q-11 -1 -23.5 -2.5t-20.5 -4.5q-24 -11 -24 -49v-545h75q40 0 69 10.5t50 31.5t37 53t30 75l38 -4 l-14 -219h-518v39z" />
<glyph unicode="&#x141;" horiz-adv-x="601" d="M46 39q13 1 26.5 3t21.5 7q11 7 15.5 20t4.5 34v159l-68 -33v62l68 33v274q0 20 -6.5 31t-18.5 17q-7 3 -18.5 4.5t-24.5 3.5v39h301v-39q-11 -1 -23.5 -2.5t-20.5 -4.5q-24 -11 -24 -49v-194l122 59v-62l-122 -59v-289h75q40 0 69 10.5t50 31.5t37 53t30 75l38 -4 l-14 -219h-518v39z" />
<glyph unicode="&#x1e3e;" horiz-adv-x="936" d="M29 0zM667 858l-176 -125h-38l-4 10l85 126h129zM473 316l191 377h227v-39q-11 -1 -23.5 -2.5t-20.5 -4.5q-24 -12 -24 -49v-503q0 -20 6.5 -31t18.5 -17q7 -3 18.5 -4.5t24.5 -3.5v-39h-301v39q11 1 23.5 2.5t19.5 4.5q25 12 25 49v450l-211 -416h-42l-213 415v-412 q0 -29 8.5 -46.5t23.5 -27.5q25 -16 64 -21v-37h-259v37q16 2 30 6t27 11q17 9 28 27.5t11 50.5v430q0 49 -23 69q-10 10 -27 16t-39 8v38h245z" />
<glyph unicode="&#xd1;" horiz-adv-x="804" d="M30 0zM565 853q-3 -48 -25.5 -80t-71.5 -32q-21 0 -40 5.5t-35 12.5t-30 12.5t-24 5.5q-14 0 -25.5 -9.5t-16.5 -30.5h-42q2 47 24.5 79t71.5 32q18 0 34.5 -5.5t32 -12t30.5 -12t29 -5.5q17 0 29 9.5t16 30.5h43zM587 -4l-394 530v-394q0 -29 8.5 -46.5t23.5 -27.5 q25 -16 64 -21v-37h-259v37q16 2 30 6t27 11q17 9 28 27.5t11 50.5v408q0 52 -21.5 81t-69.5 36v36h234l352 -458v326q0 29 -8.5 46.5t-23.5 27.5q-25 16 -64 21v37h259v-37q-16 -2 -30 -6t-27 -11q-17 -9 -28 -27.5t-11 -50.5v-565h-101z" />
<glyph unicode="&#x143;" horiz-adv-x="804" d="M30 0zM577 858l-176 -125h-38l-4 10l85 126h129zM587 -4l-394 530v-394q0 -29 8.5 -46.5t23.5 -27.5q25 -16 64 -21v-37h-259v37q16 2 30 6t27 11q17 9 28 27.5t11 50.5v408q0 52 -21.5 81t-69.5 36v36h234l352 -458v326q0 29 -8.5 46.5t-23.5 27.5q-25 16 -64 21v37h259 v-37q-16 -2 -30 -6t-27 -11q-17 -9 -28 -27.5t-11 -50.5v-565h-101z" />
<glyph unicode="&#xd6;" horiz-adv-x="807" d="M42 0zM240 807q0 37 21.5 52t50.5 15q28 0 49.5 -15t21.5 -52t-21.5 -52t-49.5 -15q-29 0 -50.5 15t-21.5 52zM429 807q0 37 21.5 52t50.5 15t50.5 -15t21.5 -52t-21.5 -52t-50.5 -15t-50.5 15t-21.5 52zM765 352q0 -80 -27.5 -147.5t-76.5 -116.5t-116.5 -76t-148.5 -27 q-76 0 -140.5 24.5t-112 70.5t-74.5 112t-27 149q0 85 28 153t77.5 116t116.5 73.5t144 25.5q78 0 144 -26t113 -73.5t73.5 -113t26.5 -144.5zM586 343q0 66 -8 124.5t-28.5 101.5t-56.5 68t-91 25q-56 0 -91.5 -25.5t-55.5 -68.5t-27 -99.5t-7 -118.5q0 -72 8.5 -130.5 t28.5 -99.5t54.5 -63.5t87.5 -22.5q59 0 95.5 27t56.5 71t27 99.5t7 111.5z" />
<glyph unicode="&#xd3;" horiz-adv-x="807" d="M42 0zM571 858l-176 -125h-38l-4 10l85 126h129zM765 352q0 -80 -27.5 -147.5t-76.5 -116.5t-116.5 -76t-148.5 -27q-76 0 -140.5 24.5t-112 70.5t-74.5 112t-27 149q0 85 28 153t77.5 116t116.5 73.5t144 25.5q78 0 144 -26t113 -73.5t73.5 -113t26.5 -144.5zM586 343 q0 66 -8 124.5t-28.5 101.5t-56.5 68t-91 25q-56 0 -91.5 -25.5t-55.5 -68.5t-27 -99.5t-7 -118.5q0 -72 8.5 -130.5t28.5 -99.5t54.5 -63.5t87.5 -22.5q59 0 95.5 27t56.5 71t27 99.5t7 111.5z" />
<glyph unicode="&#xd4;" horiz-adv-x="807" d="M42 0zM765 352q0 -80 -27.5 -147.5t-76.5 -116.5t-116.5 -76t-148.5 -27q-76 0 -140.5 24.5t-112 70.5t-74.5 112t-27 149q0 85 28 153t77.5 116t116.5 73.5t144 25.5q78 0 144 -26t113 -73.5t73.5 -113t26.5 -144.5zM586 343q0 66 -8 124.5t-28.5 101.5t-56.5 68t-91 25 q-56 0 -91.5 -25.5t-55.5 -68.5t-27 -99.5t-7 -118.5q0 -72 8.5 -130.5t28.5 -99.5t54.5 -63.5t87.5 -22.5q59 0 95.5 27t56.5 71t27 99.5t7 111.5zM386 874h57l120 -135l-4 -10h-56l-100 66l-93 -66h-41l-4 10z" />
<glyph unicode="&#x1ed0;" horiz-adv-x="807" d="M42 0zM386 850h57l120 -111l-4 -10h-56l-100 50l-93 -50h-40l-4 10zM718 897l-147 -109h-33l-3 10l68 110h111zM765 352q0 -80 -27.5 -147.5t-76.5 -116.5t-116.5 -76t-148.5 -27q-76 0 -140.5 24.5t-112 70.5t-74.5 112t-27 149q0 85 28 153t77.5 116t116.5 73.5 t144 25.5q78 0 144 -26t113 -73.5t73.5 -113t26.5 -144.5zM586 343q0 66 -8 124.5t-28.5 101.5t-56.5 68t-91 25q-56 0 -91.5 -25.5t-55.5 -68.5t-27 -99.5t-7 -118.5q0 -72 8.5 -130.5t28.5 -99.5t54.5 -63.5t87.5 -22.5q59 0 95.5 27t56.5 71t27 99.5t7 111.5z" />
<glyph unicode="&#x154;" horiz-adv-x="728" d="M45 0zM401 693q45 0 87 -9.5t74 -30.5t51 -55t19 -83q0 -34 -12 -62.5t-32 -52t-48 -40.5t-59 -29l154 -214q29 -40 53 -56.5t56 -20.5l-3 -40h-219l-207 309h-37v-214q0 -38 25 -48q9 -4 20.5 -5t25.5 -3v-39h-304v39q11 1 23 2.5t20 4.5q25 10 25 49v503q0 37 -25 48 q-8 4 -18.5 5t-24.5 3v39h356zM278 640v-278h57q70 0 99 35.5t29 106.5q0 63 -27 99.5t-85 36.5h-73zM510 858l-176 -125h-38l-4 10l85 126h129z" />
<glyph unicode="&#x15a;" horiz-adv-x="614" d="M55 0zM282 -15q-55 0 -115.5 13t-111.5 42v183h38q34 -102 85 -144t120 -42q61 0 93 27.5t32 76.5q0 38 -25 71t-87 53l-68 24q-37 12 -70 28t-58.5 39t-40.5 54.5t-15 75.5q0 46 17.5 86.5t52 71t85.5 47.5t118 17q54 -1 106 -13.5t103 -41.5v-179h-45 q-25 97 -66.5 140.5t-108.5 43.5q-60 0 -90.5 -29t-30.5 -75q0 -44 26.5 -72t70.5 -43l80 -26q100 -33 146 -81t46 -121q0 -53 -21.5 -94.5t-60 -71t-91 -45t-114.5 -15.5zM477 858l-176 -125h-38l-4 10l85 126h129z" />
<glyph unicode="&#x160;" horiz-adv-x="614" d="M55 0zM282 -15q-55 0 -115.5 13t-111.5 42v183h38q34 -102 85 -144t120 -42q61 0 93 27.5t32 76.5q0 38 -25 71t-87 53l-68 24q-37 12 -70 28t-58.5 39t-40.5 54.5t-15 75.5q0 46 17.5 86.5t52 71t85.5 47.5t118 17q54 -1 106 -13.5t103 -41.5v-179h-45 q-25 97 -66.5 140.5t-108.5 43.5q-60 0 -90.5 -29t-30.5 -75q0 -44 26.5 -72t70.5 -43l80 -26q100 -33 146 -81t46 -121q0 -53 -21.5 -94.5t-60 -71t-91 -45t-114.5 -15.5zM341 729h-57l-120 135l4 10h56l100 -66l93 66h41l4 -10z" />
<glyph unicode="&#xda;" horiz-adv-x="770" d="M32 0zM579 858l-176 -125h-38l-4 10l85 126h129zM265 242q0 -93 37.5 -142t126.5 -49q84 0 125.5 52.5t41.5 136.5v329q-2 26 -10 41.5t-22 24.5q-25 16 -64 21v37h259v-37q-15 -2 -29.5 -6t-27.5 -11q-17 -9 -27.5 -26t-11.5 -46v-322q0 -57 -19 -104.5t-54.5 -82 t-86.5 -53.5t-114 -19q-58 0 -110.5 14.5t-92 45t-63 77t-23.5 109.5v366q0 37 -26 48q-8 4 -19.5 5.5t-22.5 2.5v39h300v-39q-14 -2 -24.5 -3t-18.5 -4q-24 -11 -24 -46v-359z" />
<glyph unicode="&#xdb;" horiz-adv-x="770" d="M32 0zM265 242q0 -93 37.5 -142t126.5 -49q84 0 125.5 52.5t41.5 136.5v329q-2 26 -10 41.5t-22 24.5q-25 16 -64 21v37h259v-37q-15 -2 -29.5 -6t-27.5 -11q-17 -9 -27.5 -26t-11.5 -46v-322q0 -57 -19 -104.5t-54.5 -82t-86.5 -53.5t-114 -19q-58 0 -110.5 14.5t-92 45 t-63 77t-23.5 109.5v366q0 37 -26 48q-8 4 -19.5 5.5t-22.5 2.5v39h300v-39q-14 -2 -24.5 -3t-18.5 -4q-24 -11 -24 -46v-359zM389 874h57l120 -135l-4 -10h-56l-100 66l-93 -66h-41l-4 10z" />
<glyph unicode="&#xd9;" horiz-adv-x="770" d="M32 0zM234 869h129l85 -126l-4 -10h-38l-176 125zM265 242q0 -93 37.5 -142t126.5 -49q84 0 125.5 52.5t41.5 136.5v329q-2 26 -10 41.5t-22 24.5q-25 16 -64 21v37h259v-37q-15 -2 -29.5 -6t-27.5 -11q-17 -9 -27.5 -26t-11.5 -46v-322q0 -57 -19 -104.5t-54.5 -82 t-86.5 -53.5t-114 -19q-58 0 -110.5 14.5t-92 45t-63 77t-23.5 109.5v366q0 37 -26 48q-8 4 -19.5 5.5t-22.5 2.5v39h300v-39q-14 -2 -24.5 -3t-18.5 -4q-24 -11 -24 -46v-359z" />
<glyph unicode="&#x1e82;" horiz-adv-x="1047" d="M6 0zM763 858l-176 -125h-38l-4 10l85 126h129zM617 693l157 -504l127 380q6 16 6 29q0 28 -22.5 41t-60.5 15v39h231v-38q-29 -4 -50.5 -19.5t-37.5 -60.5l-209 -584h-68l-169 507l-176 -507h-70l-189 599q-11 35 -32.5 48.5t-47.5 15.5v39h315v-39q-35 -2 -53.5 -14 t-18.5 -36q0 -5 1 -10.5t3 -10.5l108 -388l166 498h90z" />
<glyph unicode="&#x178;" horiz-adv-x="677" d="M3 0zM260 598q0 -16 9 -31l118 -223l117 219q12 21 12 38q0 26 -22 38t-55 13v41h243v-38q-29 -3 -53.5 -17.5t-43.5 -46.5l-164 -288v-208q0 -20 6.5 -31t18.5 -17q7 -3 18.5 -4.5t24.5 -3.5v-39h-300v39q10 1 22.5 2.5t20.5 4.5q24 11 24 49v205l-167 296 q-16 27 -35 39t-51 17v41h337v-41q-42 -5 -61 -19t-19 -35zM204 807q0 37 21.5 52t50.5 15q28 0 49.5 -15t21.5 -52t-21.5 -52t-49.5 -15q-29 0 -50.5 15t-21.5 52zM393 807q0 37 21.5 52t50.5 15t50.5 -15t21.5 -52t-21.5 -52t-50.5 -15t-50.5 15t-21.5 52z" />
<glyph unicode="&#xdd;" horiz-adv-x="677" d="M3 0zM260 598q0 -16 9 -31l118 -223l117 219q12 21 12 38q0 26 -22 38t-55 13v41h243v-38q-29 -3 -53.5 -17.5t-43.5 -46.5l-164 -288v-208q0 -20 6.5 -31t18.5 -17q7 -3 18.5 -4.5t24.5 -3.5v-39h-300v39q10 1 22.5 2.5t20.5 4.5q24 11 24 49v205l-167 296 q-16 27 -35 39t-51 17v41h337v-41q-42 -5 -61 -19t-19 -35zM546 858l-176 -125h-38l-4 10l85 126h129z" />
<glyph unicode="&#x179;" horiz-adv-x="645" d="M27 0zM603 218l-14 -218h-557l-5 17l374 626h-141q-34 0 -60.5 -6.5t-47.5 -22.5t-36.5 -42t-28.5 -66l-37 2l12 185h531l7 -17l-375 -626h117q53 0 87 8.5t57.5 28t41.5 52.5t39 83zM495 858l-176 -125h-38l-4 10l85 126h129z" />
<glyph unicode="&#x17d;" horiz-adv-x="645" d="M27 0zM359 729h-57l-120 135l4 10h56l100 -66l93 66h41l4 -10zM603 218l-14 -218h-557l-5 17l374 626h-141q-34 0 -60.5 -6.5t-47.5 -22.5t-36.5 -42t-28.5 -66l-37 2l12 185h531l7 -17l-375 -626h117q53 0 87 8.5t57.5 28t41.5 52.5t39 83z" />
<glyph unicode="&#x17b;" horiz-adv-x="645" d="M27 0zM256 809q0 40 23 56t54 16t54 -16t23 -56t-23 -56t-54 -16t-54 16t-23 56zM603 218l-14 -218h-557l-5 17l374 626h-141q-34 0 -60.5 -6.5t-47.5 -22.5t-36.5 -42t-28.5 -66l-37 2l12 185h531l7 -17l-375 -626h117q53 0 87 8.5t57.5 28t41.5 52.5t39 83z" />
<glyph unicode="&#xc6;" horiz-adv-x="983" d="M608 640v-259h82q22 0 34.5 6t20.5 19q6 11 8.5 27.5t4.5 34.5h45v-228h-45q-1 15 -3.5 32.5t-8.5 28.5q-7 14 -20 20.5t-36 6.5h-82v-275h128q37 0 62.5 8t44.5 26.5t33.5 48t28.5 72.5l38 -4l-17 -204h-550v39q11 1 24.5 2.5t21.5 6.5q13 8 17 20.5t4 34.5v154h-222 l-84 -158q-10 -19 -2.5 -33.5t27.5 -19.5q7 -2 23.5 -3.5t33.5 -3.5v-39h-231v39q11 1 22 4t19 7q14 7 22 17t18 28l296 549q-20 1 -39 2t-39 3v44h624v-173h-42q-9 36 -22 59t-31 36.5t-42 19t-57 5.5h-109zM443 640h-8.5t-9.5 1l-177 -332h195v331z" />
<glyph unicode="&#x1fc;" horiz-adv-x="983" d="M0 0zM839 858l-176 -125h-38l-4 10l85 126h129zM608 640v-259h82q22 0 34.5 6t20.5 19q6 11 8.5 27.5t4.5 34.5h45v-228h-45q-1 15 -3.5 32.5t-8.5 28.5q-7 14 -20 20.5t-36 6.5h-82v-275h128q37 0 62.5 8t44.5 26.5t33.5 48t28.5 72.5l38 -4l-17 -204h-550v39 q11 1 24.5 2.5t21.5 6.5q13 8 17 20.5t4 34.5v154h-222l-84 -158q-10 -19 -2.5 -33.5t27.5 -19.5q7 -2 23.5 -3.5t33.5 -3.5v-39h-231v39q11 1 22 4t19 7q14 7 22 17t18 28l296 549q-20 1 -39 2t-39 3v44h624v-173h-42q-9 36 -22 59t-31 36.5t-42 19t-57 5.5h-109zM443 640 h-8.5t-9.5 1l-177 -332h195v331z" />
<glyph unicode="&#x152;" horiz-adv-x="1043" d="M510 0q-54 -15 -114 -15q-76 0 -140.5 24.5t-112 70.5t-74.5 112t-27 149q0 85 28 153t77.5 116t116.5 73.5t144 25.5q66 0 117 -16h447v-173h-42q-9 36 -22 59t-31 36.5t-42 19t-57 5.5h-109v-259h86q40 0 55 25q5 11 8 27.5t5 34.5h45v-228h-45q-2 15 -4.5 32.5 t-8.5 28.5q-14 27 -55 27h-86v-275h128q37 0 62.5 8t44.5 26.5t33.5 48t28.5 72.5l38 -4l-17 -204h-477zM409 34q27 0 51 5.5t44 18.5v575q-20 14 -43 21.5t-53 7.5q-59 0 -95.5 -24.5t-56.5 -66.5t-27.5 -99t-7.5 -122q0 -77 8.5 -135.5t29.5 -99t57.5 -61t92.5 -20.5z" />
<glyph unicode="&#xe1;" horiz-adv-x="544" d="M34 0zM463 103q0 -37 13.5 -49.5t43.5 -12.5q4 -1 8 -0.5t9 0.5l1 -25q-20 -10 -49.5 -19.5t-69.5 -9.5q-32 0 -53 6.5t-33 18.5t-17 29t-5 38v4q-25 -39 -64 -67t-92 -28q-55 0 -88 32t-33 87q0 31 11.5 54.5t33 40.5t52.5 28.5t69 20.5l111 25v20q0 52 -20.5 78 t-78.5 26q-32 0 -74.5 -6t-87.5 -17v62q57 29 119.5 48t119.5 19q91 0 132.5 -48t41.5 -145v-210zM243 91q17 0 35 4.5t33 10.5v127l-57 -15q-38 -10 -59 -24t-21 -43q0 -31 19 -45.5t50 -14.5zM434 735l-174 -164h-32l-4 10l77 165h129z" />
<glyph unicode="&#xe0;" horiz-adv-x="544" d="M34 0zM463 103q0 -37 13.5 -49.5t43.5 -12.5q4 -1 8 -0.5t9 0.5l1 -25q-20 -10 -49.5 -19.5t-69.5 -9.5q-32 0 -53 6.5t-33 18.5t-17 29t-5 38v4q-25 -39 -64 -67t-92 -28q-55 0 -88 32t-33 87q0 31 11.5 54.5t33 40.5t52.5 28.5t69 20.5l111 25v20q0 52 -20.5 78 t-78.5 26q-32 0 -74.5 -6t-87.5 -17v62q57 29 119.5 48t119.5 19q91 0 132.5 -48t41.5 -145v-210zM243 91q17 0 35 4.5t33 10.5v127l-57 -15q-38 -10 -59 -24t-21 -43q0 -31 19 -45.5t50 -14.5zM108 746h128l83 -165l-4 -10h-38l-173 164z" />
<glyph unicode="&#xe2;" horiz-adv-x="544" d="M34 0zM463 103q0 -37 13.5 -49.5t43.5 -12.5q4 -1 8 -0.5t9 0.5l1 -25q-20 -10 -49.5 -19.5t-69.5 -9.5q-32 0 -53 6.5t-33 18.5t-17 29t-5 38v4q-25 -39 -64 -67t-92 -28q-55 0 -88 32t-33 87q0 31 11.5 54.5t33 40.5t52.5 28.5t69 20.5l111 25v20q0 52 -20.5 78 t-78.5 26q-32 0 -74.5 -6t-87.5 -17v62q57 29 119.5 48t119.5 19q91 0 132.5 -48t41.5 -145v-210zM243 91q17 0 35 4.5t33 10.5v127l-57 -15q-38 -10 -59 -24t-21 -43q0 -31 19 -45.5t50 -14.5zM406 578l-4 -11h-62l-91 91l-86 -91h-40l-4 11l110 164h64z" />
<glyph unicode="&#x105;" horiz-adv-x="544" d="M34 0zM463 103q0 -37 13.5 -49.5t43.5 -12.5q4 -1 8 -0.5t9 0.5l1 -25q-20 -10 -49.5 -19.5t-69.5 -9.5q-32 0 -53 6.5t-33 18.5t-17 29t-5 38v4q-25 -39 -64 -67t-92 -28q-55 0 -88 32t-33 87q0 31 11.5 54.5t33 40.5t52.5 28.5t69 20.5l111 25v20q0 52 -20.5 78 t-78.5 26q-32 0 -74.5 -6t-87.5 -17v62q57 29 119.5 48t119.5 19q91 0 132.5 -48t41.5 -145v-210zM243 91q17 0 35 4.5t33 10.5v127l-57 -15q-38 -10 -59 -24t-21 -43q0 -31 19 -45.5t50 -14.5zM537 -217q-38 -8 -70 -8q-57 0 -88.5 26t-31.5 71q0 19 10.5 39.5t30 39.5 t46.5 35.5t60 28.5l19 -1q-32 -23 -49.5 -52t-17.5 -64q0 -31 14.5 -50t44.5 -19q6 0 14.5 1t17.5 3v-50z" />
<glyph unicode="&#x1ea5;" horiz-adv-x="544" d="M34 0zM463 103q0 -37 13.5 -49.5t43.5 -12.5q4 -1 8 -0.5t9 0.5l1 -25q-20 -10 -49.5 -19.5t-69.5 -9.5q-32 0 -53 6.5t-33 18.5t-17 29t-5 38v4q-25 -39 -64 -67t-92 -28q-55 0 -88 32t-33 87q0 31 11.5 54.5t33 40.5t52.5 28.5t69 20.5l111 25v20q0 52 -20.5 78 t-78.5 26q-32 0 -74.5 -6t-87.5 -17v62q57 29 119.5 48t119.5 19q91 0 132.5 -48t41.5 -145v-210zM243 91q17 0 35 4.5t33 10.5v127l-57 -15q-38 -10 -59 -24t-21 -43q0 -31 19 -45.5t50 -14.5zM410 571l-4 -11h-62l-90 66l-87 -66h-40l-4 11l110 133h64zM569 759l-145 -138 h-34l-3 9l66 139h113z" />
<glyph unicode="&#xe7;" horiz-adv-x="514" d="M36 0zM474 61q-38 -34 -88.5 -55t-116.5 -21q-56 0 -99.5 17t-73 48.5t-45 76.5t-15.5 100q0 60 19 111t54.5 88.5t86.5 59t115 21.5q85 0 130.5 -29.5t45.5 -74.5q0 -32 -18 -52.5t-50 -20.5q-22 0 -35 9t-21.5 22t-14 29t-14 29t-21.5 22t-35 9q-24 0 -42 -14t-30 -38 t-18 -56.5t-6 -69.5q0 -41 7.5 -74.5t25 -57.5t46 -37t70.5 -13q29 0 66 6t75 20l2 -55v0zM400 -139q0 -42 -35 -64.5t-95 -22.5q-21 0 -40 2.5t-37 7.5v62q14 -5 34.5 -10t39.5 -5q17 0 29 6t12 21q0 19 -15.5 24.5t-31.5 6.5q-8 0 -13.5 -0.5t-10.5 -1.5v121h54v-66 q19 0 38.5 -4.5t35.5 -14.5t25.5 -25.5t9.5 -36.5z" />
<glyph unicode="&#x107;" horiz-adv-x="514" d="M36 0zM442 735l-174 -164h-32l-4 10l77 165h129zM474 61q-38 -34 -88.5 -55t-116.5 -21q-56 0 -99.5 17t-73 48.5t-45 76.5t-15.5 100q0 60 19 111t54.5 88.5t86.5 59t115 21.5q85 0 130.5 -29.5t45.5 -74.5q0 -32 -18 -52.5t-50 -20.5q-22 0 -35 9t-21.5 22t-14 29 t-14 29t-21.5 22t-35 9q-24 0 -42 -14t-30 -38t-18 -56.5t-6 -69.5q0 -41 7.5 -74.5t25 -57.5t46 -37t70.5 -13q29 0 66 6t75 20l2 -55v0z" />
<glyph unicode="&#x10d;" horiz-adv-x="514" d="M36 0zM310 567h-64l-113 165l4 10h62l91 -91l86 91h40l4 -10zM474 61q-38 -34 -88.5 -55t-116.5 -21q-56 0 -99.5 17t-73 48.5t-45 76.5t-15.5 100q0 60 19 111t54.5 88.5t86.5 59t115 21.5q85 0 130.5 -29.5t45.5 -74.5q0 -32 -18 -52.5t-50 -20.5q-22 0 -35 9t-21.5 22 t-14 29t-14 29t-21.5 22t-35 9q-24 0 -42 -14t-30 -38t-18 -56.5t-6 -69.5q0 -41 7.5 -74.5t25 -57.5t46 -37t70.5 -13q29 0 66 6t75 20l2 -55v0z" />
<glyph unicode="&#x111;" horiz-adv-x="629" d="M387 648q0 22 -4.5 30.5t-21.5 10.5q-9 2 -21.5 1.5t-25.5 -1.5v35q15 5 35.5 11t43.5 11.5t45.5 9t41.5 3.5q35 0 47 -15t12 -47v-64h76v-50h-76v-480q0 -42 17.5 -53t56.5 -9l1 -25q-20 -10 -49 -19.5t-70 -9.5q-62 0 -84.5 23.5t-23.5 61.5q-29 -38 -66.5 -62.5 t-88.5 -24.5q-44 0 -79.5 18.5t-61.5 51t-40 77t-14 97.5q0 67 23.5 119t63 87.5t91 53.5t107.5 18q17 0 33 -2t32 -5v83h-165v50h165v15zM318 88q18 0 33.5 4t35.5 12v327q-18 8 -37 13t-39 5q-63 0 -93.5 -47t-30.5 -133q0 -41 7 -74t22.5 -57t40.5 -37t61 -13z" />
<glyph unicode="&#xe9;" horiz-adv-x="536" d="M36 0zM435 735l-174 -164h-32l-4 10l77 165h129zM481 61q-38 -34 -91 -55t-119 -21q-113 0 -174 62.5t-61 176.5q0 61 18 113t53 89.5t85.5 59t116.5 21.5q91 0 141 -43.5t53 -129.5q1 -9 0.5 -19t-1.5 -20l-28 -42h-293q1 -37 9.5 -67t25.5 -51.5t45.5 -33.5t70.5 -12 q32 0 71.5 6.5t75.5 19.5zM277 449q-45 0 -67.5 -41t-27.5 -105h169q1 8 1.5 16.5t0.5 17.5q0 51 -19 81.5t-57 30.5z" />
<glyph unicode="&#xe8;" horiz-adv-x="536" d="M36 0zM481 61q-38 -34 -91 -55t-119 -21q-113 0 -174 62.5t-61 176.5q0 61 18 113t53 89.5t85.5 59t116.5 21.5q91 0 141 -43.5t53 -129.5q1 -9 0.5 -19t-1.5 -20l-28 -42h-293q1 -37 9.5 -67t25.5 -51.5t45.5 -33.5t70.5 -12q32 0 71.5 6.5t75.5 19.5zM277 449 q-45 0 -67.5 -41t-27.5 -105h169q1 8 1.5 16.5t0.5 17.5q0 51 -19 81.5t-57 30.5zM123 746h128l83 -165l-4 -10h-38l-173 164z" />
<glyph unicode="&#xea;" horiz-adv-x="536" d="M36 0zM426 578l-4 -11h-62l-91 91l-86 -91h-40l-4 11l110 164h64zM481 61q-38 -34 -91 -55t-119 -21q-113 0 -174 62.5t-61 176.5q0 61 18 113t53 89.5t85.5 59t116.5 21.5q91 0 141 -43.5t53 -129.5q1 -9 0.5 -19t-1.5 -20l-28 -42h-293q1 -37 9.5 -67t25.5 -51.5 t45.5 -33.5t70.5 -12q32 0 71.5 6.5t75.5 19.5zM277 449q-45 0 -67.5 -41t-27.5 -105h169q1 8 1.5 16.5t0.5 17.5q0 51 -19 81.5t-57 30.5z" />
<glyph unicode="&#xeb;" horiz-adv-x="536" d="M36 0zM120 672q0 37 22 52t51 15t50.5 -15t21.5 -52q0 -38 -21.5 -53.5t-50.5 -15.5t-51 15.5t-22 53.5zM313 672q0 37 21.5 52t50.5 15t51 -15t22 -52q0 -38 -22 -53.5t-51 -15.5t-50.5 15.5t-21.5 53.5zM481 61q-38 -34 -91 -55t-119 -21q-113 0 -174 62.5t-61 176.5 q0 61 18 113t53 89.5t85.5 59t116.5 21.5q91 0 141 -43.5t53 -129.5q1 -9 0.5 -19t-1.5 -20l-28 -42h-293q1 -37 9.5 -67t25.5 -51.5t45.5 -33.5t70.5 -12q32 0 71.5 6.5t75.5 19.5zM277 449q-45 0 -67.5 -41t-27.5 -105h169q1 8 1.5 16.5t0.5 17.5q0 51 -19 81.5t-57 30.5z " />
<glyph unicode="&#x119;" horiz-adv-x="536" d="M36 0zM424 -217q-38 -8 -70 -8q-57 0 -88.5 26t-31.5 71q0 19 10.5 39.5t30 39.5t46.5 35.5t60 28.5l19 -1q-32 -23 -49.5 -52t-17.5 -64q0 -31 14.5 -50t44.5 -19q6 0 14.5 1t17.5 3v-50zM481 61q-38 -34 -91 -55t-119 -21q-113 0 -174 62.5t-61 176.5q0 61 18 113 t53 89.5t85.5 59t116.5 21.5q91 0 141 -43.5t53 -129.5q1 -9 0.5 -19t-1.5 -20l-28 -42h-293q1 -37 9.5 -67t25.5 -51.5t45.5 -33.5t70.5 -12q32 0 71.5 6.5t75.5 19.5zM277 449q-45 0 -67.5 -41t-27.5 -105h169q1 8 1.5 16.5t0.5 17.5q0 51 -19 81.5t-57 30.5z" />
<glyph unicode="&#x1ebf;" horiz-adv-x="536" d="M36 0zM436 571l-4 -11h-62l-90 66l-87 -66h-40l-4 11l110 133h64zM595 759l-145 -138h-34l-3 9l66 139h113zM481 61q-38 -34 -91 -55t-119 -21q-113 0 -174 62.5t-61 176.5q0 61 18 113t53 89.5t85.5 59t116.5 21.5q91 0 141 -43.5t53 -129.5q1 -9 0.5 -19t-1.5 -20 l-28 -42h-293q1 -37 9.5 -67t25.5 -51.5t45.5 -33.5t70.5 -12q32 0 71.5 6.5t75.5 19.5zM277 449q-45 0 -67.5 -41t-27.5 -105h169q1 8 1.5 16.5t0.5 17.5q0 51 -19 81.5t-57 30.5z" />
<glyph unicode="&#x1f5;" horiz-adv-x="577" d="M17 0zM447 735l-174 -164h-32l-4 10l77 165h129zM270 191q-24 0 -45.5 2t-41.5 6q-11 -15 -11 -31q0 -17 15.5 -27t53.5 -10h77q50 0 91.5 -7.5t71 -24.5t46 -44t16.5 -66q0 -42 -19.5 -80.5t-58 -68.5t-95.5 -48t-132 -18q-107 0 -164 35.5t-57 89.5q0 40 30.5 66.5 t90.5 46.5q-40 12 -56.5 34.5t-16.5 50.5q0 36 25.5 63.5t63.5 46.5q-51 17 -80 51t-29 84q0 35 15 65t43.5 52.5t70.5 35t95 12.5t96 -12t72 -35q19 10 28.5 25.5t17.5 30.5t19 26t33 11q23 0 36 -12t13 -30q0 -19 -11 -32.5t-28 -23t-38.5 -14.5t-43.5 -7q27 -35 27 -80 q0 -37 -16.5 -67t-46 -51.5t-70 -33t-87.5 -11.5zM232 1q-18 0 -33 1t-29 3q-16 -15 -22.5 -33t-6.5 -39q0 -45 31 -74.5t100 -29.5q66 0 104 28.5t38 75.5q0 35 -25 51.5t-83 16.5h-74zM336 346q0 54 -20 82t-55 28q-37 0 -52 -29.5t-15 -74.5q0 -47 17 -78.5t58 -31.5 q39 0 53 30t14 74z" />
<glyph unicode="&#xed;" horiz-adv-x="333" d="M23 0zM327 735l-174 -164h-32l-4 10l77 165h129zM249 93q0 -20 6 -31t19 -17q7 -3 15.5 -5t20.5 -3v-37h-275v37q10 1 19.5 2.5t17.5 4.5q25 10 25 49v304q0 24 -7 33t-33 9q-8 0 -17 -0.5t-17 -1.5v35q15 5 35.5 11t43.5 11.5t45.5 9t40.5 3.5q36 0 48.5 -15t12.5 -47 v-352z" />
<glyph unicode="&#xee;" horiz-adv-x="333" d="M23 0zM314 578l-4 -11h-62l-91 91l-86 -91h-40l-4 11l110 164h64zM249 93q0 -20 6 -31t19 -17q7 -3 15.5 -5t20.5 -3v-37h-275v37q10 1 19.5 2.5t17.5 4.5q25 10 25 49v304q0 24 -7 33t-33 9q-8 0 -17 -0.5t-17 -1.5v35q15 5 35.5 11t43.5 11.5t45.5 9t40.5 3.5 q36 0 48.5 -15t12.5 -47v-352z" />
<glyph unicode="&#xef;" horiz-adv-x="333" d="M0 0zM-6 672q0 37 22 52t51 15t50.5 -15t21.5 -52q0 -38 -21.5 -53.5t-50.5 -15.5t-51 15.5t-22 53.5zM187 672q0 37 21.5 52t50.5 15t51 -15t22 -52q0 -38 -22 -53.5t-51 -15.5t-50.5 15.5t-21.5 53.5zM249 93q0 -20 6 -31t19 -17q7 -3 15.5 -5t20.5 -3v-37h-275v37 q10 1 19.5 2.5t17.5 4.5q25 10 25 49v304q0 24 -7 33t-33 9q-8 0 -17 -0.5t-17 -1.5v35q15 5 35.5 11t43.5 11.5t45.5 9t40.5 3.5q36 0 48.5 -15t12.5 -47v-352z" />
<glyph unicode="&#x131;" horiz-adv-x="333" d="M249 93q0 -20 6 -31t19 -17q7 -3 15.5 -5t20.5 -3v-37h-275v37q10 1 19.5 2.5t17.5 4.5q25 10 25 49v304q0 24 -7 33t-33 9q-8 0 -17 -0.5t-17 -1.5v35q15 5 35.5 11t43.5 11.5t45.5 9t40.5 3.5q36 0 48.5 -15t12.5 -47v-352z" />
<glyph unicode="&#x13a;" horiz-adv-x="326" d="M13 0zM318 918l-176 -125h-38l-4 10l85 126h129zM87 648q0 23 -6 32t-29 11q-8 0 -18.5 -0.5t-20.5 -1.5v35q15 5 35.5 11t43.5 11.5t45.5 9t40.5 3.5q36 0 48.5 -15t12.5 -47v-604q0 -20 6.5 -31t18.5 -17q7 -3 15.5 -5t21.5 -3v-37h-276v37q11 1 20.5 2.5t16.5 4.5 q25 10 25 49v555z" />
<glyph unicode="&#x142;" horiz-adv-x="332" d="M90 301l-69 -37v62l69 37v285q0 23 -6 32t-29 11q-8 0 -18.5 -0.5t-20.5 -1.5v35q15 5 35.5 11t43.5 11.5t45.5 9t40.5 3.5q36 0 48.5 -15t12.5 -47v-253l70 38v-62l-70 -38v-289q0 -20 6.5 -31t18.5 -17q7 -3 15.5 -5t21.5 -3v-37h-276v37q11 1 20.5 2.5t16.5 4.5 q25 10 25 49v208z" />
<glyph unicode="&#x1e3f;" horiz-adv-x="983" d="M23 0zM695 735l-174 -164h-32l-4 10l77 165h129zM249 93q0 -20 6 -31t19 -17q7 -3 15.5 -5t20.5 -3v-37h-275v37q10 1 19.5 2.5t17.5 4.5q25 10 25 49v304q0 24 -7 33t-33 9q-8 0 -17 -0.5t-17 -1.5v35q15 5 35.5 11t43.5 11.5t45.5 9t40.5 3.5q36 0 48.5 -15t12.5 -47 v-28q38 40 84 65t100 25q56 0 88.5 -22.5t46.5 -71.5q40 42 86.5 68t102.5 26q75 0 109.5 -41.5t34.5 -133.5v-239q0 -20 6.5 -31t19.5 -17q7 -3 15 -5t21 -3v-37h-275v37q10 1 19.5 2.5t17.5 4.5q24 10 24 49v196q0 28 -3.5 51t-13.5 38.5t-28.5 24t-47.5 8.5q-21 0 -40 -4 t-43 -13q2 -14 3.5 -29.5t1.5 -32.5v-239q0 -20 6.5 -31t18.5 -17q7 -3 15.5 -5t21.5 -3v-37h-276v37q11 1 20.5 2.5t17.5 4.5q24 10 24 49v196q0 28 -3.5 51t-13.5 38.5t-28.5 24t-47.5 8.5q-21 0 -40.5 -4t-43.5 -13v-301v0z" />
<glyph unicode="&#xf1;" horiz-adv-x="660" d="M23 0zM249 93q0 -20 6 -31t19 -17q7 -3 15.5 -5t20.5 -3v-37h-275v37q10 1 19.5 2.5t17.5 4.5q25 10 25 49v304q0 23 -6.5 32t-30.5 10q-8 0 -18.5 -0.5t-18.5 -1.5v35q15 5 35.5 11t43.5 11.5t45.5 9t40.5 3.5q36 0 48.5 -15t12.5 -47v-28q38 40 84 65t100 25 q75 0 110 -41.5t35 -133.5v-239q0 -20 6.5 -31t18.5 -17q7 -3 15.5 -5t21.5 -3v-37h-276v37q11 1 20.5 2.5t17.5 4.5q24 10 24 49v196q0 28 -3.5 51t-13.5 38.5t-28.5 24t-47.5 8.5q-21 0 -40.5 -4t-43.5 -13v-301v0zM486 719q-1 -57 -24.5 -89t-68.5 -32q-21 0 -40 5.5 t-35.5 12.5t-30 12.5t-24.5 5.5q-14 0 -25.5 -9.5t-16.5 -30.5h-37q0 24 6 46t16.5 38.5t27 26.5t37.5 10q18 0 35.5 -5.5t34 -12t31.5 -12t29 -5.5q17 0 29.5 9t15.5 30h40z" />
<glyph unicode="&#x144;" horiz-adv-x="660" d="M23 0zM485 735l-174 -164h-32l-4 10l77 165h129zM249 93q0 -20 6 -31t19 -17q7 -3 15.5 -5t20.5 -3v-37h-275v37q10 1 19.5 2.5t17.5 4.5q25 10 25 49v304q0 23 -6.5 32t-30.5 10q-8 0 -18.5 -0.5t-18.5 -1.5v35q15 5 35.5 11t43.5 11.5t45.5 9t40.5 3.5q36 0 48.5 -15 t12.5 -47v-28q38 40 84 65t100 25q75 0 110 -41.5t35 -133.5v-239q0 -20 6.5 -31t18.5 -17q7 -3 15.5 -5t21.5 -3v-37h-276v37q11 1 20.5 2.5t17.5 4.5q24 10 24 49v196q0 28 -3.5 51t-13.5 38.5t-28.5 24t-47.5 8.5q-21 0 -40.5 -4t-43.5 -13v-301v0z" />
<glyph unicode="&#xf3;" horiz-adv-x="600" d="M35 0zM447 735l-174 -164h-32l-4 10l77 165h129zM564 270q0 -58 -19 -110t-55 -91t-88.5 -61.5t-118.5 -22.5q-54 0 -99.5 15.5t-78.5 46t-51.5 76t-18.5 104.5q0 64 22 116t60.5 88.5t91 56t113.5 19.5q55 0 99.5 -16t76 -46.5t49 -74.5t17.5 -100zM402 237q0 48 -6 87 t-19 66.5t-34 43t-51 15.5q-28 0 -46 -13t-29 -37.5t-15.5 -58.5t-4.5 -76q0 -47 5.5 -87.5t18 -70t33.5 -46.5t51 -17q51 0 74 49.5t23 144.5z" />
<glyph unicode="&#xf4;" horiz-adv-x="600" d="M35 0zM443 578l-4 -11h-62l-91 91l-86 -91h-40l-4 11l110 164h64zM564 270q0 -58 -19 -110t-55 -91t-88.5 -61.5t-118.5 -22.5q-54 0 -99.5 15.5t-78.5 46t-51.5 76t-18.5 104.5q0 64 22 116t60.5 88.5t91 56t113.5 19.5q55 0 99.5 -16t76 -46.5t49 -74.5t17.5 -100z M402 237q0 48 -6 87t-19 66.5t-34 43t-51 15.5q-28 0 -46 -13t-29 -37.5t-15.5 -58.5t-4.5 -76q0 -47 5.5 -87.5t18 -70t33.5 -46.5t51 -17q51 0 74 49.5t23 144.5z" />
<glyph unicode="&#xf6;" horiz-adv-x="600" d="M35 0zM131 672q0 37 22 52t51 15t50.5 -15t21.5 -52q0 -38 -21.5 -53.5t-50.5 -15.5t-51 15.5t-22 53.5zM324 672q0 37 21.5 52t50.5 15t51 -15t22 -52q0 -38 -22 -53.5t-51 -15.5t-50.5 15.5t-21.5 53.5zM564 270q0 -58 -19 -110t-55 -91t-88.5 -61.5t-118.5 -22.5 q-54 0 -99.5 15.5t-78.5 46t-51.5 76t-18.5 104.5q0 64 22 116t60.5 88.5t91 56t113.5 19.5q55 0 99.5 -16t76 -46.5t49 -74.5t17.5 -100zM402 237q0 48 -6 87t-19 66.5t-34 43t-51 15.5q-28 0 -46 -13t-29 -37.5t-15.5 -58.5t-4.5 -76q0 -47 5.5 -87.5t18 -70t33.5 -46.5 t51 -17q51 0 74 49.5t23 144.5z" />
<glyph unicode="&#x1ed1;" horiz-adv-x="600" d="M35 0zM481 570l-4 -11h-62l-90 66l-87 -66h-40l-4 11l110 133h64zM640 758l-145 -138h-34l-3 9l66 139h113zM564 270q0 -58 -19 -110t-55 -91t-88.5 -61.5t-118.5 -22.5q-54 0 -99.5 15.5t-78.5 46t-51.5 76t-18.5 104.5q0 64 22 116t60.5 88.5t91 56t113.5 19.5 q55 0 99.5 -16t76 -46.5t49 -74.5t17.5 -100zM402 237q0 48 -6 87t-19 66.5t-34 43t-51 15.5q-28 0 -46 -13t-29 -37.5t-15.5 -58.5t-4.5 -76q0 -47 5.5 -87.5t18 -70t33.5 -46.5t51 -17q51 0 74 49.5t23 144.5z" />
<glyph unicode="&#x155;" horiz-adv-x="485" d="M23 0zM423 735l-174 -164h-32l-4 10l77 165h129zM249 93q0 -22 12 -35t38 -15q1 0 6 -0.5t11 -1t12 -0.5h9v-41h-302v37q10 1 19.5 2.5t17.5 4.5q25 10 25 49v304q0 24 -7.5 33t-35.5 9q-7 0 -15.5 -0.5t-15.5 -1.5v35q15 5 35.5 11t43.5 11.5t45.5 9t40.5 3.5 q36 0 48.5 -15t12.5 -47v-21q33 40 68.5 61t74.5 21q35 0 59.5 -19t24.5 -59q0 -32 -20 -54t-53 -22q-21 0 -32.5 9.5t-20.5 21t-19 21t-29 9.5q-8 0 -20.5 -3.5t-32.5 -14.5v-302v0z" />
<glyph unicode="&#x15b;" horiz-adv-x="482" d="M41 0zM407 735l-174 -164h-32l-4 10l77 165h129zM211 -14q-40 0 -84 8.5t-83 25.5l-3 139l34 4q23 -58 61.5 -91t87.5 -33q40 0 62 18.5t22 47.5t-22 43t-55 24l-49 14q-24 7 -47 19t-42 30.5t-30.5 43t-11.5 56.5q0 38 16.5 69.5t45.5 54.5t68.5 35.5t86.5 12.5 q38 0 78 -9t76 -29l8 -121l-42 -3q-31 62 -61 86t-71 24q-36 0 -54 -18.5t-18 -44.5q0 -29 19 -45.5t48 -25.5l59 -17q22 -6 46 -16t43.5 -26.5t32 -41t12.5 -59.5q0 -44 -20 -76.5t-53 -54.5t-75 -33t-85 -11z" />
<glyph unicode="&#x161;" horiz-adv-x="482" d="M41 0zM271 567h-64l-113 165l4 10h62l91 -91l86 91h40l4 -10zM211 -14q-40 0 -84 8.5t-83 25.5l-3 139l34 4q23 -58 61.5 -91t87.5 -33q40 0 62 18.5t22 47.5t-22 43t-55 24l-49 14q-24 7 -47 19t-42 30.5t-30.5 43t-11.5 56.5q0 38 16.5 69.5t45.5 54.5t68.5 35.5 t86.5 12.5q38 0 78 -9t76 -29l8 -121l-42 -3q-31 62 -61 86t-71 24q-36 0 -54 -18.5t-18 -44.5q0 -29 19 -45.5t48 -25.5l59 -17q22 -6 46 -16t43.5 -26.5t32 -41t12.5 -59.5q0 -44 -20 -76.5t-53 -54.5t-75 -33t-85 -11z" />
<glyph unicode="&#xfa;" horiz-adv-x="643" d="M11 0zM477 735l-174 -164h-32l-4 10l77 165h129zM403 397q0 23 -6.5 32t-30.5 10q-8 0 -18.5 -0.5t-18.5 -1.5v35q15 5 35.5 11t43.5 11.5t45.5 9t40.5 3.5q36 0 48.5 -15t12.5 -47v-342q0 -42 17.5 -53t56.5 -9l1 -25q-20 -10 -49.5 -19.5t-69.5 -9.5q-62 0 -84.5 23 t-23.5 61q-38 -40 -79 -63t-97 -23q-73 0 -108 42t-35 134v236q0 24 -7 33t-35 9q-7 0 -15.5 -0.5t-15.5 -1.5v35q15 5 35.5 11t43.5 11.5t45.5 9t40.5 3.5q36 0 48 -15t12 -47v-246q0 -27 4.5 -47.5t15 -35t29 -22t47.5 -7.5q32 0 71 13v297v0z" />
<glyph unicode="&#xf9;" horiz-adv-x="643" d="M11 0zM403 397q0 23 -6.5 32t-30.5 10q-8 0 -18.5 -0.5t-18.5 -1.5v35q15 5 35.5 11t43.5 11.5t45.5 9t40.5 3.5q36 0 48.5 -15t12.5 -47v-342q0 -42 17.5 -53t56.5 -9l1 -25q-20 -10 -49.5 -19.5t-69.5 -9.5q-62 0 -84.5 23t-23.5 61q-38 -40 -79 -63t-97 -23 q-73 0 -108 42t-35 134v236q0 24 -7 33t-35 9q-7 0 -15.5 -0.5t-15.5 -1.5v35q15 5 35.5 11t43.5 11.5t45.5 9t40.5 3.5q36 0 48 -15t12 -47v-246q0 -27 4.5 -47.5t15 -35t29 -22t47.5 -7.5q32 0 71 13v297v0zM138 746h128l83 -165l-4 -10h-38l-173 164z" />
<glyph unicode="&#xfb;" horiz-adv-x="643" d="M11 0zM459 578l-4 -11h-62l-91 91l-86 -91h-40l-4 11l110 164h64zM403 397q0 23 -6.5 32t-30.5 10q-8 0 -18.5 -0.5t-18.5 -1.5v35q15 5 35.5 11t43.5 11.5t45.5 9t40.5 3.5q36 0 48.5 -15t12.5 -47v-342q0 -42 17.5 -53t56.5 -9l1 -25q-20 -10 -49.5 -19.5t-69.5 -9.5 q-62 0 -84.5 23t-23.5 61q-38 -40 -79 -63t-97 -23q-73 0 -108 42t-35 134v236q0 24 -7 33t-35 9q-7 0 -15.5 -0.5t-15.5 -1.5v35q15 5 35.5 11t43.5 11.5t45.5 9t40.5 3.5q36 0 48 -15t12 -47v-246q0 -27 4.5 -47.5t15 -35t29 -22t47.5 -7.5q32 0 71 13v297v0z" />
<glyph unicode="&#x1e83;" horiz-adv-x="857" d="M10 0zM616 735l-174 -164h-32l-4 10l77 165h129zM506 493l131 -336l74 208q15 46 0.5 66.5t-51.5 25.5v36h198v-36q-26 -6 -45.5 -25t-30.5 -47l-163 -393h-67l-125 308l-120 -308h-85l-145 411q-10 26 -28.5 38.5t-38.5 15.5v36h283v-36q-29 0 -43.5 -12.5t-7.5 -35.5 l77 -247l120 331h67z" />
<glyph unicode="&#xff;" horiz-adv-x="571" d="M5 0zM569 457q-26 -6 -45.5 -26t-30.5 -46l-121 -270l-11 -25l-41 -92q-7 -16 -17.5 -39t-24.5 -48t-32.5 -49.5t-41.5 -44t-51.5 -31.5t-63.5 -12q-34 0 -49.5 14t-15.5 37q0 26 15.5 42.5t46.5 16.5q37 0 63 3t45.5 13t34.5 27.5t30 46.5l-8 18l-179 411q-11 27 -29 39 t-38 15v36h283v-36q-29 0 -44 -13.5t-7 -34.5l99 -251l85 207q17 43 1.5 65t-52.5 27v36h199v-36zM136 672q0 37 22 52t51 15t50.5 -15t21.5 -52q0 -38 -21.5 -53.5t-50.5 -15.5t-51 15.5t-22 53.5zM329 672q0 37 21.5 52t50.5 15t51 -15t22 -52q0 -38 -22 -53.5t-51 -15.5 t-50.5 15.5t-21.5 53.5z" />
<glyph unicode="&#xfd;" horiz-adv-x="571" d="M5 0zM569 457q-26 -6 -45.5 -26t-30.5 -46l-121 -270l-11 -25l-41 -92q-7 -16 -17.5 -39t-24.5 -48t-32.5 -49.5t-41.5 -44t-51.5 -31.5t-63.5 -12q-34 0 -49.5 14t-15.5 37q0 26 15.5 42.5t46.5 16.5q37 0 63 3t45.5 13t34.5 27.5t30 46.5l-8 18l-179 411q-11 27 -29 39 t-38 15v36h283v-36q-29 0 -44 -13.5t-7 -34.5l99 -251l85 207q17 43 1.5 65t-52.5 27v36h199v-36zM482 735l-174 -164h-32l-4 10l77 165h129z" />
<glyph unicode="&#x17a;" horiz-adv-x="513" d="M27 0zM432 735l-174 -164h-32l-4 10l77 165h129zM64 493h396l17 -28l-262 -412h98q47 0 84.5 31t51.5 82l32 -4l-22 -162h-417l-15 26l263 414h-92q-29 0 -49.5 -8.5t-35 -23t-24.5 -33.5t-18 -40l-36 5z" />
<glyph unicode="&#x17e;" horiz-adv-x="513" d="M27 0zM301 567h-64l-113 165l4 10h62l91 -91l86 91h40l4 -10zM64 493h396l17 -28l-262 -412h98q47 0 84.5 31t51.5 82l32 -4l-22 -162h-417l-15 26l263 414h-92q-29 0 -49.5 -8.5t-35 -23t-24.5 -33.5t-18 -40l-36 5z" />
<glyph unicode="&#x17c;" horiz-adv-x="513" d="M27 0zM64 493h396l17 -28l-262 -412h98q47 0 84.5 31t51.5 82l32 -4l-22 -162h-417l-15 26l263 414h-92q-29 0 -49.5 -8.5t-35 -23t-24.5 -33.5t-18 -40l-36 5zM190 683q0 42 24.5 59t56.5 17t56 -17t24 -59t-24 -58.5t-56 -16.5t-56.5 17t-24.5 58z" />
<glyph horiz-adv-x="333" d="M23 0zM249 93q0 -20 6 -31t19 -17q7 -3 15.5 -5t20.5 -3v-37h-275v37q10 1 19.5 2.5t17.5 4.5q25 10 25 49v304q0 23 -6.5 32t-30.5 10q-8 0 -18.5 -0.5t-18.5 -1.5v35q15 5 35.5 11t43.5 11.5t45.5 9t40.5 3.5q36 0 48.5 -15t12.5 -47v-352zM86 684q0 41 24 58t56 17 t56.5 -17t24.5 -58q0 -42 -24.5 -59t-56.5 -17t-56 17.5t-24 58.5z" />
<glyph unicode="&#xe6;" horiz-adv-x="811" d="M756 61q-38 -34 -91 -55t-119 -21q-74 0 -125.5 27t-79.5 78q-32 -43 -80.5 -72.5t-105.5 -29.5q-55 0 -88 32t-33 87q0 31 11.5 54.5t33 40.5t52.5 28.5t69 20.5l111 25v19q0 53 -20.5 79t-78.5 26q-32 0 -74.5 -6t-87.5 -17v62q57 29 119.5 48t119.5 19 q46 0 76.5 -12.5t50.5 -36.5q32 24 74.5 37t93.5 13q100 0 151 -53.5t42 -158.5l-28 -42h-293q1 -37 9.5 -67t25.5 -51.5t45.5 -33.5t70.5 -12q32 0 71.5 6.5t75.5 19.5zM552 449q-45 0 -67.5 -41t-27.5 -105h170q7 64 -12 105t-63 41zM329 116q-18 46 -18 108v9l-57 -15 q-38 -10 -59 -24t-21 -43q0 -31 19 -45.5t50 -14.5q23 0 45 7.5t41 17.5z" />
<glyph unicode="&#x1fd;" horiz-adv-x="811" d="M34 0zM593 735l-174 -164h-32l-4 10l77 165h129zM756 61q-38 -34 -91 -55t-119 -21q-74 0 -125.5 27t-79.5 78q-32 -43 -80.5 -72.5t-105.5 -29.5q-55 0 -88 32t-33 87q0 31 11.5 54.5t33 40.5t52.5 28.5t69 20.5l111 25v19q0 53 -20.5 79t-78.5 26q-32 0 -74.5 -6 t-87.5 -17v62q57 29 119.5 48t119.5 19q46 0 76.5 -12.5t50.5 -36.5q32 24 74.5 37t93.5 13q100 0 151 -53.5t42 -158.5l-28 -42h-293q1 -37 9.5 -67t25.5 -51.5t45.5 -33.5t70.5 -12q32 0 71.5 6.5t75.5 19.5zM552 449q-45 0 -67.5 -41t-27.5 -105h170q7 64 -12 105t-63 41 zM329 116q-18 46 -18 108v9l-57 -15q-38 -10 -59 -24t-21 -43q0 -31 19 -45.5t50 -14.5q23 0 45 7.5t41 17.5z" />
<glyph unicode="&#x153;" horiz-adv-x="905" d="M850 61q-38 -34 -91 -55t-119 -21q-125 0 -187 77q-32 -35 -74.5 -56t-95.5 -21q-54 0 -99.5 15.5t-78.5 46t-51.5 76t-18.5 104.5q0 64 22 116t60.5 88.5t91 56t113.5 19.5q50 0 89.5 -21t68.5 -56q35 36 84.5 56.5t113.5 20.5q91 0 141 -43.5t53 -129.5q1 -9 0.5 -19 t-1.5 -20l-28 -42h-293q1 -37 9.5 -67t25.5 -51.5t45.5 -33.5t70.5 -12q32 0 71.5 6.5t75.5 19.5zM402 237q0 48 -6 87t-19 66.5t-34 43t-51 15.5q-28 0 -46 -13t-29 -37.5t-15.5 -58.5t-4.5 -76q0 -47 5.5 -87.5t18 -70t33.5 -46.5t51 -17q51 0 74 49.5t23 144.5zM646 449 q-45 0 -67.5 -41t-27.5 -105h169q1 8 1.5 16.5t0.5 17.5q0 51 -19 81.5t-57 30.5z" />
<glyph unicode="," horiz-adv-x="294" d="M238 54q0 -39 -15.5 -74.5t-39.5 -65t-52 -52t-53 -35.5l-27 32q38 26 64.5 57.5t29.5 80.5q-17 0 -33 4.5t-29 14.5t-21 25.5t-8 36.5q0 39 27 59.5t60 20.5q48 0 72.5 -26.5t24.5 -77.5z" />
<glyph unicode="." horiz-adv-x="293" d="M238 73q0 -23 -8.5 -38.5t-21.5 -25t-29 -13.5t-32 -4q-17 0 -33 4t-29.5 13.5t-21.5 25t-8 38.5t8 38.5t21.5 25.5t29.5 14t33 4q16 0 32 -4t29 -14t21.5 -25.5t8.5 -38.5z" />
<glyph unicode="&#x2026;" horiz-adv-x="805" d="M235 73q0 -23 -8 -38.5t-21 -25t-29 -13.5t-32 -4t-32 4t-29 13.5t-21 25t-8 38.5t8 38.5t21 25.5t29 14t32 4t32 -4t29 -14t21 -25.5t8 -38.5zM493 73q0 -23 -8 -38.5t-21 -25t-29 -13.5t-32 -4t-32 4t-29 13.5t-21 25t-8 38.5t8 38.5t21 25.5t29 14t32 4t32 -4t29 -14 t21 -25.5t8 -38.5zM750 73q0 -23 -8 -38.5t-21 -25t-29 -13.5t-32 -4t-32 4t-29 13.5t-21 25t-8 38.5t8 38.5t21 25.5t29 14t32 4t32 -4t29 -14t21 -25.5t8 -38.5z" />
<glyph unicode=":" horiz-adv-x="322" d="M69 0zM252 73q0 -23 -8.5 -38.5t-21.5 -25t-29 -13.5t-32 -4q-17 0 -33 4t-29.5 13.5t-21.5 25t-8 38.5t8 38.5t21.5 25.5t29.5 14t33 4q16 0 32 -4t29 -14t21.5 -25.5t8.5 -38.5zM252 423q0 -23 -8.5 -38.5t-21.5 -25t-29 -13.5t-32 -4q-17 0 -33 4t-29.5 13.5t-21.5 25 t-8 38.5t8 38.5t21.5 25.5t29.5 14t33 4q16 0 32 -4t29 -14t21.5 -25.5t8.5 -38.5z" />
<glyph unicode=";" horiz-adv-x="330" d="M71 0zM258 54q0 -39 -15.5 -74.5t-39.5 -65t-52 -52t-53 -35.5l-27 32q38 26 64.5 57.5t29.5 80.5q-17 0 -33 4.5t-29 14.5t-21 25.5t-8 36.5q0 39 27 59.5t60 20.5q48 0 72.5 -26.5t24.5 -77.5zM255 423q0 -23 -8.5 -38.5t-21.5 -25t-29 -13.5t-32 -4q-17 0 -33 4 t-29.5 13.5t-21.5 25t-8 38.5t8 38.5t21.5 25.5t29.5 14t33 4q16 0 32 -4t29 -14t21.5 -25.5t8.5 -38.5z" />
<glyph unicode="?" horiz-adv-x="463" d="M196 237q-11 23 -16.5 41t-5.5 36q0 38 18.5 62t40.5 43.5t40.5 40t18.5 53.5q0 39 -29.5 64t-76.5 25q-72 0 -135 -58l-19 17q40 72 93.5 110t122.5 38q40 0 73 -11.5t57 -31.5t37 -48t13 -61q0 -35 -14.5 -61.5t-35.5 -48.5t-46.5 -41t-46.5 -38.5t-35.5 -41.5 t-14.5 -50q0 -14 3.5 -24t4.5 -15h-47zM309 73q0 -23 -8.5 -38.5t-21.5 -25t-29.5 -13.5t-32.5 -4q-17 0 -33 4t-29 13.5t-21 25t-8 38.5t8 38.5t21 25.5t29 14t33 4q16 0 32.5 -4t29.5 -14t21.5 -25.5t8.5 -38.5z" />
<glyph unicode="&#xbf;" horiz-adv-x="457" d="M31 0zM263.012 261.015q11 -22.999 16.499 -40.998q5.5 -17.999 5.5 -35.9971q0 -37.998 -18.499 -61.9961q-18.499 -23.999 -40.4971 -43.498q-21.999 -19.499 -40.498 -39.9971q-18.499 -20.499 -18.499 -53.4971q0 -38.998 29.498 -63.9961 q29.499 -24.998 76.4961 -24.998q71.9951 0 134.991 57.9961l18.999 -16.999q-39.998 -71.9951 -93.4941 -109.993q-53.4971 -37.998 -122.492 -37.998q-39.998 0 -72.9961 11.5q-32.998 11.499 -56.9961 31.498q-23.999 19.998 -36.998 47.9971 q-12.999 27.998 -12.999 60.9961q0 34.998 14.499 61.4961t35.498 48.4971q20.998 21.999 46.4971 40.9971q25.498 18.999 46.4971 38.498q20.998 19.499 35.498 41.4971q14.499 21.999 14.499 49.9971q0 13.999 -3.5 23.999q-3.5 9.99902 -4.5 14.999h46.9971z M150.019 425.005q0 22.998 8.5 38.4971q8.49902 15.499 21.498 24.999q13 9.49902 29.499 13.499t32.498 4q16.998 0 32.998 -4q15.998 -4 28.998 -13.499q12.999 -9.5 20.998 -24.999q8 -15.499 8 -38.4971q0 -22.999 -8 -38.498q-7.99902 -15.499 -20.998 -25.498 q-13 -10 -28.998 -14q-16 -3.99902 -32.998 -3.99902q-15.999 0 -32.498 3.99902q-16.499 4 -29.499 14q-12.999 9.99902 -21.498 25.498q-8.5 15.499 -8.5 38.498z" />
<glyph unicode="!" horiz-adv-x="327" d="M247 693v-104l-51 -353h-64l-50 353v104h165zM254 73q0 -23 -8.5 -38.5t-21.5 -25t-29.5 -13.5t-32.5 -4q-17 0 -33 4t-29 13.5t-21 25t-8 38.5t8 38.5t21 25.5t29 14t33 4q16 0 32.5 -4t29.5 -14t21.5 -25.5t8.5 -38.5z" />
<glyph unicode="&#xa1;" horiz-adv-x="305" d="M62 0zM69.0146 -194.958v103.994l50.9971 352.979h63.9961l49.9971 -352.979v-103.994h-164.99zM62.0156 425.005q0 22.998 8.49902 38.4971q8.5 15.499 21.499 24.999q12.999 9.49902 29.498 13.499t32.498 4q16.999 0 32.998 -4t28.998 -13.499 q12.999 -9.5 20.999 -24.999q7.99902 -15.499 7.99902 -38.4971q0 -22.999 -7.99902 -38.498q-8 -15.499 -20.999 -25.498q-12.999 -10 -28.998 -14q-15.999 -3.99902 -32.998 -3.99902q-15.999 0 -32.498 3.99902q-16.499 4 -29.498 14q-12.999 9.99902 -21.499 25.498 q-8.49902 15.499 -8.49902 38.498z" />
<glyph unicode="-" horiz-adv-x="417" d="M354 217h-291v88h291v-88z" />
<glyph unicode="&#x2013;" horiz-adv-x="669" d="M596 238h-523v61h523v-61z" />
<glyph unicode="&#x2014;" horiz-adv-x="883" d="M810 238h-737v61h737v-61z" />
<glyph unicode="_" horiz-adv-x="649" d="M586 -217h-523v61h523v-61z" />
<glyph unicode="@" horiz-adv-x="859" d="M602 71q-48 0 -70.5 17t-27.5 43q-26 -28 -54.5 -43t-60.5 -15q-79 0 -119.5 50t-40.5 141q0 50 16 89.5t43 66.5t63 41.5t77 14.5q30 0 54.5 -5.5t44.5 -14.5l82 16h12v-295q0 -26 11 -36.5t29 -10.5q28 0 48 20.5t32.5 53t18.5 73t6 80.5q0 73 -22 129t-60.5 93.5 t-92 56.5t-116.5 19q-86 0 -154 -32.5t-115.5 -88t-73 -130.5t-25.5 -159q0 -77 22 -142t65.5 -111.5t108 -72.5t150.5 -26q22 0 54.5 2.5t68.5 8.5t72 17.5t67 29.5v-48q-24 -15 -58 -26.5t-71.5 -19t-75.5 -11t-70 -3.5q-95 0 -168.5 30.5t-124 84.5t-77 127.5 t-26.5 159.5q0 99 33.5 183.5t92 146.5t138.5 97t174 35q75 0 137.5 -23t107.5 -67t70 -108t25 -145q0 -53 -11 -105.5t-36.5 -94t-67.5 -67.5t-105 -26zM444 149q14 0 26 2t32 12v238q-14 8 -30.5 13t-36.5 5q-39 0 -60 -32t-21 -101q0 -66 21.5 -101.5t68.5 -35.5z" />
<glyph unicode="&#x26;" horiz-adv-x="658" d="M629 17q-7 -5 -21 -9.5t-31.5 -8.5t-36.5 -6.5t-36 -2.5q-36 0 -60 12t-50 35q-32 -20 -74 -34t-97 -14q-81 0 -129 34.5t-48 94.5q0 48 33 84t91 53q-35 38 -49.5 68.5t-14.5 60.5q0 31 13.5 58.5t38 47t58 31t74.5 11.5q29 0 58.5 -6.5t53.5 -20t39 -35t15 -51.5 q0 -24 -11 -43.5t-30.5 -34.5t-45.5 -26.5t-56 -18.5l145 -142q14 31 26.5 54.5t25.5 39t27.5 23.5t33.5 8q24 0 42.5 -12.5t18.5 -40.5q0 -27 -17.5 -36.5t-40.5 -11.5q-13 -1 -23.5 -3t-20.5 -7.5t-20 -15.5t-23 -26l15 -15q11 -11 23 -22.5t24.5 -21.5t27 -16.5 t30.5 -7.5h10t10 1zM308 48q36 0 64 11l-175 169q-8 -14 -10.5 -29t-2.5 -30q0 -23 6.5 -45t21.5 -39t38.5 -27t57.5 -10zM229 423q0 -25 13 -46t42 -52l12 -12q27 23 37.5 46t10.5 50q0 35 -14 58t-43 23q-26 0 -42 -18.5t-16 -48.5z" />
<glyph unicode="/" horiz-adv-x="445" d="M419 744l-322 -961h-71l320 961h73z" />
<glyph unicode="\" horiz-adv-x="426" d="M103 744l296 -961h-74l-298 961h76z" />
<glyph unicode="|" horiz-adv-x="257" d="M168 744v-961h-79v961h79z" />
<glyph unicode="(" horiz-adv-x="357" d="M40 277q0 83 13.5 157t46.5 136t88 110t137 80l19 -38q-56 -28 -93.5 -68.5t-60 -95t-32.5 -124t-10 -154.5q0 -86 10 -155t32.5 -123.5t60 -95t93.5 -68.5l-19 -38q-84 25 -139 72.5t-87.5 110.5t-45.5 138t-13 156z" />
<glyph unicode=")" horiz-adv-x="357" d="M317 277q0 -81 -13 -156t-45.5 -138t-87.5 -110.5t-139 -72.5l-19 38q55 28 93 68.5t60.5 95t32.5 123.5t10 155q0 85 -10 154.5t-32.5 124t-60.5 95t-93 68.5l19 38q82 -32 137 -80t88 -110t46.5 -136t13.5 -157z" />
<glyph unicode="[" horiz-adv-x="343" d="M319 -194h-230v953h230v-55h-134v-843h134v-55z" />
<glyph unicode="]" horiz-adv-x="343" d="M24 -139h135v843h-135v55h230v-953h-230v55z" />
<glyph unicode="{" horiz-adv-x="362" d="M338 -194q-51 0 -91 7t-68.5 25.5t-43.5 52t-15 86.5v149q0 37 -7.5 60.5t-21.5 37t-33 19.5t-42 8v63q25 3 44.5 9.5t32.5 20.5t20 37t7 58v150q0 54 17 87t46.5 51.5t69 25t85.5 6.5v-55q-33 0 -56 -4.5t-37.5 -15.5t-21.5 -30.5t-7 -50.5v-124q0 -86 -23.5 -132.5 t-87.5 -61.5v-5q39 -10 61 -26t33 -39.5t14 -55.5t3 -73v-124q0 -32 8.5 -51.5t24.5 -30.5t38.5 -15t50.5 -4v-55z" />
<glyph unicode="}" horiz-adv-x="362" d="M24 -139q28 0 51 4t39 15t24.5 30.5t8.5 51.5v124q0 41 2.5 73t13.5 55.5t33 39.5t61 26v5q-32 7 -53.5 22.5t-34 39t-17.5 56.5t-5 76v124q0 31 -7 50.5t-22 30.5t-38 15.5t-56 4.5v55q46 0 85.5 -6.5t69 -25t46.5 -51.5t17 -87v-150q0 -35 7 -58t20 -37t32.5 -20.5 t44.5 -9.5v-63q-23 -2 -42 -8t-33 -19.5t-21.5 -37t-7.5 -60.5v-149q0 -53 -15 -86.5t-43.5 -52t-68.5 -25.5t-91 -7v55z" />
<glyph unicode="&#xa7;" horiz-adv-x="567" d="M253 -168q-36 0 -72.5 6.5t-66 19t-48 31t-18.5 42.5q0 23 16 40t44 17t42.5 -17t29 -37.5t34 -37.5t56.5 -17q20 0 38.5 6t33 16.5t23 26t8.5 34.5q0 31 -24.5 54.5t-70.5 40.5l-67 25q-35 12 -64.5 28.5t-51 38.5t-34 50.5t-12.5 64.5q0 52 25.5 95t74.5 69 q-33 22 -54 54.5t-21 80.5q0 41 17 76.5t48.5 62t76 41.5t99.5 15q34 0 68.5 -6.5t62.5 -19t46 -30.5t18 -42q0 -26 -13.5 -38.5t-35.5 -12.5q-26 0 -42.5 16t-32.5 35.5t-36 35.5t-53 16q-41 0 -68.5 -24.5t-27.5 -64.5q0 -61 79 -89l83 -30q78 -26 118.5 -70.5 t40.5 -107.5q0 -54 -27.5 -94.5t-75.5 -65.5q38 -23 61 -57t23 -82q0 -45 -19.5 -81t-53.5 -61.5t-79.5 -39t-97.5 -13.5zM212 396q-16 -14 -25 -33.5t-9 -42.5q0 -30 18.5 -53t63.5 -39l85 -30l10 -3q18 14 27.5 32.5t9.5 38.5q0 65 -94 98l-67 26z" />
<glyph unicode="&#x2022;" horiz-adv-x="408" d="M334 268q-1 -28 -11.5 -52t-28.5 -41.5t-41 -27.5t-50 -10t-51 10t-41.5 28t-28 42t-10.5 51t10.5 50.5t28 41.5t41.5 28t51 10q28 0 52.5 -10.5t42.5 -28t27.5 -41t8.5 -50.5z" />
<glyph unicode="#" horiz-adv-x="657" d="M104 481h129l55 212h59l-55 -212h142l55 212h59l-55 -212h130l-15 -60h-130l-41 -160h129l-15 -60h-130l-51 -201h-60l52 201h-142l-51 -201h-60l52 201h-129l15 60h129l42 160h-129zM236 261h141l42 160h-142z" />
<glyph unicode="%" horiz-adv-x="803" d="M689 693l-518 -693h-68l516 693h70zM373 546q0 -41 -13.5 -72.5t-37 -52.5t-55.5 -31.5t-68 -10.5q-33 0 -62.5 9.5t-52 29t-35.5 49.5t-13 71q0 43 13.5 74.5t36.5 51.5t54 29.5t66 9.5q73 0 120 -40t47 -117zM267 543q0 63 -15 91.5t-50 28.5q-34 0 -47 -28t-13 -93 q0 -69 13.5 -95.5t44.5 -26.5q38 0 52.5 31.5t14.5 91.5zM769 153q0 -41 -13.5 -72.5t-37 -52.5t-55.5 -31.5t-69 -10.5q-32 0 -61.5 9.5t-52 29t-35.5 49.5t-13 71q0 43 13.5 74.5t36.5 51.5t53.5 29.5t65.5 9.5q37 0 67.5 -10t53 -30t35 -49.5t12.5 -67.5zM663 150 q0 63 -15.5 91.5t-50.5 28.5q-34 0 -46.5 -28t-12.5 -93q0 -69 13.5 -95.5t43.5 -26.5q38 0 53 31.5t15 91.5z" />
<glyph unicode="&#x2030;" horiz-adv-x="1170" d="M692 693l-518 -693h-68l516 693h70zM376 546q0 -41 -13.5 -72.5t-37 -52.5t-55.5 -31.5t-68 -10.5q-33 0 -62.5 9.5t-52 29t-35.5 49.5t-13 71q0 43 13.5 74.5t36.5 51.5t54 29.5t66 9.5q73 0 120 -40t47 -117zM270 543q0 63 -15 91.5t-50 28.5q-34 0 -47 -28t-13 -93 q0 -69 13.5 -95.5t44.5 -26.5q38 0 52.5 31.5t14.5 91.5zM772 153q0 -41 -13.5 -72.5t-37 -52.5t-55.5 -31.5t-69 -10.5q-32 0 -61.5 9.5t-52 29t-35.5 49.5t-13 71q0 43 13.5 74.5t36.5 51.5t53.5 29.5t65.5 9.5q37 0 67.5 -10t53 -30t35 -49.5t12.5 -67.5zM666 150 q0 63 -15.5 91.5t-50.5 28.5q-34 0 -46.5 -28t-12.5 -93q0 -69 13.5 -95.5t43.5 -26.5q38 0 53 31.5t15 91.5zM1137 153q0 -41 -13.5 -72.5t-37 -52.5t-55.5 -31.5t-68 -10.5q-32 0 -61.5 9.5t-52 29t-35.5 49.5t-13 71q0 43 13.5 74.5t36.5 51.5t53.5 29.5t65.5 9.5 q73 0 120 -40t47 -117zM1032 150q0 63 -15.5 91.5t-50.5 28.5q-34 0 -47 -28t-13 -93q0 -69 14 -95.5t44 -26.5q38 0 53 31.5t15 91.5z" />
<glyph unicode="&#x2020;" horiz-adv-x="420" d="M386 410h-139v-627h-73v627h-139v71h139v263h73v-263h139v-71z" />
<glyph unicode="'" horiz-adv-x="225" d="M183 744l-53 -283h-70l20 283h103z" />
<glyph unicode="&#x22;" horiz-adv-x="408" d="M183 744l-53 -283h-70l20 283h103zM365 744l-52 -283h-70l19 283h103z" />
<glyph unicode="&#x201c;" horiz-adv-x="480" d="M42 456zM42 552q0 41 15.5 76.5t38.5 64.5t50 50.5t51 34.5l26 -31q-38 -26 -63.5 -57t-28.5 -79q16 0 31 -5.5t27 -15.5t19.5 -24.5t7.5 -33.5q0 -32 -24 -54t-58 -22q-39 0 -65.5 25t-26.5 71zM253 552q0 41 15.5 76.5t38.5 64.5t50 50.5t51 34.5l26 -31 q-38 -26 -63.5 -57t-28.5 -79q16 0 31 -5.5t27 -15.5t19.5 -24.5t7.5 -33.5q0 -32 -24 -54t-58 -22q-39 0 -65.5 25t-26.5 71z" />
<glyph unicode="&#x201d;" horiz-adv-x="480" d="M51 450zM232 676q0 -41 -15 -76.5t-38 -64.5t-50 -50.5t-51 -34.5l-27 31q38 26 63.5 57t28.5 79q-16 0 -31 5.5t-27 15.5t-19.5 24.5t-7.5 33.5q0 32 24 54t58 22q39 0 65.5 -25t26.5 -71zM443 676q0 -41 -15 -76.5t-38 -64.5t-50 -50.5t-51 -34.5l-27 31q38 26 63.5 57 t28.5 79q-16 0 -31 5.5t-27 15.5t-19.5 24.5t-7.5 33.5q0 32 24 54t58 22q39 0 65.5 -25t26.5 -71z" />
<glyph unicode="&#x2018;" horiz-adv-x="269" d="M42 552q0 41 15.5 76.5t38.5 64.5t50 50.5t51 34.5l26 -31q-38 -26 -63.5 -57t-28.5 -79q16 0 31 -5.5t27 -15.5t19.5 -24.5t7.5 -33.5q0 -32 -24 -54t-58 -22q-39 0 -65.5 25t-26.5 71z" />
<glyph unicode="&#x2019;" horiz-adv-x="269" d="M232 676q0 -41 -15 -76.5t-38 -64.5t-50 -50.5t-51 -34.5l-27 31q38 26 63.5 57t28.5 79q-16 0 -31 5.5t-27 15.5t-19.5 24.5t-7.5 33.5q0 32 24 54t58 22q39 0 65.5 -25t26.5 -71z" />
<glyph unicode="&#x201a;" horiz-adv-x="285" d="M50 0zM231 33q0 -41 -15 -76.5t-38 -64.5t-50 -50.5t-51 -34.5l-27 31q38 26 63.5 57t28.5 79q-16 0 -31 5.5t-27 15.5t-19.5 24.5t-7.5 33.5q0 32 24 54t58 22q39 0 65.5 -25t26.5 -71z" />
<glyph unicode="&#x201e;" horiz-adv-x="500" d="M50 0zM231 33q0 -41 -15 -76.5t-38 -64.5t-50 -50.5t-51 -34.5l-27 31q38 26 63.5 57t28.5 79q-16 0 -31 5.5t-27 15.5t-19.5 24.5t-7.5 33.5q0 32 24 54t58 22q39 0 65.5 -25t26.5 -71zM444 33q0 -41 -15 -76.5t-38 -64.5t-50 -50.5t-51 -34.5l-27 31q38 26 63.5 57 t28.5 79q-16 0 -31 5.5t-27 15.5t-19.5 24.5t-7.5 33.5q0 32 24 54t58 22q39 0 65.5 -25t26.5 -71z" />
<glyph unicode="&#x2039;" horiz-adv-x="315" d="M223 67l-179 189v20l180 185l40 -28l-96 -163l96 -176z" />
<glyph unicode="&#x203a;" horiz-adv-x="315" d="M51 94l96 176l-96 163l40 28l180 -185v-20l-179 -189z" />
<glyph unicode="&#xab;" horiz-adv-x="515" d="M223 67l-179 189v20l180 185l40 -28l-96 -163l96 -176zM423 67l-179 189v20l180 185l40 -28l-96 -163l96 -176z" />
<glyph unicode="&#xbb;" horiz-adv-x="515" d="M251 94l96 176l-96 163l40 28l180 -185v-20l-179 -189zM51 94l96 176l-96 163l40 28l180 -185v-20l-179 -189z" />
<glyph unicode="*" horiz-adv-x="438" d="M382 458l-121 34l-30 -124h-24l-30 124l-121 -34l-10 19l91 88l-91 88l10 17l123 -35l30 124h20l31 -124l122 35l10 -17l-92 -89l92 -87z" />
<glyph unicode="+" horiz-adv-x="533" d="M301 491v-194h193v-65h-193v-195h-69v195h-192v65h192v194h69z" />
<glyph unicode="&#x3c;" horiz-adv-x="465" d="M412 5l-380 232v60l380 231v-75l-304 -185l304 -184v-79z" />
<glyph unicode="=" horiz-adv-x="584" d="M519 142h-454v65h454v-65zM519 322h-454v65h454v-65z" />
<glyph unicode="&#x3e;" horiz-adv-x="465" d="M53 84l304 184l-304 185v75l380 -231v-60l-380 -232v79z" />
<glyph unicode="&#x401;" d="M45 0zM176 807q0 37 21.5 52t50.5 15q28 0 49.5 -15t21.5 -52t-21.5 -52t-49.5 -15q-29 0 -50.5 15t-21.5 52zM365 807q0 37 21.5 52t50.5 15t50.5 -15t21.5 -52t-21.5 -52t-50.5 -15t-50.5 15t-21.5 52zM45 39q11 1 25 2.5t21 6.5q14 8 18 20.5t4 34.5v487q0 23 -5 35.5 t-19 19.5q-6 3 -16.5 5t-27.5 4v39h536v-173h-42q-9 36 -22 59t-31 36.5t-42 19t-57 5.5h-109v-259h82q41 0 54 25q6 11 9 27.5t5 34.5h44v-228h-44q-2 15 -4.5 32.5t-8.5 28.5q-14 27 -55 27h-82v-275h128q37 0 62.5 8t44.5 26.5t33.5 48t28.5 72.5l38 -4l-17 -204h-551v39 z" />
<glyph unicode="&#x402;" horiz-adv-x="852" d="M829 198q0 -59 -18 -98t-50 -62t-75.5 -33t-94.5 -10v40q17 1 30.5 8.5t23 24.5t14.5 45.5t5 71.5q0 82 -33 125.5t-111 43.5q-32 0 -57.5 -5t-43.5 -11v-243q0 -33 18 -44q7 -5 17.5 -7.5t26.5 -4.5v-39h-294v39q11 1 23 2.5t20 4.5q24 10 24 49v551h-31 q-70 0 -107.5 -39t-56.5 -111h-36v197h629v-197h-36q-19 72 -56.5 111t-107.5 39h-33v-258q29 11 70 19t95 8q113 0 179 -54t66 -163z" />
<glyph unicode="&#x403;" horiz-adv-x="598" d="M45 0zM513 858l-176 -125h-38l-4 10l85 126h129zM278 640v-541q0 -38 27 -50q8 -4 22.5 -6t30.5 -4v-39h-313v39q11 1 23 2.5t20 4.5q25 12 25 49v495q0 23 -5 35.5t-19 19.5q-6 3 -16.5 5t-27.5 4v39h536v-173h-42q-9 36 -22 59t-31 36.5t-42 19t-57 5.5h-109z" />
<glyph unicode="&#x404;" horiz-adv-x="685" d="M414 662q-55 0 -91.5 -22t-59 -61t-32 -92t-10.5 -114h269v-49h-269q2 -66 11.5 -119.5t31 -92t56.5 -59.5t88 -21q39 0 69.5 14.5t53 39.5t38.5 58t26 70h38v-158q-42 -34 -100 -52.5t-128 -18.5q-80 0 -146.5 25t-114.5 71t-75 111.5t-27 146.5q0 84 28.5 152.5 t78.5 117t118.5 74.5t149.5 26q60 0 114.5 -13.5t101.5 -40.5v-174h-38q-9 40 -24.5 73t-37.5 57t-51.5 37.5t-67.5 13.5z" />
<glyph unicode="&#x406;" horiz-adv-x="391" d="M45 0zM278 95q0 -20 6 -31t19 -17q7 -3 18.5 -4.5t24.5 -3.5v-39h-301v39q11 1 23 2.5t20 4.5q25 12 25 49v503q0 20 -6.5 31t-18.5 17q-7 3 -18.5 4.5t-24.5 3.5v39h301v-39q-11 -1 -23.5 -2.5t-20.5 -4.5q-24 -11 -24 -49v-503z" />
<glyph unicode="&#x407;" horiz-adv-x="391" d="M32 0zM278 95q0 -20 6 -31t19 -17q7 -3 18.5 -4.5t24.5 -3.5v-39h-301v39q11 1 23 2.5t20 4.5q25 12 25 49v503q0 20 -6.5 31t-18.5 17q-7 3 -18.5 4.5t-24.5 3.5v39h301v-39q-11 -1 -23.5 -2.5t-20.5 -4.5q-24 -11 -24 -49v-503zM32 807q0 37 21.5 52t50.5 15 q28 0 49.5 -15t21.5 -52t-21.5 -52t-49.5 -15q-29 0 -50.5 15t-21.5 52zM221 807q0 37 21.5 52t50.5 15t50.5 -15t21.5 -52t-21.5 -52t-50.5 -15t-50.5 15t-21.5 52z" />
<glyph unicode="&#x408;" horiz-adv-x="378" d="M0 0zM272 71q0 -51 -18 -104t-52 -95.5t-83.5 -69.5t-113.5 -27q-68 0 -97 23t-29 56q0 25 15.5 45t46.5 20q29 0 41 -15t18.5 -33.5t13 -33.5t26.5 -15q21 0 34 17t20.5 49.5t10 79.5t2.5 106v524q0 20 -6.5 31t-19.5 17q-7 3 -18 4.5t-24 3.5v39h300v-39 q-10 -1 -22.5 -2.5t-20.5 -4.5q-24 -11 -24 -49v-527v0z" />
<glyph unicode="&#x409;" horiz-adv-x="992" d="M682 654q-10 -1 -22 -2.5t-20 -5.5q-13 -6 -19 -17t-6 -31v-183h119q47 0 90 -12t75.5 -36t52 -61t19.5 -86q0 -51 -20.5 -92t-55 -69.5t-79.5 -43.5t-95 -15h-339v39q10 1 22.5 2.5t19.5 5.5q13 6 19.5 17t6.5 31v548h-200q-3 -179 -12 -303.5t-29.5 -202.5t-54 -113 t-85.5 -35q-34 0 -51.5 19.5t-17.5 45.5q0 65 71 83q34 8 57 35.5t37.5 81.5t21.5 138.5t9 206.5q0 19 -6 29.5t-17 16.5q-8 5 -19 6.5t-26 2.5v39h554v-39zM615 362v-309h56q36 0 60.5 11.5t40.5 32.5t23 50t7 63q0 33 -7 60.5t-21 48t-35.5 32t-51.5 11.5h-72z" />
<glyph unicode="&#x40a;" horiz-adv-x="1090" d="M548 336h-270v-241q0 -20 6 -31t19 -17q7 -3 18.5 -4.5t24.5 -3.5v-39h-301v39q11 1 23 2.5t20 4.5q25 12 25 49v503q0 20 -6.5 31t-18.5 17q-7 3 -18.5 4.5t-24.5 3.5v39h301v-39q-11 -1 -23.5 -2.5t-20.5 -4.5q-24 -11 -24 -49v-211h270v211q0 37 -25 49q-7 3 -18.5 4 t-24.5 3v39h301v-39q-11 -1 -23 -2.5t-20 -5.5q-13 -6 -19 -17t-6 -31v-183h119q47 0 90 -12t75.5 -36t52 -61t19.5 -86q0 -51 -20 -92t-54.5 -69.5t-80 -43.5t-95.5 -15h-339v39q11 1 23 2.5t20 5.5q13 6 19 17t6 31v241zM713 362v-309h57q35 0 60 11.5t40.5 32.5t22.5 50 t7 63q0 33 -7 60.5t-21 48t-35.5 32t-50.5 11.5h-73z" />
<glyph unicode="&#x40b;" horiz-adv-x="890" d="M817 95q0 -20 6.5 -31t18.5 -17q7 -3 18.5 -4.5t24.5 -3.5v-39h-294v39q11 2 24 4.5t20 7.5q18 11 18 44l-1 99q-1 77 -28.5 115.5t-96.5 38.5q-35 0 -62 -5t-46 -12v-236q0 -33 18 -44q7 -5 17.5 -7.5t26.5 -4.5v-39h-294v39q11 1 23 2.5t20 4.5q24 10 24 49v551h-31 q-70 0 -107.5 -39t-56.5 -111h-36v197h629v-197h-36q-19 72 -56.5 111t-107.5 39h-33v-258q36 13 78.5 20t92.5 7q52 0 94 -12t71.5 -39t45.5 -69t16 -102v-98z" />
<glyph unicode="&#x40c;" horiz-adv-x="733" d="M45 0zM278 95q0 -37 25 -48q8 -3 19 -4.5t24 -3.5v-39h-301v39q11 1 23 2.5t20 4.5q25 12 25 49v503q0 37 -25 48q-8 3 -19 4.5t-24 3.5v39h301v-39q-11 -1 -23.5 -2.5t-20.5 -4.5q-24 -11 -24 -49v-503zM306 333l178 208q16 18 25 33.5t9 29.5q0 20 -15 33.5t-53 15.5 v40h274v-40q-38 -5 -72 -23t-66 -53l-151 -168l184 -285q23 -37 51 -58t63 -27l-3 -39h-220l-204 326v7zM586 858l-176 -125h-38l-4 10l85 126h129z" />
<glyph unicode="&#x40e;" horiz-adv-x="676" d="M0 0zM257 115q21 0 35.5 11t28.5 30l-240 440q-16 29 -35.5 40.5t-50.5 15.5v41h337v-41q-35 -4 -58 -16.5t-23 -37.5q0 -12 6 -25l141 -269l122 257q12 24 12 41q0 26 -24 37t-56 13v41h240v-38q-29 -4 -51.5 -16.5t-37.5 -40.5l-193 -389q-27 -53 -49 -94.5t-45.5 -70 t-51.5 -44t-65 -15.5t-56 18.5t-19 48.5q0 31 19.5 51t51.5 20q13 0 21 -1.5t14.5 -3t12 -2.5t14.5 -1zM535 862q-9 -56 -50 -88.5t-113 -32.5q-65 0 -108.5 29t-56.5 92h107q3 -35 20 -54t44 -19q35 0 49 20t18 53h90z" />
<glyph unicode="&#x40f;" horiz-adv-x="822" d="M278 51h266v547q0 37 -25 49q-7 3 -19.5 4.5t-23.5 2.5v39h301v-39q-13 -2 -24.5 -3.5t-18.5 -4.5q-12 -6 -18.5 -17t-6.5 -31v-503q0 -37 25 -49q7 -3 19.5 -4.5t23.5 -2.5v-39h-279q-20 0 -39.5 -40t-30.5 -120h-42q-11 78 -24.5 118t-33.5 42h-283v39q13 2 24.5 3.5 t18.5 4.5q12 6 18.5 17t6.5 31v503q0 37 -25 49q-8 3 -20 4.5t-23 2.5v39h301v-39q-13 -2 -24.5 -3.5t-18.5 -4.5q-13 -6 -19 -17t-6 -31v-547z" />
<glyph unicode="&#x410;" horiz-adv-x="703" d="M0 0zM408 240h-220l-55 -145q-7 -18 1 -31t28 -18q7 -2 23.5 -3.5t33.5 -3.5v-39h-227v39q11 1 21.5 4.5t18.5 6.5q15 5 24 15.5t16 29.5l243 611h84l224 -611q7 -20 16 -30t23 -15q8 -4 18 -7t21 -4v-39h-315v39q15 2 28 4t21 5q14 6 21.5 17.5t1.5 29.5zM208 293h182 l-86 251z" />
<glyph unicode="&#x411;" horiz-adv-x="674" d="M278 639v-240h119q50 0 94.5 -10.5t78 -33.5t53 -58.5t19.5 -84.5q0 -51 -20.5 -90.5t-55 -66.5t-79.5 -41t-95 -14h-347v39q11 1 23 2.5t20 5.5q13 6 19 17t6 31v503q0 37 -25 49q-7 3 -18.5 4t-24.5 3v39h536v-173h-42q-9 36 -22 59t-31 36.5t-42 18.5t-57 5h-109z M278 346v-293h58q72 0 104.5 40t32.5 109q0 66 -31.5 105t-99.5 39h-64z" />
<glyph unicode="&#x412;" horiz-adv-x="700" d="M45 0zM45 0v39q11 1 23 2.5t20 4.5q25 12 25 49v503q0 37 -25 48q-8 3 -19 4.5t-24 3.5v39h321q125 0 188.5 -45t63.5 -120q0 -56 -45.5 -100.5t-126.5 -60.5v-4q110 -5 162 -50.5t52 -114.5q0 -50 -23 -87.5t-62 -62t-90.5 -36.5t-108.5 -12h-331zM487 193q0 27 -8 52 t-28.5 44.5t-54 31t-84.5 11.5h-34v-280h46q85 0 124 37.5t39 103.5zM278 641v-262h21q77 0 109 35.5t32 95.5q0 69 -33.5 100t-91.5 31h-37z" />
<glyph unicode="&#x413;" horiz-adv-x="598" d="M278 640v-541q0 -38 27 -50q8 -4 22.5 -6t30.5 -4v-39h-313v39q11 1 23 2.5t20 4.5q25 12 25 49v495q0 23 -5 35.5t-19 19.5q-6 3 -16.5 5t-27.5 4v39h536v-173h-42q-9 36 -22 59t-31 36.5t-42 19t-57 5.5h-109z" />
<glyph unicode="&#x414;" horiz-adv-x="747" d="M693 654q-10 -1 -22.5 -2.5t-20.5 -4.5q-25 -12 -25 -49v-547h96v-211h-36q-9 37 -21.5 66.5t-31.5 50t-46 31.5t-64 12h-309q-39 0 -67.5 -10.5t-48.5 -31t-32.5 -50.5t-21.5 -68h-36v211h43q31 8 55 49.5t40.5 112t25.5 168.5t11 218q0 19 -5.5 29.5t-16.5 16.5 q-8 5 -19.5 6.5t-25.5 2.5v39h578v-39zM242 643q-3 -126 -9.5 -223.5t-19 -169.5t-30.5 -121t-43 -78h320v592h-218z" />
<glyph unicode="&#x415;" d="M45 0zM45 39q11 1 25 2.5t21 6.5q14 8 18 20.5t4 34.5v487q0 23 -5 35.5t-19 19.5q-6 3 -16.5 5t-27.5 4v39h536v-173h-42q-9 36 -22 59t-31 36.5t-42 19t-57 5.5h-109v-259h82q41 0 54 25q6 11 9 27.5t5 34.5h44v-228h-44q-2 15 -4.5 32.5t-8.5 28.5q-14 27 -55 27h-82 v-275h128q37 0 62.5 8t44.5 26.5t33.5 48t28.5 72.5l38 -4l-17 -204h-551v39z" />
<glyph unicode="&#x416;" horiz-adv-x="1059" d="M610 95q0 -37 25 -48q8 -3 19 -4.5t24 -3.5v-39h-298v39q11 1 23.5 2.5t20.5 4.5q24 11 24 49v503q0 37 -25 48q-8 3 -19 4.5t-24 3.5v39h298v-39q-11 -1 -23.5 -2.5t-19.5 -4.5q-25 -12 -25 -49v-503zM638 333l174 208q15 18 24.5 33.5t9.5 29.5q0 20 -14.5 33t-51.5 16 v40h271v-40q-38 -5 -72 -23t-65 -53l-148 -167l183 -286q23 -37 49 -58t61 -27l-2 -39h-218l-201 326v7zM420 326l-200 -326h-218l1 39q35 6 60 27t48 58l181 285l-148 168q-31 35 -65 53t-72 23v40h271v-40q-37 -3 -51 -16t-14 -33q-1 -14 8.5 -29.5t24.5 -33.5l174 -208 v-7z" />
<glyph unicode="&#x417;" horiz-adv-x="624" d="M252 662q-32 0 -57.5 -14.5t-45 -39.5t-33.5 -58t-24 -70h-38v158q42 34 99 52.5t124 18.5q57 0 106.5 -9.5t86.5 -30t58 -52.5t21 -77q0 -73 -50 -119.5t-138 -56.5v-4q48 -2 89 -12t71.5 -29.5t47.5 -49.5t17 -71q0 -53 -21.5 -93t-60.5 -66.5t-94 -40t-123 -13.5 q-41 0 -74.5 3.5t-62 10t-53.5 16.5t-48 24v174h38q9 -40 23 -73t35 -57t51.5 -37.5t74.5 -13.5q66 0 104 41t38 117q0 38 -13 65t-35.5 44t-54.5 24.5t-69 7.5h-53v49h52q69 0 100 36.5t31 105.5q0 64 -29.5 102t-89.5 38z" />
<glyph unicode="&#x418;" horiz-adv-x="837" d="M792 693v-39q-10 -1 -22.5 -2.5t-20.5 -4.5q-25 -12 -25 -49v-503q0 -20 6.5 -31t19.5 -17q7 -3 18 -4.5t24 -3.5v-39h-300v39q10 1 22.5 2.5t20.5 4.5q24 11 24 49v449l-305 -544h-209v39q11 1 23 2.5t20 4.5q25 12 25 49v503q0 20 -6.5 31t-18.5 17q-7 3 -18.5 4.5 t-24.5 3.5v39h301v-39q-11 -1 -23.5 -2.5t-20.5 -4.5q-24 -11 -24 -49v-450l306 545h208z" />
<glyph unicode="&#x419;" horiz-adv-x="837" d="M45 0zM792 693v-39q-10 -1 -22.5 -2.5t-20.5 -4.5q-25 -12 -25 -49v-503q0 -20 6.5 -31t19.5 -17q7 -3 18 -4.5t24 -3.5v-39h-300v39q10 1 22.5 2.5t20.5 4.5q24 11 24 49v449l-305 -544h-209v39q11 1 23 2.5t20 4.5q25 12 25 49v503q0 20 -6.5 31t-18.5 17 q-7 3 -18.5 4.5t-24.5 3.5v39h301v-39q-11 -1 -23.5 -2.5t-20.5 -4.5q-24 -11 -24 -49v-450l306 545h208zM605 862q-9 -56 -50 -88.5t-113 -32.5q-65 0 -108.5 29t-56.5 92h107q3 -35 20 -54t44 -19q35 0 49 20t18 53h90z" />
<glyph unicode="&#x41a;" horiz-adv-x="733" d="M45 0zM278 95q0 -37 25 -48q8 -3 19 -4.5t24 -3.5v-39h-301v39q11 1 23 2.5t20 4.5q25 12 25 49v503q0 37 -25 48q-8 3 -19 4.5t-24 3.5v39h301v-39q-11 -1 -23.5 -2.5t-20.5 -4.5q-24 -11 -24 -49v-503zM306 333l178 208q16 18 25 33.5t9 29.5q0 20 -15 33.5t-53 15.5 v40h274v-40q-38 -5 -72 -23t-66 -53l-151 -168l184 -285q23 -37 51 -58t63 -27l-3 -39h-220l-204 326v7z" />
<glyph unicode="&#x41b;" horiz-adv-x="740" d="M695 654q-11 -1 -23.5 -2.5t-20.5 -4.5q-24 -11 -24 -49v-503q0 -20 6 -31t19 -17q7 -3 18.5 -4.5t24.5 -3.5v-39h-301v39q11 1 23 2.5t20 4.5q25 12 25 49v548h-212q-3 -179 -12 -303.5t-29.5 -202.5t-54 -113t-85.5 -35q-34 0 -51.5 19.5t-17.5 45.5q0 65 71 83 q34 8 57 35.5t37.5 81.5t21.5 138.5t9 206.5q0 19 -6 29.5t-17 16.5q-8 5 -19 6.5t-26 2.5v39h567v-39z" />
<glyph unicode="&#x41c;" horiz-adv-x="936" d="M29 0zM473 316l191 377h227v-39q-11 -1 -23.5 -2.5t-20.5 -4.5q-24 -12 -24 -49v-503q0 -20 6.5 -31t18.5 -17q7 -3 18.5 -4.5t24.5 -3.5v-39h-301v39q11 1 23.5 2.5t19.5 4.5q25 12 25 49v450l-211 -416h-42l-213 415v-412q0 -29 8.5 -46.5t23.5 -27.5q25 -16 64 -21 v-37h-259v37q16 2 30 6t27 11q17 9 28 27.5t11 50.5v430q0 49 -23 69q-10 10 -27 16t-39 8v38h245z" />
<glyph unicode="&#x41d;" horiz-adv-x="838" d="M45 0zM560 598q0 20 -6 31t-19 17q-7 3 -18.5 4.5t-24.5 3.5v39h301v-39q-11 -1 -23.5 -2.5t-19.5 -4.5q-25 -12 -25 -49v-503q0 -20 6.5 -31t18.5 -17q7 -3 18.5 -4.5t24.5 -3.5v-39h-301v39q11 1 23.5 2.5t20.5 4.5q24 11 24 49v241h-282v-241q0 -20 6 -31t19 -17 q7 -3 18.5 -4.5t24.5 -3.5v-39h-301v39q11 1 23 2.5t20 4.5q25 12 25 49v503q0 20 -6.5 31t-18.5 17q-7 3 -18.5 4.5t-24.5 3.5v39h301v-39q-11 -1 -23.5 -2.5t-20.5 -4.5q-24 -11 -24 -49v-211h282v211v0z" />
<glyph unicode="&#x41e;" horiz-adv-x="807" d="M42 0zM765 352q0 -80 -27.5 -147.5t-76.5 -116.5t-116.5 -76t-148.5 -27q-76 0 -140.5 24.5t-112 70.5t-74.5 112t-27 149q0 85 28 153t77.5 116t116.5 73.5t144 25.5q78 0 144 -26t113 -73.5t73.5 -113t26.5 -144.5zM586 343q0 66 -8 124.5t-28.5 101.5t-56.5 68t-91 25 q-56 0 -91.5 -25.5t-55.5 -68.5t-27 -99.5t-7 -118.5q0 -72 8.5 -130.5t28.5 -99.5t54.5 -63.5t87.5 -22.5q59 0 95.5 27t56.5 71t27 99.5t7 111.5z" />
<glyph unicode="&#x41f;" horiz-adv-x="822" d="M777 654q-11 -1 -23.5 -2.5t-19.5 -4.5q-25 -12 -25 -49v-503q0 -20 6.5 -31t18.5 -17q7 -3 18.5 -4.5t24.5 -3.5v-39h-301v39q11 1 23.5 2.5t19.5 4.5q25 12 25 49v547h-266v-547q0 -20 6 -31t19 -17q7 -3 18.5 -4.5t24.5 -3.5v-39h-301v39q11 1 23 2.5t20 4.5 q25 12 25 49v503q0 20 -6.5 31t-18.5 17q-7 3 -18.5 4.5t-24.5 3.5v39h732v-39z" />
<glyph unicode="&#x420;" horiz-adv-x="650" d="M45 0zM401 693q45 0 87 -11.5t74 -35.5t51 -60.5t19 -85.5q0 -51 -20 -91.5t-54 -69t-78 -43.5t-93 -15h-109v-186q0 -38 25 -48q9 -4 20.5 -5t25.5 -3v-39h-304v39q11 1 23 2.5t20 4.5q25 10 25 49v503q0 37 -25 48q-8 4 -18.5 5t-24.5 3v39h356zM278 640v-306h57 q35 0 59.5 11.5t39.5 32.5t22 49.5t7 62.5q0 33 -6.5 60.5t-20.5 47.5t-35 31t-50 11h-73z" />
<glyph unicode="&#x421;" horiz-adv-x="687" d="M42 0zM408 659q-52 0 -87.5 -25t-57.5 -67t-32 -97t-10 -115q0 -72 10 -131t32.5 -100.5t58 -64.5t86.5 -23q36 0 65.5 14.5t52 39.5t38.5 57.5t26 67.5h43v-159q-42 -34 -100 -52.5t-128 -18.5q-80 0 -146.5 25t-114.5 71t-75 111.5t-27 146.5q0 84 28.5 152.5t78.5 117 t118.5 74.5t149.5 26q60 0 114.5 -13.5t101.5 -40.5v-185h-43q-26 94 -70.5 141.5t-111.5 47.5z" />
<glyph unicode="&#x422;" horiz-adv-x="675" d="M23 0zM419 646v-551q0 -37 26 -48q8 -4 18 -5t24 -3v-39h-300v39q11 1 23 2.5t20 4.5q24 10 24 49v551h-31q-70 0 -107.5 -39t-56.5 -111h-36v197h629v-197h-36q-19 72 -56.5 111t-107.5 39h-33z" />
<glyph unicode="&#x423;" horiz-adv-x="676" d="M257 115q21 0 35.5 11t28.5 30l-240 440q-16 29 -35.5 40.5t-50.5 15.5v41h337v-41q-35 -4 -58 -16.5t-23 -37.5q0 -12 6 -25l141 -269l122 257q12 24 12 41q0 26 -24 37t-56 13v41h240v-38q-29 -4 -51.5 -16.5t-37.5 -40.5l-193 -389q-27 -53 -49 -94.5t-45.5 -70 t-51.5 -44t-65 -15.5t-56 18.5t-19 48.5q0 31 19.5 51t51.5 20q13 0 21 -1.5t14.5 -3t12 -2.5t14.5 -1z" />
<glyph unicode="&#x424;" horiz-adv-x="936" d="M549 603q93 0 161.5 -18t113.5 -50.5t67 -78t22 -101.5q0 -60 -20.5 -108t-64.5 -82.5t-113 -53.5t-166 -20v-6q0 -20 6.5 -31t18.5 -17q7 -3 18.5 -4.5t24.5 -3.5v-39h-297v39q10 1 22.5 2.5t20.5 4.5q24 11 24 49v6q-93 0 -161 18t-113 50.5t-67 78t-22 101.5 q0 59 20.5 107.5t64.5 83t112.5 53.5t165.5 20v5q0 20 -6 31t-19 17q-7 3 -18.5 4.5t-23.5 3.5v39h297v-39q-11 -1 -23 -2.5t-20 -4.5q-25 -12 -25 -49v-5zM202 345q0 -100 48 -153.5t137 -55.5v422q-48 -1 -83 -17t-57.5 -44.5t-33.5 -67t-11 -84.5zM734 349 q0 100 -48 153.5t-137 55.5v-422q48 1 82.5 17t57.5 44t34 66.5t11 85.5z" />
<glyph unicode="&#x425;" horiz-adv-x="689" d="M6 0zM7 693h331v-41q-27 -2 -44.5 -11.5t-17.5 -27.5q0 -14 11 -30l95 -147l101 134q17 23 17 41q0 19 -17.5 29t-45.5 12v41h239v-41q-27 -5 -54.5 -21.5t-53.5 -47.5l-153 -197l188 -289q30 -46 80 -56v-41h-337v41q40 4 63 14.5t23 29.5q0 14 -12 31l-108 165 l-113 -155q-16 -22 -16 -38q0 -38 61 -47v-41h-238v41q35 8 62.5 29.5t48.5 45.5l162 216l-172 264q-19 29 -47 41.5t-53 14.5v41z" />
<glyph unicode="&#x426;" horiz-adv-x="831" d="M278 51h266v547q0 37 -25 49q-7 3 -19.5 4.5t-23.5 2.5v39h301v-39q-13 -2 -24.5 -3.5t-18.5 -4.5q-12 -6 -18.5 -17t-6.5 -31v-547h95v-211h-36q-17 75 -52.5 116.5t-109.5 43.5h-561v39q13 2 24.5 3.5t18.5 4.5q12 6 18.5 17t6.5 31v503q0 37 -25 49q-8 3 -20 4.5 t-23 2.5v39h301v-39q-13 -2 -24.5 -3.5t-18.5 -4.5q-13 -6 -19 -17t-6 -31v-547z" />
<glyph unicode="&#x427;" horiz-adv-x="777" d="M499 598q0 20 -6 31t-19 17q-7 3 -18.5 4.5t-24.5 3.5v39h301v-39q-11 -1 -23.5 -2.5t-19.5 -4.5q-25 -12 -25 -49v-503q0 -20 6.5 -31t18.5 -17q7 -3 18.5 -4.5t24.5 -3.5v-39h-301v39q11 1 23.5 2.5t20.5 4.5q24 11 24 49v215q-44 -15 -89 -22t-90 -7q-122 0 -182 51.5 t-60 171.5v94q0 20 -6.5 31t-19.5 17q-7 3 -18 4.5t-24 3.5v39h300v-39q-10 -1 -22.5 -2.5t-20.5 -4.5q-24 -11 -24 -49v-112q0 -34 6.5 -61t21.5 -46t40.5 -29.5t64.5 -10.5q42 0 72.5 5t50.5 11v243v0z" />
<glyph unicode="&#x428;" horiz-adv-x="1174" d="M45 39q13 2 24.5 3.5t18.5 4.5q12 6 18.5 17t6.5 31v503q0 37 -25 49q-8 3 -20 4.5t-23 2.5v39h301v-39q-13 -2 -24.5 -3.5t-18.5 -4.5q-13 -6 -19 -17t-6 -31v-547h226v547q0 37 -25 49q-7 3 -19.5 4.5t-23.5 2.5v39h301v-39q-13 -2 -24.5 -3.5t-18.5 -4.5 q-12 -6 -18.5 -17t-6.5 -31v-547h227v547q0 20 -6.5 31t-18.5 17q-7 3 -18.5 4.5t-24.5 3.5v39h301v-39q-11 -1 -23.5 -2.5t-20.5 -4.5q-24 -11 -24 -49v-503q0 -20 6 -31t19 -17q7 -3 18.5 -4.5t24.5 -3.5v-39h-1084v39z" />
<glyph unicode="&#x429;" horiz-adv-x="1182" d="M45 39q13 2 24.5 3.5t18.5 4.5q12 6 18.5 17t6.5 31v503q0 37 -25 49q-8 3 -20 4.5t-23 2.5v39h301v-39q-13 -2 -24.5 -3.5t-18.5 -4.5q-13 -6 -19 -17t-6 -31v-547h226v547q0 37 -25 49q-7 3 -19.5 4.5t-23.5 2.5v39h301v-39q-13 -2 -24.5 -3.5t-18.5 -4.5 q-12 -6 -18.5 -17t-6.5 -31v-547h227v547q0 20 -6.5 31t-18.5 17q-7 3 -18.5 4.5t-24.5 3.5v39h301v-39q-11 -1 -23.5 -2.5t-20.5 -4.5q-24 -11 -24 -49v-547h95v-211h-36q-9 37 -21.5 66.5t-31.5 50t-46 31.5t-64 12h-912v39z" />
<glyph unicode="&#x42a;" horiz-adv-x="785" d="M408 415h120q47 0 90 -12t75.5 -36t51.5 -61t19 -86q0 -51 -20 -92t-54.5 -69.5t-80 -43.5t-95.5 -15h-339v39q11 1 23 2.5t20 5.5q13 6 19 17t6 31v551h-20q-70 0 -107.5 -39t-56.5 -111h-36v197h453v-39q-11 -1 -23 -2.5t-20 -5.5q-13 -6 -19 -17t-6 -31v-183zM408 362 v-309h57q35 0 60 11.5t40.5 32.5t22.5 50t7 63q0 33 -7 60.5t-21 48t-35.5 32t-50.5 11.5h-73z" />
<glyph unicode="&#x42b;" horiz-adv-x="995" d="M45 0zM882 95q0 -20 6 -31t19 -17q7 -3 18.5 -4.5t24.5 -3.5v-39h-301v39q11 1 23 2.5t20 4.5q25 12 25 49v503q0 20 -6.5 31t-18.5 17q-7 3 -18.5 4.5t-24.5 3.5v39h301v-39q-11 -1 -23.5 -2.5t-20.5 -4.5q-24 -11 -24 -49v-503zM278 415h119q47 0 90 -12t75.5 -36 t52 -61t19.5 -86q0 -51 -20 -92t-54.5 -69.5t-80 -43.5t-95.5 -15h-339v39q11 1 23 2.5t20 5.5q13 6 19 17t6 31v503q0 37 -25 49q-7 3 -18.5 4t-24.5 3v39h301v-39q-11 -1 -23 -2.5t-20 -5.5q-13 -6 -19 -17t-6 -31v-183zM278 362v-309h57q35 0 60 11.5t40.5 32.5t22.5 50 t7 63q0 33 -7 60.5t-21 48t-35.5 32t-50.5 11.5h-73z" />
<glyph unicode="&#x42c;" horiz-adv-x="655" d="M278 415h119q47 0 90 -12t75.5 -36t52 -61t19.5 -86q0 -51 -20 -92t-54.5 -69.5t-80 -43.5t-95.5 -15h-339v39q11 1 23 2.5t20 5.5q13 6 19 17t6 31v503q0 37 -25 49q-7 3 -18.5 4t-24.5 3v39h301v-39q-11 -1 -23 -2.5t-20 -5.5q-13 -6 -19 -17t-6 -31v-183zM278 362 v-309h57q35 0 60 11.5t40.5 32.5t22.5 50t7 63q0 33 -7 60.5t-21 48t-35.5 32t-50.5 11.5h-73z" />
<glyph unicode="&#x42d;" horiz-adv-x="685" d="M271 32q56 0 93 23t59 63.5t31 95t10 117.5h-269v49h268q-2 63 -12 115t-31.5 89t-56.5 57.5t-86 20.5q-39 0 -69.5 -14.5t-53 -39.5t-39 -58t-26.5 -70h-37v158q42 34 100 52.5t128 18.5q79 0 146 -25t115 -71t75 -111.5t27 -146.5q0 -84 -28.5 -152.5t-78.5 -117 t-119 -74.5t-150 -26q-60 0 -114 13.5t-101 40.5v174h37q10 -40 25.5 -73t37.5 -57t51.5 -37.5t67.5 -13.5z" />
<glyph unicode="&#x42e;" horiz-adv-x="1133" d="M1091 352q0 -80 -27.5 -147.5t-75.5 -116.5t-113.5 -76t-142.5 -27q-72 0 -134 24t-108.5 69.5t-73.5 111t-28 147.5h-110v-242q0 -20 6 -31t19 -17q7 -3 18.5 -4.5t24.5 -3.5v-39h-301v39q11 1 23 2.5t20 4.5q25 12 25 49v503q0 20 -6.5 31t-18.5 17q-7 3 -18.5 4.5 t-24.5 3.5v39h301v-39q-11 -1 -23.5 -2.5t-20.5 -4.5q-24 -11 -24 -49v-212h112q7 75 37.5 135t77.5 101.5t108.5 64t130.5 22.5q75 0 138.5 -26t110 -73.5t72.5 -113t26 -144.5zM912 343q0 66 -8 124.5t-27.5 101.5t-53 68t-85.5 25q-53 0 -86 -25.5t-52 -68.5t-26 -99.5 t-7 -118.5q0 -72 8 -130.5t27.5 -99.5t52 -63.5t81.5 -22.5q55 0 89.5 27t53.5 71t26 99.5t7 111.5z" />
<glyph unicode="&#x42f;" horiz-adv-x="724" d="M446 293h-73l-175 -293h-209l3 40q32 5 54 22t47 55l128 203q-61 18 -98 62t-37 110q0 45 17 82.5t48.5 63.5t76 40.5t100.5 14.5h351v-39q-11 -1 -23 -2.5t-20 -5.5q-13 -6 -19 -17t-6 -31v-503q0 -37 25 -49q7 -3 18.5 -4t24.5 -3v-39h-301v39q11 1 23 2.5t20 5.5 q13 6 19 17t6 31v198zM255 494q0 -67 32.5 -107.5t105.5 -40.5h53v294h-48q-74 0 -108.5 -40.5t-34.5 -105.5z" />
<glyph unicode="&#x490;" horiz-adv-x="579" d="M364 693q33 0 57 8t42 25.5t31 45t23 65.5h42v-197h-281v-541q0 -38 27 -50q8 -4 22.5 -6t30.5 -4v-39h-313v39q11 1 23 2.5t20 4.5q25 12 25 49v495q0 23 -5 35.5t-19 19.5q-6 3 -16.5 5t-27.5 4v39h319z" />
<glyph unicode="&#x430;" horiz-adv-x="545" d="M34 0zM463 103q0 -37 13.5 -49.5t43.5 -12.5q4 -1 8 -0.5t9 0.5l1 -25q-20 -10 -49.5 -19.5t-69.5 -9.5q-32 0 -53 6.5t-33 18.5t-17 29t-5 38v4q-25 -39 -64 -67t-92 -28q-55 0 -88 32t-33 87q0 31 11.5 54.5t33 40.5t52.5 28.5t69 20.5l111 25v20q0 52 -20.5 78 t-78.5 26q-32 0 -74.5 -6t-87.5 -17v62q57 29 119.5 48t119.5 19q91 0 132.5 -48t41.5 -145v-210zM243 91q17 0 35 4.5t33 10.5v127l-57 -15q-38 -10 -59 -24t-21 -43q0 -31 19 -45.5t50 -14.5z" />
<glyph unicode="&#x431;" horiz-adv-x="620" d="M219 639q-8 -40 -13 -96t-8 -112q25 30 61.5 47t89.5 17q50 0 93 -15t74.5 -44.5t49.5 -72.5t18 -98q0 -56 -18.5 -107t-54 -89.5t-87.5 -61t-119 -22.5q-58 0 -104.5 16.5t-78.5 51t-49.5 89t-17.5 131.5q0 221 78.5 329.5t236.5 118.5l36 2q36 3 60.5 5t41 6t26.5 10.5 t17 17.5l20 -7q-7 -43 -24 -74t-42.5 -51.5t-57.5 -30.5t-68 -12q-58 -5 -98 13.5t-62 38.5zM422 231q0 94 -25 150t-85 56q-28 0 -46 -13t-29 -36t-15.5 -56.5t-4.5 -73.5q0 -46 5.5 -85.5t18 -68t33.5 -45t51 -16.5q51 0 74 47.5t23 140.5z" />
<glyph unicode="&#x432;" horiz-adv-x="587" d="M94 400q0 38 -25 48q-8 4 -17.5 5.5t-19.5 2.5v37h303q91 0 145 -30t54 -93q0 -52 -36.5 -82t-97.5 -38q69 -5 109 -31t40 -78q0 -74 -55 -107.5t-159 -33.5h-303v37q10 1 19.5 2.5t17.5 4.5q25 10 25 49v307zM246 227v-181h38q53 0 78.5 22t25.5 71q0 40 -24 64t-78 24 h-40zM246 447v-175h28q53 0 76 22.5t23 66.5q0 47 -24 66.5t-78 19.5h-25z" />
<glyph unicode="&#x433;" horiz-adv-x="480" d="M246 445v-352q0 -20 6 -31t19 -17q7 -3 15.5 -5t20.5 -3v-37h-275v37q10 1 19.5 2.5t17.5 4.5q25 10 25 49v307q0 38 -25 48q-8 4 -17.5 5.5t-19.5 2.5v37h423v-178h-32q-9 32 -19.5 56.5t-26.5 41t-38 24.5t-53 8h-40z" />
<glyph unicode="&#x434;" horiz-adv-x="613" d="M568 493v-37q-13 -2 -21.5 -3t-15.5 -5q-25 -10 -25 -48v-352h88v-199h-37q-8 39 -20 67t-30 46.5t-44.5 28t-64.5 9.5h-186q-40 0 -68 -9t-46.5 -27.5t-30.5 -47t-21 -67.5h-37v199h35q27 6 47.5 36.5t34.5 78t21.5 107.5t9.5 125q1 32 -15 45t-50 14v39h476zM218 445 q-7 -166 -27 -261.5t-57 -135.5h220v397h-136z" />
<glyph unicode="&#x435;" horiz-adv-x="536" d="M36 0zM481 61q-38 -34 -91 -55t-119 -21q-113 0 -174 62.5t-61 176.5q0 61 18 113t53 89.5t85.5 59t116.5 21.5q91 0 141 -43.5t53 -129.5q1 -9 0.5 -19t-1.5 -20l-28 -42h-293q1 -37 9.5 -67t25.5 -51.5t45.5 -33.5t70.5 -12q32 0 71.5 6.5t75.5 19.5zM277 449 q-45 0 -67.5 -41t-27.5 -105h169q1 8 1.5 16.5t0.5 17.5q0 51 -19 81.5t-57 30.5z" />
<glyph unicode="&#x436;" horiz-adv-x="875" d="M362 400q0 33 -17 43q-8 6 -18.5 9t-22.5 4v37h261v-37q-28 -3 -41 -15t-13 -41v-307q0 -29 13.5 -41.5t41.5 -14.5v-37h-258v37q29 2 41.5 14.5t12.5 41.5v307zM517 252l103 91q44 39 44 71q0 18 -12 30.5t-38 14.5v34h240v-34q-29 -5 -55.5 -21.5t-55.5 -40.5l-103 -90 l130 -177q13 -18 23.5 -31.5t21 -24t22.5 -20t30 -19.5l-6 -35h-173l-171 240v12zM355 239l-173 -239h-174v35q18 10 30.5 19.5t23.5 20t21.5 24l24.5 31.5l128 174l-106 93q-29 24 -55 40.5t-55 21.5v34h240v-34q-26 -2 -38 -14.5t-12 -30.5q0 -32 44 -71l103 -91z" />
<glyph unicode="&#x437;" horiz-adv-x="511" d="M222 -15q-104 0 -179 36l-4 137l37 4q26 -57 56.5 -90.5t79.5 -33.5q48 0 75 26t27 75q0 40 -23 64.5t-75 24.5h-66v47h60q86 0 86 87q0 47 -19.5 70t-65.5 23q-47 0 -74.5 -32t-50.5 -92l-38 4l5 135q76 37 178 37q50 0 91.5 -7.5t71 -24t46 -42t16.5 -62.5 q0 -53 -36.5 -83t-96.5 -38q69 -5 110 -30.5t41 -78.5q0 -38 -18.5 -67.5t-52 -49t-80 -29.5t-101.5 -10z" />
<glyph unicode="&#x438;" horiz-adv-x="679" d="M434 359l-211 -359h-191v37q10 1 19.5 2.5t17.5 4.5q25 10 25 49v307q0 38 -25 48q-8 4 -17.5 5.5t-19.5 2.5v37h275v-37q-25 -3 -36 -8q-13 -6 -19 -17t-6 -31v-269l210 362h191v-37q-12 -2 -21 -3t-16 -5q-24 -11 -24 -48v-307q0 -39 24 -49q12 -5 37 -7v-37h-275v37 q10 1 19.5 2.5t16.5 5.5q13 6 19.5 17t6.5 31v266z" />
<glyph unicode="&#x439;" horiz-adv-x="679" d="M32 0zM434 359l-211 -359h-191v37q10 1 19.5 2.5t17.5 4.5q25 10 25 49v307q0 38 -25 48q-8 4 -17.5 5.5t-19.5 2.5v37h275v-37q-25 -3 -36 -8q-13 -6 -19 -17t-6 -31v-269l210 362h191v-37q-12 -2 -21 -3t-16 -5q-24 -11 -24 -48v-307q0 -39 24 -49q12 -5 37 -7v-37 h-275v37q10 1 19.5 2.5t16.5 5.5q13 6 19.5 17t6.5 31v266zM516 717q-3 -29 -16 -53t-35.5 -41.5t-52.5 -27.5t-66 -10q-32 0 -61.5 8t-53 24.5t-38.5 41.5t-18 58h113q2 -38 19.5 -61t44.5 -23q35 0 49 24t19 60h96z" />
<glyph unicode="&#x43a;" horiz-adv-x="611" d="M94 400q0 38 -25 48q-8 4 -17.5 5.5t-19.5 2.5v37h267v-37q-28 -3 -40.5 -15t-12.5 -41v-307q0 -20 6 -31t19 -17q7 -3 15.5 -5t20.5 -3v-37h-275v37q10 1 19.5 2.5t17.5 4.5q25 10 25 49v307zM252 250l107 97q18 17 28.5 34.5t10.5 31.5q0 20 -12 32t-37 14v34h239v-34 q-29 -5 -55.5 -21.5t-54.5 -40.5l-103 -90l135 -177q13 -17 22.5 -30t19 -23.5t21.5 -20t30 -20.5l-5 -36h-174l-172 238v12z" />
<glyph unicode="&#x43b;" horiz-adv-x="599" d="M354 445h-138q-2 -116 -9.5 -201.5t-24 -141.5t-44.5 -84t-73 -28q-32 0 -47.5 18t-15.5 39q0 32 15.5 48.5t46.5 26.5q28 8 47 26.5t31 51t17 80.5t6 115q0 32 -16.5 45t-49.5 14v39h469v-37q-13 -2 -22 -3t-16 -5q-24 -11 -24 -48v-307q0 -39 24 -49q12 -5 38 -7v-37 h-276v37q10 1 19.5 2.5t17.5 5.5q13 6 19 17t6 31v352z" />
<glyph unicode="&#x43c;" horiz-adv-x="783" d="M395 211l149 282h207v-37q-13 -2 -21.5 -3t-15.5 -5q-25 -10 -25 -48v-307q0 -39 25 -49q13 -6 37 -7v-37h-276v37q11 1 20 2.5t17 5.5q13 6 19 17t6 31v274l-173 -329h-38l-173 327l1 -264q0 -40 24 -52q19 -9 46 -11v-38h-197v38l24.5 3.5t18.5 5.5q13 6 20 18.5 t7 35.5v282q0 39 -19 54q-16 15 -48 19v37h217z" />
<glyph unicode="&#x43d;" horiz-adv-x="675" d="M430 227h-184v-134q0 -20 6 -31t19 -17q7 -3 15.5 -5t20.5 -3v-37h-275v37q10 1 19.5 2.5t17.5 4.5q25 10 25 49v307q0 38 -25 48q-8 4 -17.5 5.5t-19.5 2.5v37h275v-37q-25 -3 -36 -8q-13 -6 -19 -17t-6 -31v-125h184v125q0 20 -6.5 31t-18.5 17q-16 6 -37 8v37h276v-37 q-13 -2 -22 -3t-16 -5q-24 -11 -24 -48v-307q0 -39 24 -49q12 -5 38 -7v-37h-276v37q10 1 19.5 2.5t17.5 5.5q12 6 18.5 17t6.5 31v134z" />
<glyph unicode="&#x43e;" horiz-adv-x="600" d="M35 0zM564 270q0 -58 -19 -110t-55 -91t-88.5 -61.5t-118.5 -22.5q-54 0 -99.5 15.5t-78.5 46t-51.5 76t-18.5 104.5q0 64 22 116t60.5 88.5t91 56t113.5 19.5q55 0 99.5 -16t76 -46.5t49 -74.5t17.5 -100zM402 237q0 48 -6 87t-19 66.5t-34 43t-51 15.5q-28 0 -46 -13 t-29 -37.5t-15.5 -58.5t-4.5 -76q0 -47 5.5 -87.5t18 -70t33.5 -46.5t51 -17q51 0 74 49.5t23 144.5z" />
<glyph unicode="&#x43f;" horiz-adv-x="665" d="M420 445h-174v-352q0 -20 6 -31t19 -17q7 -3 15.5 -5t20.5 -3v-37h-275v37q10 1 19.5 2.5t17.5 4.5q25 10 25 49v307q0 38 -25 48q-8 4 -17.5 5.5t-19.5 2.5v37h602v-37q-13 -2 -22 -3t-16 -5q-24 -11 -24 -48v-307q0 -39 24 -49q12 -5 38 -7v-37h-276v37q10 1 19.5 2.5 t17.5 5.5q12 6 18.5 17t6.5 31v352z" />
<glyph unicode="&#x440;" horiz-adv-x="623" d="M16 0zM89 397q0 24 -7 33t-33 9q-7 0 -16 -0.5t-17 -1.5v35q15 5 35.5 11t43.5 11.5t45.5 9t41.5 3.5q35 0 47 -15t12 -47v-23q42 51 84 67.5t78 16.5q45 0 79 -17t57.5 -47.5t35.5 -72.5t12 -92q0 -72 -24 -126t-67 -91t-102.5 -55.5t-129.5 -18.5h-12t-11 1v-111 q0 -22 10.5 -35t33.5 -15q1 0 7 -0.5t13.5 -1t15 -0.5h10.5v-41h-303v37q10 1 19.5 2.5t17.5 4.5q24 10 24 49v521zM313 412q-16 0 -33.5 -3.5t-38.5 -12.5v-342q30 -11 62 -11q34 0 59 16.5t41 43.5t23.5 63t7.5 75q0 81 -30 126t-91 45z" />
<glyph unicode="&#x441;" horiz-adv-x="515" d="M36 0zM474 61q-38 -34 -88.5 -55t-116.5 -21q-56 0 -99.5 17t-73 48.5t-45 76.5t-15.5 100q0 60 19 111t54.5 88.5t86.5 59t115 21.5q85 0 130.5 -29.5t45.5 -74.5q0 -32 -18 -52.5t-50 -20.5q-22 0 -35 9t-21.5 22t-14 29t-14 29t-21.5 22t-35 9q-24 0 -42 -14t-30 -38 t-18 -56.5t-6 -69.5q0 -41 7.5 -74.5t25 -57.5t46 -37t70.5 -13q29 0 66 6t75 20l2 -55v0z" />
<glyph unicode="&#x442;" horiz-adv-x="559" d="M204 445h-8q-32 0 -53.5 -8t-37 -24.5t-26 -41t-18.5 -56.5h-35v178h507v-178h-34q-9 32 -19 56.5t-25.5 41t-37.5 24.5t-53 8h-8v-352q0 -20 6.5 -31t18.5 -17q7 -3 15.5 -5t21.5 -3v-37h-276v37q11 1 20.5 2.5t16.5 4.5q25 10 25 49v352z" />
<glyph unicode="&#x443;" horiz-adv-x="571" d="M5 0zM569 457q-26 -6 -45.5 -26t-30.5 -46l-121 -270l-11 -25l-41 -92q-7 -16 -17.5 -39t-24.5 -48t-32.5 -49.5t-41.5 -44t-51.5 -31.5t-63.5 -12q-34 0 -49.5 14t-15.5 37q0 26 15.5 42.5t46.5 16.5q37 0 63 3t45.5 13t34.5 27.5t30 46.5l-8 18l-179 411q-11 27 -29 39 t-38 15v36h283v-36q-29 0 -44 -13.5t-7 -34.5l99 -251l85 207q17 43 1.5 65t-52.5 27v36h199v-36z" />
<glyph unicode="&#x444;" horiz-adv-x="843" d="M346 -16q-57 1 -112.5 12t-99.5 38.5t-71 75t-27 120.5q0 68 24 119.5t66 86.5t98.5 53.5t121.5 20.5v132q0 23 -6 32t-29 10h-19t-20 -1v35q15 5 35.5 11t43.5 11.5t45.5 9t40.5 3.5q36 0 48.5 -15t12.5 -48v-182q56 -1 111.5 -12.5t99.5 -39t71 -74.5t27 -120 q0 -69 -24 -120.5t-66 -86t-98.5 -52.5t-120.5 -20v-122q0 -38 25 -48q12 -7 36 -8v-37h-275v37q10 1 19.5 2t17.5 5q25 10 25 49v123zM197 260q0 -107 38.5 -162t110.5 -60v421q-33 -2 -60.5 -14t-47 -35.5t-30.5 -60.5t-11 -89zM646 232q0 106 -38 162t-110 61v-422 q33 2 60 14t46.5 35.5t30.5 60.5t11 89z" />
<glyph unicode="&#x445;" horiz-adv-x="571" d="M9 0zM483 89q34 -48 77 -54v-35h-273v35q29 0 36.5 15t-5.5 33l-79 108l-52 -66q-29 -38 -21.5 -62t41.5 -28v-35h-198v35q26 6 54 24.5t52 47.5l100 118l-129 178q-17 24 -32 37.5t-35 16.5v36h273v-36q-29 0 -41.5 -15t0.5 -33l83 -115l52 73q23 31 14 58t-43 32v36 h197v-36q-26 -6 -51 -26t-45 -46l-99 -126z" />
<glyph unicode="&#x446;" horiz-adv-x="679" d="M94 400q0 38 -25 48q-8 4 -17.5 5.5t-19.5 2.5v37h275v-37q-25 -3 -36 -8q-13 -6 -19 -17t-6 -31v-352h174v352q1 20 -6 31t-19 17q-16 6 -37 8v37h276v-37q-13 -2 -22 -3t-16 -5q-24 -11 -24 -48v-352h87v-199h-36q-9 39 -20.5 67t-29.5 46.5t-44.5 27.5t-63.5 10h-433 v37q10 1 19.5 2.5t17.5 4.5q25 10 25 49v307z" />
<glyph unicode="&#x447;" horiz-adv-x="648" d="M402 247q-11 -10 -27.5 -23.5t-39 -26t-51.5 -21.5t-64 -9q-65 0 -105.5 39t-40.5 128v66q0 20 -6 31t-19 17q-16 7 -37 8v37h276v-37q-13 -2 -21.5 -3t-15.5 -5q-25 -10 -25 -48v-27q0 -27 4.5 -48.5t15 -37.5t28.5 -24.5t46 -8.5t49.5 4t32.5 7v135q0 20 -6 31t-19 17 q-16 6 -36 8v37h275v-37q-13 -2 -21.5 -3t-15.5 -5q-25 -10 -25 -48v-307q0 -39 25 -49q13 -6 37 -7v-37h-275v37q10 1 19 2.5t17 5.5q13 6 19 17t6 31v154z" />
<glyph unicode="&#x448;" horiz-adv-x="951" d="M858 93q0 -39 24 -49q8 -3 17.5 -4.5t20.5 -2.5v-37h-888v37q10 1 19.5 2.5t17.5 4.5q25 10 25 49v307q0 38 -25 48q-8 4 -17.5 5.5t-19.5 2.5v37h272v-37q-27 -3 -39 -11q-19 -12 -19 -45v-352h154v352q0 34 -20 45q-16 9 -39 11v37h270v-37q-31 -3 -42 -13 q-17 -11 -17 -43v-352h154v352q0 34 -20 45q-12 8 -39 11v37h273v-37q-12 -1 -23 -4t-19 -8q-20 -11 -20 -44v-307z" />
<glyph unicode="&#x449;" horiz-adv-x="965" d="M858 48h88v-199h-37q-9 39 -20.5 67t-29.5 46.5t-44.5 27.5t-63.5 10h-719v37q10 1 19.5 2.5t17.5 4.5q25 10 25 49v307q0 38 -25 48q-8 4 -17.5 5.5t-19.5 2.5v37h272v-37q-27 -3 -39 -11q-19 -12 -19 -45v-352h154v352q0 34 -20 45q-16 9 -39 11v37h270v-37 q-31 -3 -42 -13q-17 -11 -17 -43v-352h154v352q0 34 -20 45q-12 8 -39 11v37h273v-37q-12 -1 -23 -4t-19 -8q-20 -11 -20 -44v-352z" />
<glyph unicode="&#x44a;" horiz-adv-x="692" d="M208 445h-12q-32 0 -54 -8t-37.5 -24.5t-26 -41t-19.5 -56.5h-33v178h396v-37q-26 -3 -37 -8q-13 -6 -19 -17t-6 -31v-92h89q47 0 87.5 -8t70.5 -25.5t47 -44.5t17 -65q0 -44 -17.5 -75t-49 -51t-76.5 -29.5t-100 -9.5h-282v37q10 1 19.5 2.5t17.5 4.5q25 10 25 49v352z M360 260v-212h38q108 0 108 107q0 53 -24.5 79t-81.5 26h-40z" />
<glyph unicode="&#x44b;" horiz-adv-x="851" d="M94 400q0 38 -25 48q-8 4 -17.5 5.5t-19.5 2.5v37h275v-37q-25 -3 -36 -8q-13 -6 -19 -17t-6 -31v-92h81q47 0 87.5 -8t70.5 -25.5t47 -44.5t17 -65q0 -44 -17.5 -75t-49 -51t-77 -29.5t-100.5 -9.5h-273v37q10 1 19.5 2.5t17.5 4.5q25 10 25 49v307zM605 400q0 20 -6 31 t-19 17q-16 7 -37 8v37h276v-37q-13 -2 -21.5 -3t-15.5 -5q-25 -10 -25 -48v-307q0 -39 25 -49q13 -6 37 -7v-37h-276v37q11 1 20 2.5t17 5.5q13 6 19 17t6 31v307zM246 260v-212h30q108 0 108 107q0 53 -25 79t-81 26h-32z" />
<glyph unicode="&#x44c;" horiz-adv-x="578" d="M94 400q0 38 -25 48q-8 4 -17.5 5.5t-19.5 2.5v37h275v-37q-25 -3 -36 -8q-13 -6 -19 -17t-6 -31v-92h89q47 0 87.5 -8t70.5 -25.5t47 -44.5t17 -65q0 -44 -17.5 -75t-49 -51t-77 -29.5t-100.5 -9.5h-281v37q10 1 19.5 2.5t17.5 4.5q25 10 25 49v307zM246 260v-212h38 q108 0 108 107q0 53 -25 79t-81 26h-40z" />
<glyph unicode="&#x44d;" horiz-adv-x="526" d="M212 455q-47 0 -77 -32t-53 -92l-38 4l5 135q38 18 85 27.5t98 9.5q122 0 190 -63t68 -180q0 -63 -20.5 -114.5t-58 -88t-89 -56.5t-113.5 -20q-41 0 -83.5 9t-80.5 27l-4 137l37 4q26 -57 60 -90t77 -33q30 0 51.5 14.5t35 39.5t19.5 59.5t7 74.5h-189v48h188 q-2 40 -9 73t-20.5 57t-34.5 37t-51 13z" />
<glyph unicode="&#x44e;" horiz-adv-x="878" d="M842 263q0 -57 -18 -107.5t-52.5 -88.5t-84.5 -60t-114 -22q-52 0 -96.5 15.5t-77.5 46t-52.5 76t-20.5 104.5h-80v-134q0 -20 6 -31t19 -17q7 -3 15.5 -5t20.5 -3v-37h-275v37q10 1 19.5 2.5t17.5 4.5q25 10 25 49v307q0 38 -25 48q-8 4 -17.5 5.5t-19.5 2.5v37h275v-37 q-25 -3 -36 -8q-13 -6 -19 -17t-6 -31v-125h82q7 54 30 97t59 73t83 46t101 16q55 0 99.5 -17t76 -48.5t48.5 -76.5t17 -102zM681 237q0 48 -5 87t-17 66.5t-32 43t-50 15.5q-28 0 -45.5 -13t-27 -37.5t-13 -58.5t-3.5 -76q0 -47 4.5 -87.5t16 -70t31.5 -46.5t50 -17 q51 0 71 49.5t20 144.5z" />
<glyph unicode="&#x44f;" horiz-adv-x="609" d="M13 0v33q16 12 27.5 21t21.5 19t21 23t25 32q22 29 43.5 54.5t35.5 41.5q-27 4 -50.5 13.5t-41 24.5t-27.5 37t-10 52q0 69 60.5 105.5t172.5 36.5h286v-37q-10 -1 -19.5 -2.5t-17.5 -5.5q-25 -10 -25 -48v-307q0 -39 25 -49q8 -3 17.5 -4.5t19.5 -2.5v-37h-276v37 q13 1 21.5 3t15.5 5q13 6 19 17t6 31v352h-33q-53 0 -80.5 -24.5t-27.5 -69.5q0 -54 26 -77t82 -23h20v-10l-177 -241h-160z" />
<glyph unicode="&#x451;" horiz-adv-x="536" d="M36 0zM120 672q0 37 22 52t51 15t50.5 -15t21.5 -52q0 -38 -21.5 -53.5t-50.5 -15.5t-51 15.5t-22 53.5zM313 672q0 37 21.5 52t50.5 15t51 -15t22 -52q0 -38 -22 -53.5t-51 -15.5t-50.5 15.5t-21.5 53.5zM481 61q-38 -34 -91 -55t-119 -21q-113 0 -174 62.5t-61 176.5 q0 61 18 113t53 89.5t85.5 59t116.5 21.5q91 0 141 -43.5t53 -129.5q1 -9 0.5 -19t-1.5 -20l-28 -42h-293q1 -37 9.5 -67t25.5 -51.5t45.5 -33.5t70.5 -12q32 0 71.5 6.5t75.5 19.5zM277 449q-45 0 -67.5 -41t-27.5 -105h169q1 8 1.5 16.5t0.5 17.5q0 51 -19 81.5t-57 30.5z " />
<glyph unicode="&#x452;" horiz-adv-x="631" d="M-9 600h95v48q0 23 -5.5 32t-28.5 11q-8 0 -18.5 -0.5t-20.5 -1.5v35q15 5 35.5 11t43.5 11.5t45.5 9t40.5 3.5q36 0 48 -15t12 -47v-97h156v-50h-156v-156q39 40 85 65.5t100 25.5q75 0 110 -41.5t35 -133.5v-238q0 -66 -14 -111t-42 -72t-70.5 -37.5t-98.5 -7.5v38 q16 1 29 9t22.5 27t15 51t5.5 83l1 215q0 28 -3.5 51t-13.5 38.5t-28.5 24t-47.5 8.5q-22 0 -41 -4t-44 -14v-278q0 -20 6.5 -31t19.5 -17q7 -3 15 -5t21 -3v-37h-275v37q10 1 19.5 2.5t17.5 4.5q24 10 24 49v457h-95v50z" />
<glyph unicode="&#x453;" horiz-adv-x="480" d="M32 0zM445 735l-174 -164h-32l-4 10l77 165h129zM246 445v-352q0 -20 6 -31t19 -17q7 -3 15.5 -5t20.5 -3v-37h-275v37q10 1 19.5 2.5t17.5 4.5q25 10 25 49v307q0 38 -25 48q-8 4 -17.5 5.5t-19.5 2.5v37h423v-178h-32q-9 32 -19.5 56.5t-26.5 41t-38 24.5t-53 8h-40z " />
<glyph unicode="&#x454;" horiz-adv-x="526" d="M314 40q46 0 76.5 33.5t53.5 93.5l37 -4l-5 -141q-38 -18 -84.5 -27.5t-97.5 -9.5q-122 0 -190 63t-68 180q0 63 20.5 114.5t57.5 88t89 56.5t114 20q38 0 81.5 -9t81.5 -27l5 -131l-38 -4q-56 116 -141 116q-28 0 -48 -13.5t-33 -37t-19.5 -56t-7.5 -70.5h188v-48h-188 q1 -42 7.5 -76.5t20 -59t35 -38t53.5 -13.5z" />
<glyph unicode="&#x456;" horiz-adv-x="333" d="M23 0zM249 93q0 -20 6 -31t19 -17q7 -3 15.5 -5t20.5 -3v-37h-275v37q10 1 19.5 2.5t17.5 4.5q25 10 25 49v304q0 23 -6.5 32t-30.5 10q-8 0 -18.5 -0.5t-18.5 -1.5v35q15 5 35.5 11t43.5 11.5t45.5 9t40.5 3.5q36 0 48.5 -15t12.5 -47v-352zM86 684q0 41 24 58t56 17 t56.5 -17t24.5 -58q0 -42 -24.5 -59t-56.5 -17t-56 17.5t-24 58.5z" />
<glyph unicode="&#x457;" horiz-adv-x="333" d="M0 0zM-6 672q0 37 22 52t51 15t50.5 -15t21.5 -52q0 -38 -21.5 -53.5t-50.5 -15.5t-51 15.5t-22 53.5zM187 672q0 37 21.5 52t50.5 15t51 -15t22 -52q0 -38 -22 -53.5t-51 -15.5t-50.5 15.5t-21.5 53.5zM249 93q0 -20 6 -31t19 -17q7 -3 15.5 -5t20.5 -3v-37h-275v37 q10 1 19.5 2.5t17.5 4.5q25 10 25 49v304q0 24 -7 33t-33 9q-8 0 -17 -0.5t-17 -1.5v35q15 5 35.5 11t43.5 11.5t45.5 9t40.5 3.5q36 0 48.5 -15t12.5 -47v-352z" />
<glyph unicode="&#x458;" horiz-adv-x="309" d="M0 0zM89 397q0 24 -7 33t-35 9q-7 0 -15.5 -0.5t-15.5 -1.5v35q15 5 35.5 11t43.5 11.5t45.5 9t40.5 3.5q36 0 48 -15t12 -47v-301q0 -64 -20 -129.5t-55.5 -119t-83 -87.5t-102.5 -34q-37 0 -53.5 20t-16.5 42t15 39t41 17q22 0 31 -8.5t14 -19t9 -18.5t15 -8 q30 5 42 42t12 104v413zM83 683q0 42 24.5 59t56.5 17t56 -17t24 -59q0 -21 -6.5 -35t-17.5 -23t-25.5 -13t-30.5 -4q-32 0 -56.5 17t-24.5 58z" />
<glyph unicode="&#x459;" horiz-adv-x="838" d="M354 445h-138q-2 -116 -9.5 -201.5t-24 -141.5t-44.5 -84t-73 -28q-32 0 -47.5 18t-15.5 39q0 32 15.5 48.5t46.5 26.5q28 8 47 26.5t31 51t17 80.5t6 115q0 32 -16.5 45t-49.5 14v39h469v-37q-26 -3 -37 -8q-13 -6 -19 -17t-6 -31v-92h89q47 0 87.5 -8t70.5 -25.5 t47 -44.5t17 -65q0 -44 -17.5 -75t-49 -51t-76.5 -29.5t-100 -9.5h-282v37q10 1 19.5 2.5t17.5 4.5q25 10 25 49v352zM506 260v-212h39q107 0 107 107q0 53 -24.5 79t-80.5 26h-41z" />
<glyph unicode="&#x45a;" horiz-adv-x="913" d="M430 227h-184v-134q0 -20 6 -31t19 -17q7 -3 15.5 -5t20.5 -3v-37h-275v37q10 1 19.5 2.5t17.5 4.5q25 10 25 49v307q0 38 -25 48q-8 4 -17.5 5.5t-19.5 2.5v37h275v-37q-25 -3 -36 -8q-13 -6 -19 -17t-6 -31v-125h184v125q0 38 -25 48q-8 4 -17.5 5.5t-19.5 2.5v37h276 v-37q-26 -3 -37 -8q-13 -6 -19 -17t-6 -31v-101h89q47 0 87.5 -8t70.5 -25t47 -43t17 -62q0 -42 -17.5 -72.5t-49 -50t-76.5 -29t-100 -9.5h-282v37q10 1 19.5 2.5t17.5 4.5q25 10 25 49v134zM582 251v-203h38q108 0 108 103q0 50 -24.5 75t-81.5 25h-40z" />
<glyph unicode="&#x45b;" horiz-adv-x="647" d="M-9 600h95v48q0 23 -5.5 32t-28.5 11q-8 0 -18.5 -0.5t-20.5 -1.5v35q15 5 35.5 11t43.5 11.5t45.5 9t40.5 3.5q36 0 48 -15t12 -47v-97h156v-50h-156v-156q39 40 85 65.5t100 25.5q75 0 110 -41.5t35 -133.5v-217q0 -20 6.5 -31t18.5 -17q7 -3 15.5 -5t21.5 -3v-37h-276 v37q10 1 20 2.5t17 4.5q25 10 25 49v174q-1 28 -4.5 51t-13.5 38.5t-28 24t-47 8.5q-22 0 -41 -4t-44 -14v-278q0 -20 6.5 -31t19.5 -17q7 -3 15 -5t21 -3v-37h-275v37q10 1 19.5 2.5t17.5 4.5q24 10 24 49v457h-95v50z" />
<glyph unicode="&#x45c;" horiz-adv-x="611" d="M32 0zM496 735l-174 -164h-32l-4 10l77 165h129zM94 400q0 38 -25 48q-8 4 -17.5 5.5t-19.5 2.5v37h267v-37q-28 -3 -40.5 -15t-12.5 -41v-307q0 -20 6 -31t19 -17q7 -3 15.5 -5t20.5 -3v-37h-275v37q10 1 19.5 2.5t17.5 4.5q25 10 25 49v307zM252 250l107 97 q18 17 28.5 34.5t10.5 31.5q0 20 -12 32t-37 14v34h239v-34q-29 -5 -55.5 -21.5t-54.5 -40.5l-103 -90l135 -177q13 -17 22.5 -30t19 -23.5t21.5 -20t30 -20.5l-5 -36h-174l-172 238v12z" />
<glyph unicode="&#x45e;" horiz-adv-x="571" d="M5 0zM569 457q-26 -6 -45.5 -26t-30.5 -46l-121 -270l-11 -25l-41 -92q-7 -16 -17.5 -39t-24.5 -48t-32.5 -49.5t-41.5 -44t-51.5 -31.5t-63.5 -12q-34 0 -49.5 14t-15.5 37q0 26 15.5 42.5t46.5 16.5q37 0 63 3t45.5 13t34.5 27.5t30 46.5l-8 18l-179 411q-11 27 -29 39 t-38 15v36h283v-36q-29 0 -44 -13.5t-7 -34.5l99 -251l85 207q17 43 1.5 65t-52.5 27v36h199v-36zM491 717q-3 -29 -16 -53t-35.5 -41.5t-52.5 -27.5t-66 -10q-32 0 -61.5 8t-53 24.5t-38.5 41.5t-18 58h113q2 -38 19.5 -61t44.5 -23q35 0 49 24t19 60h96z" />
<glyph unicode="&#x45f;" horiz-adv-x="665" d="M417 0q-20 0 -39 -38.5t-30 -121.5h-40q-11 83 -25 121.5t-34 38.5h-217v37q10 1 19.5 2.5t17.5 4.5q25 10 25 49v307q0 38 -25 48q-8 4 -17.5 5.5t-19.5 2.5v37h275v-37q-25 -3 -36 -8q-13 -6 -19 -17t-6 -31v-352h174v352q0 20 -6.5 31t-18.5 17q-16 6 -37 8v37h276 v-37q-13 -2 -22 -3t-16 -5q-24 -11 -24 -48v-307q0 -39 24 -49q12 -5 38 -7v-37h-217v0z" />
<glyph unicode="&#x463;" horiz-adv-x="689" d="M350 445v-146h89q47 0 87.5 -7.5t70.5 -24t47 -42.5t17 -64q0 -44 -17.5 -74.5t-49 -50t-77 -28t-100.5 -8.5h-281v37q10 1 19.5 2.5t17.5 4.5q25 10 25 49v352h-13q-27 0 -46.5 -8t-34 -24.5t-24.5 -41t-18 -56.5h-35v178h171v155q0 23 -6 32t-29 11q-8 0 -19 -0.5 t-20 -1.5v35q15 5 35.5 11t43.5 11.5t45.5 9t40.5 3.5q36 0 48.5 -15t12.5 -47v-204h177v-158h-34q-9 31 -19.5 52t-25.5 34t-35.5 18.5t-48.5 5.5h-14zM350 251v-203h38q55 0 81.5 24.5t26.5 78.5q0 52 -24.5 76t-81.5 24h-40z" />
<glyph unicode="&#x491;" horiz-adv-x="466" d="M94 400q0 38 -25 48q-8 4 -17.5 5.5t-19.5 2.5v37h244q31 0 53 8t38 24.5t26.5 40.5t19.5 57h32v-178h-199v-352q0 -20 6 -31t19 -17q7 -3 15.5 -5t20.5 -3v-37h-275v37q10 1 19.5 2.5t17.5 4.5q25 10 25 49v307z" />
<glyph horiz-adv-x="581" d="M292 -15q-117 0 -179 87.5t-62 280.5q0 205 69.5 305.5t203.5 100.5q51 0 89.5 -13.5t64 -37.5t38.5 -56.5t13 -70.5q0 -71 -42.5 -114t-117.5 -56q36 -3 68 -16.5t56 -36.5t38.5 -56.5t14.5 -76.5q0 -58 -18 -102.5t-51 -75t-80 -46.5t-105 -16zM300 41q45 0 65.5 43 t20.5 131q0 89 -30 124.5t-95 33.5q-9 0 -23 -1t-26 -3q0 -84 3 -146t12.5 -102.5t27 -60t45.5 -19.5zM299 704q-27 0 -44 -17.5t-26.5 -52.5t-13 -89t-3.5 -126q16 2 32.5 3t21.5 3q103 18 103 137q0 63 -16 102.5t-54 39.5z" />
<glyph horiz-adv-x="476" d="M36 116q0 32 12 55.5t30.5 41.5t42 32t47.5 27q21 11 39.5 22.5t32.5 25.5t22 31.5t8 41.5q0 29 -17.5 45.5t-47.5 16.5q-21 0 -37 -7.5t-28 -23t-22.5 -38.5t-21.5 -54l-40 3l5 135q34 17 81.5 27t106.5 10q38 0 71 -7t57 -22.5t38 -40t14 -59.5q0 -33 -11.5 -57.5 t-30 -43.5t-41 -33t-44.5 -26q-20 -11 -39 -22t-34 -23.5t-24 -28.5t-9 -38q0 -32 22 -50t58 -18q24 0 41.5 7.5t31 23t25 38.5t22.5 54l37 -4l-5 -135q-35 -19 -86 -28t-111 -9q-42 0 -77.5 7t-61.5 22.5t-41 40.5t-15 61z" />
<glyph horiz-adv-x="605" d="M380 91q-28 -38 -65 -62t-87 -24q-41 0 -76 16.5t-60.5 47.5t-40.5 74t-15 96q0 66 23.5 116t63 84t91 51t107.5 17q35 0 66 -7t58 -18l64 21h23v-449q0 -68 -21 -120t-58 -87.5t-87.5 -53.5t-109.5 -18q-46 0 -89.5 9t-81.5 27l-5 137l38 4q13 -29 26 -51.5t29 -38.5 t36.5 -24.5t48.5 -8.5q67 0 94.5 45t27.5 130v87zM305 100q23 0 40.5 5t34.5 15v313q-35 16 -70 16q-62 0 -92 -41.5t-30 -131.5q0 -81 29.5 -128.5t87.5 -47.5z" />
<glyph horiz-adv-x="875" d="M362 648q0 23 -6 32t-29 11q-8 0 -18.5 -0.5t-20.5 -1.5v35q15 5 36 11t44 11.5t45.5 9t40.5 3.5q36 0 46.5 -15t10.5 -47v-604q0 -31 18 -44q7 -5 16.5 -7.5t23.5 -4.5v-37h-266v37q12 1 22.5 3.5t18.5 7.5q18 11 18 45v555zM517 252l103 91q44 39 44 71q0 18 -12 30.5 t-38 14.5v34h240v-34q-29 -5 -55.5 -21.5t-55.5 -40.5l-103 -90l130 -177q13 -18 23.5 -31.5t21 -24t22.5 -20t30 -19.5l-6 -35h-173l-171 240v12zM355 239l-173 -239h-174v35q18 10 30.5 19.5t23.5 20t21.5 24l24.5 31.5l128 174l-106 93q-29 24 -55 40.5t-55 21.5v34h240 v-34q-26 -2 -38 -14.5t-12 -30.5q0 -32 44 -71l103 -91z" />
<glyph horiz-adv-x="465" d="M177 -225q-53 0 -93 9t-78 27l-5 137l38 4q13 -29 25.5 -52t27.5 -39t34 -25t45 -9q48 0 74.5 42t26.5 120q0 43 -8 72.5t-23 47.5t-36 25.5t-48 6.5q-5 0 -15 -0.5t-15 -1.5l-9 35v8l35 6q98 24 98 142q0 125 -82 125q-44 0 -66 -31.5t-44 -92.5l-38 4l5 135 q35 19 75 28t91 9q104 0 162 -43t58 -125q0 -66 -45.5 -109t-123.5 -54q39 -3 73.5 -15.5t60 -34.5t40.5 -54.5t15 -75.5q0 -53 -19 -94t-53 -69t-81 -43t-102 -15z" />
<glyph horiz-adv-x="644" d="M403 397q0 23 -6.5 32t-30.5 10q-8 0 -18.5 -0.5t-18.5 -1.5v35q15 5 35.5 11t43.5 11.5t45.5 9t40.5 3.5q36 0 48.5 -15t12.5 -47v-342q0 -42 17.5 -53t56.5 -9l1 -25q-20 -10 -49.5 -19.5t-69.5 -9.5q-62 0 -84.5 23t-23.5 61q-38 -40 -79 -63t-97 -23q-73 0 -108 42 t-35 134v236q0 24 -7 33t-35 9q-7 0 -15.5 -0.5t-15.5 -1.5v35q15 5 35.5 11t43.5 11.5t45.5 9t40.5 3.5q36 0 48 -15t12 -47v-246q0 -27 4.5 -47.5t15 -35t29 -22t47.5 -7.5q32 0 71 13v297z" />
<glyph horiz-adv-x="644" d="M11 0zM403 397q0 23 -6.5 32t-30.5 10q-8 0 -18.5 -0.5t-18.5 -1.5v35q15 5 35.5 11t43.5 11.5t45.5 9t40.5 3.5q36 0 48.5 -15t12.5 -47v-342q0 -42 17.5 -53t56.5 -9l1 -25q-20 -10 -49.5 -19.5t-69.5 -9.5q-62 0 -84.5 23t-23.5 61q-38 -40 -79 -63t-97 -23 q-73 0 -108 42t-35 134v236q0 24 -7 33t-35 9q-7 0 -15.5 -0.5t-15.5 -1.5v35q15 5 35.5 11t43.5 11.5t45.5 9t40.5 3.5q36 0 48 -15t12 -47v-246q0 -27 4.5 -47.5t15 -35t29 -22t47.5 -7.5q32 0 71 13v297v0zM489 717q-3 -29 -16 -53t-35.5 -41.5t-52.5 -27.5t-66 -10 q-32 0 -61.5 8t-53 24.5t-38.5 41.5t-18 58h113q2 -38 19.5 -61t44.5 -23q35 0 49 24t19 60h96z" />
<glyph horiz-adv-x="604" d="M13 0zM86 648q0 24 -6.5 33t-30.5 10q-8 0 -18 -0.5t-18 -1.5v35q15 5 35.5 11t43.5 11.5t45.5 9t40.5 3.5q36 0 48 -15t12 -47v-604q0 -20 6.5 -31t19.5 -17q7 -3 15 -5t21 -3v-37h-275v37q10 1 19.5 2.5t17.5 4.5q24 10 24 49v555zM244 258l110 92q18 16 27.5 32 t9.5 30q1 20 -15.5 33t-47.5 14v34h253v-34q-29 -4 -55.5 -21t-55.5 -41l-101 -85l127 -182q13 -18 23.5 -31.5t21.5 -24t24.5 -19.5t31.5 -19l-5 -36h-184l-164 246v12z" />
<glyph horiz-adv-x="585" d="M248 332l-58 -182q-15 -42 -28 -72.5t-27 -50.5t-31.5 -30t-42.5 -10q-17 0 -28.5 5t-18.5 13t-10 17.5t-3 18.5q0 29 17.5 44t45.5 20q17 3 29.5 11t23 22t20 34t20.5 47l109 282h68l180 -412q12 -26 29.5 -38.5t37.5 -15.5v-35h-283v35q29 0 44 13.5t7 34.5z" />
<glyph horiz-adv-x="662" d="M23 0zM249 93q0 -20 6 -31t19 -17q7 -3 15.5 -5t20.5 -3v-37h-275v37q10 1 19.5 2.5t17.5 4.5q25 10 25 49v304q0 23 -6.5 32t-30.5 10q-8 0 -18.5 -0.5t-18.5 -1.5v35q15 5 35.5 11t43.5 11.5t45.5 9t40.5 3.5q36 0 48.5 -15t12.5 -47v-28q38 40 84 65t100 25 q75 0 110 -41.5t35 -133.5v-239q0 -20 6.5 -31t18.5 -17q7 -3 15.5 -5t21.5 -3v-37h-276v37q11 1 20.5 2.5t17.5 4.5q24 10 24 49v196q0 28 -3.5 51t-13.5 38.5t-28.5 24t-47.5 8.5q-21 0 -40.5 -4t-43.5 -13v-301v0z" />
<glyph horiz-adv-x="985" d="M23 0zM249 93q0 -20 6 -31t19 -17q7 -3 15.5 -5t20.5 -3v-37h-275v37q10 1 19.5 2.5t17.5 4.5q25 10 25 49v304q0 24 -7 33t-33 9q-8 0 -17 -0.5t-17 -1.5v35q15 5 35.5 11t43.5 11.5t45.5 9t40.5 3.5q36 0 48.5 -15t12.5 -47v-28q38 40 84 65t100 25q56 0 88.5 -22.5 t46.5 -71.5q40 42 86.5 68t102.5 26q75 0 109.5 -41.5t34.5 -133.5v-239q0 -20 6.5 -31t19.5 -17q7 -3 15 -5t21 -3v-37h-275v37q10 1 19.5 2.5t17.5 4.5q24 10 24 49v196q0 28 -3.5 51t-13.5 38.5t-28.5 24t-47.5 8.5q-21 0 -40 -4t-43 -13q2 -14 3.5 -29.5t1.5 -32.5v-239 q0 -20 6.5 -31t18.5 -17q7 -3 15.5 -5t21.5 -3v-37h-276v37q11 1 20.5 2.5t17.5 4.5q24 10 24 49v196q0 28 -3.5 51t-13.5 38.5t-28.5 24t-47.5 8.5q-21 0 -40.5 -4t-43.5 -13v-301v0z" />
<glyph horiz-adv-x="649" d="M403 71q-38 -40 -79 -63t-97 -23q-73 0 -108 42t-35 134v236q0 24 -7 33t-35 9q-7 0 -15.5 -0.5t-15.5 -1.5v35q15 5 35.5 11t43.5 11.5t45.5 9t40.5 3.5q36 0 48 -15t12 -47v-246q0 -27 4.5 -47.5t15 -35t29 -22t47.5 -7.5q32 0 71 13v297q0 23 -6.5 32t-30.5 10 q-8 0 -18.5 -0.5t-18.5 -1.5v35q15 5 35.5 11t43.5 11.5t45.5 9t40.5 3.5q36 0 48.5 -15t12.5 -47v-397h87v-199h-37q-9 39 -18 67.5t-22.5 47t-33 27.5t-47.5 9h-32l-1 2l-48 -2v71z" />
<glyph horiz-adv-x="941" d="M328 87q18 0 33.5 3t34.5 11q-2 14 -3 28.5t-1 31.5v236q0 24 -5.5 33t-33.5 9q-7 0 -16 -0.5t-16 -1.5v35q15 5 35.5 11t42.5 11.5t44 9t40 3.5q36 0 48.5 -15t12.5 -47v-246q0 -27 3.5 -47.5t13.5 -35t27.5 -22t46.5 -7.5q17 0 31.5 3t33.5 10v297q0 23 -5 32t-29 10 q-8 0 -18.5 -0.5t-18.5 -1.5v35q15 5 35 11t42.5 11.5t44.5 9t40 3.5q36 0 48.5 -15t12.5 -47v-342q0 -42 17 -53t56 -9l1 -25q-19 -10 -49 -19.5t-69 -9.5q-31 0 -51.5 6t-32.5 17t-17.5 26t-6.5 34q-36 -39 -75 -62t-95 -23q-102 0 -129 95q-39 -44 -79.5 -69.5 t-98.5 -25.5q-70 0 -104.5 42t-34.5 134v236q0 24 -7 33t-35 9q-7 0 -15.5 -0.5t-15.5 -1.5v35q15 5 35.5 11t43.5 11.5t45.5 9t40.5 3.5q36 0 48 -15t12 -47v-246q0 -27 4 -47.5t14.5 -35t28 -22t45.5 -7.5z" />
<glyph horiz-adv-x="946" d="M700 70q-36 -39 -75 -62t-95 -23q-102 0 -129 95q-39 -44 -79.5 -69.5t-98.5 -25.5q-70 0 -104.5 42t-34.5 134v236q0 24 -7 33t-35 9q-7 0 -15.5 -0.5t-15.5 -1.5v35q15 5 35.5 11t43.5 11.5t45.5 9t40.5 3.5q36 0 48 -15t12 -47v-246q0 -27 4 -47.5t14.5 -35t28 -22 t45.5 -7.5q18 0 33.5 3t34.5 11q-2 14 -3 28.5t-1 31.5v236q0 24 -5.5 33t-33.5 9q-7 0 -16 -0.5t-16 -1.5v35q15 5 35.5 11t42.5 11.5t44 9t40 3.5q36 0 48.5 -15t12.5 -47v-246q0 -27 3.5 -47.5t13.5 -35t27.5 -22t46.5 -7.5q17 0 31.5 3t33.5 10v297q0 23 -6.5 32 t-30.5 10q-8 0 -18.5 -0.5t-18.5 -1.5v35q15 5 35.5 11t43.5 11.5t45.5 9t40.5 3.5q36 0 48.5 -15t12.5 -47v-397h87v-199h-37q-9 39 -18 67.5t-22.5 47t-33 27.5t-47.5 9h-31l-1 2l-49 -2v70z" />
<glyph horiz-adv-x="601" d="M117 176q0 53 16.5 96t39.5 76.5t49 57.5t46 39h-67q-33 0 -56 -8t-39 -24t-26.5 -40.5t-19.5 -57.5h-32v178h342v-30q-26 -29 -48 -68t-36 -88q14 2 32 3t44 1q44 0 83.5 -7.5t69.5 -25t47.5 -45.5t17.5 -68q0 -46 -18.5 -79.5t-50.5 -56t-76.5 -33.5t-96.5 -11 q-102 0 -161.5 45.5t-59.5 145.5zM324 263q-32 0 -48 -3q-4 -20 -5.5 -40.5t-1.5 -42.5q-1 -72 14.5 -108t55.5 -36q38 0 59 31.5t21 91.5q0 51 -23.5 79t-71.5 28z" />
<glyph horiz-adv-x="566" d="M234 308q11 2 33 4.5t56 2.5q50 0 91 -9t70 -27t45 -46t16 -66q0 -46 -18 -80t-50.5 -56.5t-77 -34t-96.5 -11.5q-102 0 -161.5 40.5t-59.5 132.5v239q0 24 -7.5 33t-34.5 9q-7 0 -16 -0.5t-16 -1.5v35q15 5 35.5 11t43.5 11.5t45.5 9t40.5 3.5q36 0 48.5 -15t12.5 -47 v-137zM289 267q-19 0 -33 -1t-22 -3v-108q0 -58 15 -90t55 -32t60 32.5t20 92.5q0 52 -23.5 80.5t-71.5 28.5z" />
<glyph horiz-adv-x="869" d="M86 648q0 23 -5.5 32t-28.5 11q-8 0 -19 -0.5t-20 -1.5v35q15 5 35.5 11t43.5 11.5t45.5 9t40.5 3.5q36 0 48 -15t12 -47v-422h81q7 54 30 97t59 73t82.5 46t100.5 16q55 0 100 -17t76.5 -48.5t48.5 -76.5t17 -102t-18 -107.5t-52.5 -88.5t-84.5 -60t-114 -22 q-52 0 -96.5 15.5t-77.5 46t-52.5 76t-20.5 104.5h-79v-134q0 -20 6.5 -31t19.5 -17q7 -3 15 -5t21 -3v-37h-275v37q10 1 19.5 2.5t17.5 4.5q24 10 24 49v555zM672 237q0 48 -5 87t-17 66.5t-32 43t-50 15.5q-28 0 -45.5 -13t-27 -37.5t-13 -58.5t-3.5 -76q0 -47 4.5 -87.5 t16 -70t31.5 -46.5t50 -17q51 0 71 49.5t20 144.5z" />
<glyph horiz-adv-x="480" d="M32 0zM246 445v-352q0 -20 6 -31t19 -17q7 -3 15.5 -5t20.5 -3v-37h-275v37q10 1 19.5 2.5t17.5 4.5q25 10 25 49v307q0 38 -25 48q-8 4 -17.5 5.5t-19.5 2.5v37h423v-178h-32q-9 32 -19.5 56.5t-26.5 41t-38 24.5t-53 8h-40z" />
<glyph horiz-adv-x="599" d="M564 254q0 -56 -19 -105t-55 -85.5t-88.5 -57.5t-118.5 -21q-54 0 -99.5 15t-78.5 44t-51.5 71.5t-18.5 98.5q0 60 19 107.5t53.5 80.5t82.5 51t105 18q8 0 15 -0.5t14 -1.5q-45 18 -90.5 32t-82.5 31.5t-60.5 42.5t-23.5 65q0 46 36 75t105 29h194q44 0 65.5 11t32.5 28 h37l-32 -157h-281q-23 0 -35.5 -7.5t-12.5 -19.5q0 -18 28.5 -30.5t72 -27.5t93.5 -35.5t93.5 -53t72 -80.5t28.5 -118zM402 221q0 91 -25 143.5t-85 52.5q-28 0 -46 -11.5t-29 -33.5t-15.5 -53t-4.5 -71q0 -45 5.5 -82.5t18 -65t33.5 -42.5t51 -15q51 0 74 43.5t23 134.5z " />
<glyph horiz-adv-x="613" d="M9 0zM568 493v-37q-13 -2 -21.5 -3t-15.5 -5q-25 -10 -25 -48v-352h88v-199h-37q-8 39 -20 67t-30 46.5t-44.5 28t-64.5 9.5h-186q-40 0 -68 -9t-46.5 -27.5t-30.5 -47t-21 -67.5h-37v199h35q27 6 47.5 36.5t34.5 78t21.5 107.5t9.5 125q1 32 -15 45t-50 14v39h476z M218 445q-7 -166 -27 -261.5t-57 -135.5h220v397h-136z" />
<glyph horiz-adv-x="665" d="M32 0zM420 445h-174v-352q0 -20 6 -31t19 -17q7 -3 15.5 -5t20.5 -3v-37h-275v37q10 1 19.5 2.5t17.5 4.5q25 10 25 49v307q0 38 -25 48q-8 4 -17.5 5.5t-19.5 2.5v37h602v-37q-13 -2 -22 -3t-16 -5q-24 -11 -24 -48v-307q0 -39 24 -49q12 -5 38 -7v-37h-276v37 q10 1 19.5 2.5t17.5 5.5q12 6 18.5 17t6.5 31v352z" />
<glyph horiz-adv-x="559" d="M26 0zM204 445h-8q-32 0 -53.5 -8t-37 -24.5t-26 -41t-18.5 -56.5h-35v178h507v-178h-34q-9 32 -19 56.5t-25.5 41t-37.5 24.5t-53 8h-8v-352q0 -20 6.5 -31t18.5 -17q7 -3 15.5 -5t21.5 -3v-37h-276v37q11 1 20.5 2.5t16.5 4.5q25 10 25 49v352z" />
<glyph unicode="&#xb4;" horiz-adv-x="427" d="M361 735l-174 -164h-32l-4 10l77 165h129z" />
<glyph unicode="`" horiz-adv-x="427" d="M118 746h128l83 -165l-4 -10h-38l-173 164z" />
<glyph unicode="&#x2c6;" horiz-adv-x="502" d="M414 578l-4 -11h-62l-91 91l-86 -91h-40l-4 11l110 164h64z" />
<glyph unicode="&#xa8;" horiz-adv-x="477" d="M67 672q0 37 22 52t51 15t50.5 -15t21.5 -52q0 -38 -21.5 -53.5t-50.5 -15.5t-51 15.5t-22 53.5zM260 672q0 37 21.5 52t50.5 15t51 -15t22 -52q0 -38 -22 -53.5t-51 -15.5t-50.5 15.5t-21.5 53.5z" />
<glyph unicode="&#x2dc;" horiz-adv-x="467" d="M382 719q-1 -57 -24.5 -89t-68.5 -32q-21 0 -40 5.5t-35.5 12.5t-30 12.5t-24.5 5.5q-14 0 -25.5 -9.5t-16.5 -30.5h-37q0 24 6 46t16.5 38.5t27 26.5t37.5 10q18 0 35.5 -5.5t34 -12t31.5 -12t29 -5.5q17 0 29.5 9t15.5 30h40z" />
<glyph unicode="&#x2d9;" horiz-adv-x="322" d="M81 683q0 42 24.5 59t56.5 17t56 -17t24 -59t-24 -58.5t-56 -16.5t-56.5 17t-24.5 58z" />
<glyph unicode="&#xb8;" horiz-adv-x="504" d="M357 -139q0 -42 -35 -64.5t-95 -22.5q-21 0 -40 2.5t-37 7.5v62q14 -5 34.5 -10t39.5 -5q17 0 29 6t12 21q0 19 -15.5 24.5t-31.5 6.5q-8 0 -13.5 -0.5t-10.5 -1.5v121h54v-66q19 0 38.5 -4.5t35.5 -14.5t25.5 -25.5t9.5 -36.5z" />
<glyph unicode="&#x2db;" horiz-adv-x="585" d="M480 -217q-38 -8 -70 -8q-57 0 -88.5 26t-31.5 71q0 19 10.5 39.5t30 39.5t46.5 35.5t60 28.5l19 -1q-32 -23 -49.5 -52t-17.5 -64q0 -31 14.5 -50t44.5 -19q6 0 14.5 1t17.5 3v-50z" />
<glyph unicode="&#x2c7;" horiz-adv-x="502" d="M298 567h-64l-113 165l4 10h62l91 -91l86 91h40l4 -10z" />
<glyph horiz-adv-x="372" d="M304 858l-176 -125h-38l-4 10l85 126h129z" />
<glyph horiz-adv-x="428" d="M239 729h-57l-120 135l4 10h56l100 -66l93 66h41l4 -10z" />
<glyph horiz-adv-x="428" d="M193 874h57l120 -135l-4 -10h-56l-100 66l-93 -66h-41l-4 10z" />
<glyph horiz-adv-x="433" d="M55 807q0 37 21.5 52t50.5 15q28 0 49.5 -15t21.5 -52t-21.5 -52t-49.5 -15q-29 0 -50.5 15t-21.5 52zM244 807q0 37 21.5 52t50.5 15t50.5 -15t21.5 -52t-21.5 -52t-50.5 -15t-50.5 15t-21.5 52z" />
<glyph horiz-adv-x="270" d="M58 809q0 40 23 56t54 16t54 -16t23 -56t-23 -56t-54 -16t-54 16t-23 56z" />
<glyph horiz-adv-x="372" d="M78 869h129l85 -126l-4 -10h-38l-176 125z" />
<glyph horiz-adv-x="470" d="M388 853q-3 -48 -25.5 -80t-71.5 -32q-21 0 -40 5.5t-35 12.5t-30 12.5t-24 5.5q-14 0 -25.5 -9.5t-16.5 -30.5h-42q2 47 24.5 79t71.5 32q18 0 34.5 -5.5t32 -12t30.5 -12t29 -5.5q17 0 29 9.5t16 30.5h43z" />
<glyph horiz-adv-x="593" d="M459 862q-9 -56 -50 -88.5t-113 -32.5q-65 0 -108.5 29t-56.5 92h107q3 -35 20 -54t44 -19q35 0 49 20t18 53h90z" />
<glyph horiz-adv-x="648" d="M491 717q-3 -29 -16 -53t-35.5 -41.5t-52.5 -27.5t-66 -10q-32 0 -61.5 8t-53 24.5t-38.5 41.5t-18 58h113q2 -38 19.5 -61t44.5 -23q35 0 49 24t19 60h96z" />
<glyph unicode="&#x301;" horiz-adv-x="0" d="M-171 719l-173 -156h-32l-4 10l76 157h129z" />
<glyph horiz-adv-x="675" d="M391 570l-4 -11h-62l-90 66l-87 -66h-40l-4 11l110 133h64zM550 758l-145 -138h-34l-3 9l66 139h113z" />
<glyph horiz-adv-x="773" d="M298 850h57l120 -111l-4 -10h-56l-100 50l-93 -50h-40l-4 10zM630 897l-147 -109h-33l-3 10l68 110h111z" />
<glyph unicode="&#x2116;" horiz-adv-x="1173" d="M589 195v269q0 35 -21 50.5t-55 20.5v34h212v-34q-30 -4 -53 -20t-23 -51v-467h-91l-382 441v-333q0 -35 21 -50.5t55 -20.5v-34h-212v34q30 4 53 20t23 51v343q0 39 -17 61t-55 27v33h208zM1108 432q0 -36 -13.5 -67.5t-38 -55t-59.5 -37.5t-77 -14q-34 0 -64 9 t-53 27.5t-36.5 46t-13.5 64.5q0 39 15.5 71t41.5 54t61.5 34t74.5 12q34 0 64 -9.5t51.5 -28t34 -45.5t12.5 -61zM1000 412q0 59 -19 94t-54 35q-33 0 -49.5 -30.5t-16.5 -82.5q0 -58 19 -96.5t54 -38.5q30 0 48 30t18 89zM756 208h350v-41h-350v41z" />
<glyph unicode="&#x2122;" horiz-adv-x="1008" d="M943 759v-31q-5 -1 -13 -2.5t-13 -4.5q-11 -8 -12 -25v-227q0 -16 12 -25q4 -3 11.5 -4.5t14.5 -2.5v-31h-176v31q7 1 15 2.5t13 4.5q11 5 11 25v201l-113 -204h-24l-115 208v-184q0 -14 4.5 -24t12.5 -16q14 -10 39 -13v-31h-153v31q23 3 36 11q20 13 20 42v184 q0 26 -14 39q-12 12 -39 15v31h148l101 -186l101 186h133zM297 723v-254q0 -20 14 -27q7 -3 24 -5v-31h-176v31q7 1 13 1.5t11 2.5q14 7 14 28v254h-13q-42 0 -63.5 -19.5t-33.5 -61.5h-24v117h369v-117h-25q-11 42 -33 61.5t-64 19.5h-13z" />
<glyph unicode="&#xae;" horiz-adv-x="609" d="M305 243q-52 0 -98 17t-80.5 49.5t-55 80.5t-20.5 111t20.5 111t55 80.5t80.5 49.5t98 17t98 -17t80.5 -49.5t55 -80.5t20.5 -111t-20.5 -111t-55 -80.5t-80.5 -49.5t-98 -17zM305 290q44 0 81 13.5t63.5 40.5t41 66.5t14.5 90.5t-14.5 90.5t-41 66.5t-63.5 40.5 t-81 13.5t-81 -13.5t-63.5 -40.5t-41.5 -66.5t-15 -90.5t15 -90.5t41.5 -66.5t63.5 -40.5t81 -13.5zM203 601q0 11 -7 15q-5 4 -17 5v21h147q17 0 33.5 -3.5t29 -12t20 -21.5t7.5 -32q0 -25 -17.5 -42t-41.5 -26l56 -69q11 -14 20 -20t20 -8v-21h-87l-74 109h-17v-68 q0 -12 7 -15q6 -3 19 -5v-21h-122v21q5 0 9.5 1t7.5 3q7 4 7 16v173zM275 614v-94h20q27 0 38 11.5t11 37.5q0 24 -11.5 34.5t-31.5 10.5h-26z" />
<glyph unicode="&#xa9;" horiz-adv-x="687" d="M344 -9q-59 0 -112 19t-93 56.5t-63 92.5t-23 126q0 72 23 127t63 92.5t93 56.5t112 19t111.5 -19t92.5 -56.5t63 -92.5t23 -127q0 -71 -23 -126t-63 -92.5t-92.5 -56.5t-111.5 -19zM344 36q54 0 97.5 15.5t74 46t47.5 77.5t17 110q0 59 -17 105.5t-47.5 78.5t-74 49 t-97.5 17q-51 0 -94.5 -15.5t-76 -46.5t-50.5 -78t-18 -110t18.5 -110t51 -77.5t76 -46t93.5 -15.5zM473 163q-26 -23 -60 -37.5t-78 -14.5q-75 0 -115.5 44t-40.5 119q0 40 12.5 74t36.5 59t58 39.5t78 14.5q57 0 87 -20t30 -49q0 -21 -12.5 -35t-33.5 -14q-22 0 -31 12 t-16 26t-16.5 26t-31.5 12q-32 0 -46 -32.5t-14 -83.5q0 -27 4.5 -49t16 -37.5t30 -24.5t46.5 -9q19 0 43.5 3.5t51.5 12.5z" />
<glyph unicode="&#x20ac;" horiz-adv-x="726" d="M40 461h76q16 58 47.5 104t75.5 78t99 49t118 17q37 0 76 -6.5t70.5 -20.5t52 -35t20.5 -49q0 -33 -16.5 -47t-39.5 -14q-20 0 -33.5 9.5t-24.5 23t-21 30t-23 30t-30.5 23t-43.5 9.5q-40 0 -68 -15.5t-47 -42.5t-29.5 -64t-14.5 -79h196v-50h-200q-1 -14 -1 -28v-28v-27 t1 -26h200v-50h-196q5 -51 17.5 -91.5t32.5 -69t49.5 -44t68.5 -15.5q25 0 42 9t29 22t22 29t20.5 29t24 22t33.5 9q22 0 38.5 -12.5t16.5 -44.5q0 -29 -20 -49.5t-52 -34t-71 -20t-76 -6.5q-68 0 -126 18.5t-103.5 53t-76.5 84t-44 111.5h-69v50h61q-1 9 -1 18v19 q0 19 1.5 37t3.5 35h-65v50z" />
<glyph unicode="$" horiz-adv-x="600" d="M327 827v-119q40 -1 80 -8t71.5 -21t51 -34t19.5 -46q0 -32 -15 -46.5t-38 -14.5q-29 0 -47.5 16.5t-35 37.5t-36 40.5t-50.5 24.5v-220l42 -14q43 -14 78.5 -33t60.5 -45t39 -59.5t14 -75.5q0 -48 -17.5 -86.5t-49 -67t-74.5 -46t-93 -22.5v-147h-55v144q-43 1 -85 9 t-75.5 22.5t-54 35.5t-20.5 48t19 45.5t48 18.5q27 0 44.5 -17.5t34 -39.5t37 -42.5t52.5 -27.5v224l-37 13q-35 12 -68 29t-59 42t-42 59t-16 80q0 42 14.5 79.5t43 66.5t70 49t94.5 26v122h55zM418 136q0 37 -24.5 62.5t-66.5 42.5v-203q42 8 66.5 34t24.5 64zM187 557 q0 -36 23 -60t62 -41v199q-38 -9 -61.5 -35.5t-23.5 -62.5z" />
<glyph unicode="&#xa2;" horiz-adv-x="539" d="M325 633v-126q81 -2 127.5 -31t46.5 -73q0 -32 -18.5 -52.5t-50.5 -20.5q-27 0 -41 12.5t-23 30t-17.5 36t-23.5 29.5v-348h13q29 0 68 6t77 20l2 -55q-31 -28 -71 -46.5t-89 -25.5v-130h-55v126q-54 1 -97 18.5t-73 49t-45.5 76t-15.5 98.5t16 100.5t46 83t72.5 60.5 t96.5 32v130h55zM185 272q0 -63 19.5 -107t65.5 -63v346q-20 -5 -36 -20.5t-27 -39t-16.5 -53.5t-5.5 -63z" />
<glyph unicode="&#xa3;" horiz-adv-x="638" d="M48 361h77q-1 7 -1 14v15q0 76 23.5 135t64 100t94 62.5t112.5 21.5q37 0 68 -8t53.5 -21.5t35 -32.5t12.5 -41q0 -26 -19 -44t-52 -17q-23 0 -37.5 9t-24 22.5t-16.5 28.5t-15 28.5t-20 22t-31 8.5q-47 0 -71 -58.5t-24 -193.5q0 -13 -0.5 -25.5t-1.5 -25.5h194v-50 h-201q-8 -41 -27.5 -86t-57.5 -98h405l3 -10l-42 -117h-501l-7 35q33 40 51.5 76.5t27 70.5t9 66t-0.5 63h-80v50z" />
<glyph unicode="&#xa5;" horiz-adv-x="746" d="M112 349h147l-139 247q-17 26 -35.5 38.5t-50.5 17.5v41h337v-41q-17 -2 -33 -3.5t-24 -3.5t-15.5 -6t-12.5 -10.5t-6 -14.5t5 -18l130 -247h6l125 233q12 22 6.5 40t-25.5 23q-7 2 -23.5 3.5t-33.5 3.5v41h244v-35q-29 -3 -52.5 -19.5t-41.5 -42.5l-141 -247h153v-50 h-179v-89h179v-50h-179v-65q0 -20 6 -31t19 -17q7 -3 18 -4.5t24 -3.5v-39h-300v39q10 1 22.5 2.5t20.5 4.5q25 12 25 49v65h-176v50h176v88l-1 1h-175v50z" />
<glyph unicode="&#xa4;" horiz-adv-x="510" d="M460 111l-42 -42l-92 90q-32 -21 -71 -21q-18 0 -37 5.5t-34 15.5l-92 -91l-41 44l89 91q-9 15 -14.5 33.5t-5.5 36.5q0 38 20 70l-89 93l43 42l90 -91q13 9 34.5 15t36.5 6q19 0 38 -6t32 -14l91 90l44 -42l-91 -93q21 -32 21 -70q0 -19 -6 -38t-15 -32zM334 273 q0 16 -6.5 31t-17 26t-25 17.5t-30.5 6.5q-33 0 -56 -23.5t-23 -57.5q0 -33 23 -57t56 -24q16 0 30.5 6.5t25 17.5t17 25.5t6.5 31.5z" />
<glyph unicode="B" horiz-adv-x="700" d="M45 0v39q11 1 23 2.5t20 4.5q25 12 25 49v503q0 37 -25 48q-8 3 -19 4.5t-24 3.5v39h321q125 0 188.5 -45t63.5 -120q0 -56 -45.5 -100.5t-126.5 -60.5v-4q110 -5 162 -50.5t52 -114.5q0 -50 -23 -87.5t-62 -62t-90.5 -36.5t-108.5 -12h-331zM487 193q0 27 -8 52 t-28.5 44.5t-54 31t-84.5 11.5h-34v-280h46q85 0 124 37.5t39 103.5zM278 641v-262h21q77 0 109 35.5t32 95.5q0 69 -33.5 100t-91.5 31h-37z" />
<glyph unicode="A" horiz-adv-x="703" d="M408 240h-220l-55 -145q-7 -18 1 -31t28 -18q7 -2 23.5 -3.5t33.5 -3.5v-39h-227v39q11 1 21.5 4.5t18.5 6.5q15 5 24 15.5t16 29.5l243 611h84l224 -611q7 -20 16 -30t23 -15q8 -4 18 -7t21 -4v-39h-315v39q15 2 28 4t21 5q14 6 21.5 17.5t1.5 29.5zM208 293h182 l-86 251z" />
<glyph horiz-adv-x="703" d="M0 0z" />
</font>
</defs>
</svg>
